<svg xmlns="http://www.w3.org/2000/svg" width="48" height="48" viewBox="0 0 48 48" fill="none"><g clip-path="url(#clip0)"><path d="M34.5501 22.9098C33.6701 21.7698 32.4201 21.3798 31.0801 21.2198C32.5001 19.6398 33.6901 17.8898 34.1801 15.9498C35.1801 11.9798 32.5501 7.7698 28.2101 8.0098C23.9101 8.2498 21.6901 12.2098 18.6301 14.6198C17.2501 15.7098 15.7201 16.6098 14.1401 17.3698C13.3501 17.7498 12.4801 18.1398 11.6301 18.3198C11.3801 18.3698 11.2301 18.3898 11.0001 18.4198C10.9001 18.4298 10.8201 18.4198 10.7501 18.3898C10.8101 18.4298 10.7801 18.3298 10.6301 18.0898C10.0701 16.8598 8.29006 16.5598 7.21006 17.1898C5.95006 17.9298 5.75006 19.3798 6.31006 20.6098C8.16006 24.6398 12.9701 23.3398 16.0901 21.9598C19.3001 20.5298 22.2201 18.4098 24.6501 15.8798C25.6201 14.8698 26.6701 13.3898 28.1101 13.0698C29.0601 12.8598 29.4601 13.3498 29.4101 14.2798C29.3501 15.5398 28.3301 16.6798 27.5301 17.5898C26.2601 19.0198 24.8901 20.3398 23.4501 21.5998C21.7001 23.1198 23.2201 25.7498 25.2201 25.8698C26.4901 25.9498 27.7501 26.0198 29.0201 26.0998C29.1301 26.1098 29.9401 26.1898 30.4201 26.2198C30.3601 26.5598 30.2701 27.0498 30.2601 27.0598C30.1301 27.4398 29.9501 27.7798 29.7401 28.1298C29.2801 28.8798 28.6701 29.4998 28.0301 30.0798C24.8201 32.9798 20.3501 34.7398 16.2201 35.8398C13.1101 36.6698 14.4301 41.4898 17.5501 40.6598C23.3001 39.1298 29.8801 36.3398 33.5301 31.4298C35.1701 29.1598 36.4401 25.3698 34.5501 22.9098Z" fill="#FBD0D0"></path><path d="M41.5701 31.0598L38.0801 13.9598C37.9801 13.4498 37.6701 13.0098 37.2301 12.7198C36.7901 12.4398 36.2601 12.3398 35.7501 12.4498L33.9501 12.8198L31.8201 13.2598L31.4001 11.1798L29.2801 11.6098L28.7001 8.73982C28.4601 7.55982 27.2701 6.78982 26.0801 7.03982L14.9701 9.30982C13.7701 9.54982 12.9801 10.7198 13.2201 11.8998L13.8101 14.7698L11.5001 15.2398L11.9201 17.2998L9.9701 17.6998L8.2601 18.0498C7.7401 18.1498 7.3001 18.4498 7.0001 18.8798C6.7001 19.3198 6.6001 19.8398 6.7001 20.3498L10.1901 37.4498C10.2901 37.9598 10.6001 38.3998 11.0401 38.6898C11.3601 38.8998 11.7301 38.9998 12.1101 38.9998C12.2401 38.9998 12.3801 38.9898 12.5201 38.9598L14.2301 38.6098L19.4701 37.5398L35.9601 34.1798L38.2101 33.7198L40.0101 33.3498C41.0801 33.1398 41.7801 32.1098 41.5701 31.0598ZM36.3701 33.0798L33.7701 33.6098L31.2201 21.1098L32.6701 20.9398L32.2801 17.4798L30.5201 17.6698L29.9001 14.6598L30.9501 14.4498L33.1701 13.9998L37.0301 32.9598L36.3701 33.0798ZM30.0201 20.2398L26.6601 20.6198L26.4901 19.1298L31.4001 18.5798L31.5701 20.0598L30.0201 20.2398ZM17.8301 32.4198C16.4801 32.9298 15.2201 31.9798 15.2201 30.7098C15.2201 30.5798 15.2301 30.4598 15.2601 30.3398C15.4301 29.4998 16.1901 28.8598 17.0901 28.8598C18.1101 28.8698 18.9401 29.6998 18.9401 30.7098C18.9401 31.4498 18.5001 32.1298 17.8301 32.4198ZM15.9901 28.0698C15.9401 28.0898 15.8901 28.1198 15.8401 28.1398C15.7301 28.1898 15.6301 28.2498 15.5301 28.3098C15.4701 28.3498 15.4201 28.3898 15.3701 28.4298C15.2801 28.4898 15.2001 28.5598 15.1201 28.6298C15.0701 28.6798 15.0201 28.7298 14.9701 28.7798C14.9001 28.8598 14.8301 28.9398 14.7701 29.0198C14.7301 29.0798 14.6901 29.1298 14.6501 29.1898C14.5901 29.2798 14.5401 29.3698 14.5001 29.4698C14.4701 29.5298 14.4401 29.5898 14.4101 29.6498C14.3801 29.7698 14.3501 29.8798 14.3201 29.9998C14.3101 30.0598 14.2901 30.1098 14.2701 30.1698C14.2401 30.3498 14.2201 30.5298 14.2201 30.7098C14.2201 30.9198 14.2501 31.1298 14.2901 31.3298C14.3001 31.3798 14.3201 31.4198 14.3301 31.4698C14.3701 31.6198 14.4201 31.7698 14.4901 31.9098C14.5101 31.9498 14.5301 31.9898 14.5501 32.0298C14.6201 32.1698 14.7101 32.3098 14.8001 32.4298C14.8201 32.4598 14.8501 32.4898 14.8701 32.5198C14.9701 32.6498 15.0901 32.7598 15.2101 32.8698C15.2401 32.8898 15.2601 32.9198 15.2901 32.9398C15.4201 33.0398 15.5501 33.1298 15.7001 33.2098C15.7401 33.2298 15.7701 33.2498 15.8101 33.2698C15.9501 33.3398 16.0901 33.3898 16.2401 33.4398C16.2901 33.4598 16.3401 33.4698 16.3901 33.4898C16.5301 33.5198 16.6801 33.5398 16.8201 33.5598C16.8801 33.5698 16.9401 33.5798 17.0101 33.5798C17.0301 33.5798 17.0501 33.5898 17.0801 33.5898C17.2401 33.5898 17.4101 33.5698 17.5701 33.5398C17.5901 33.5398 17.6101 33.5398 17.6201 33.5398L18.2801 36.7898L15.0001 37.4598L11.1501 18.4798L12.1201 18.2798L14.4301 17.8098L16.4901 27.9198C16.3201 27.9598 16.1501 28.0098 15.9901 28.0698ZM16.1301 13.0198C16.0801 12.7498 16.1301 12.4798 16.2901 12.2498C16.4501 12.0198 16.6901 11.8498 16.9801 11.7998L25.2001 10.1198C25.7801 9.99982 26.3401 10.3598 26.4601 10.9198L26.7101 12.1398L25.8101 12.3198L26.2301 14.3798L17.5201 16.1598L17.2001 14.5898L17.0401 14.1098L16.5601 14.2098L16.3801 14.2498L16.1301 13.0198ZM30.8401 13.4398L30.7901 13.4498L27.2001 14.1798L26.9901 13.0998L30.6201 12.3598L30.8401 13.4398ZM14.2001 11.6998C14.0701 11.0598 14.5001 10.4298 15.1701 10.2898L26.2701 8.02982C26.9401 7.88982 27.5801 8.30982 27.7101 8.94982L28.2901 11.8198L27.6801 11.9498L27.4301 10.7298C27.2101 9.62982 26.1201 8.91982 24.9901 9.14982L16.7701 10.8298C16.2301 10.9398 15.7601 11.2498 15.4601 11.6998C15.1501 12.1598 15.0401 12.6998 15.1501 13.2298L15.4001 14.4398L14.7901 14.5698L14.2001 11.6998ZM12.6801 16.0198L14.0101 15.7498L16.2601 15.2898L16.4801 16.3698L15.2101 16.6298L12.9001 17.0998L12.6801 16.0198ZM12.3201 37.9798C12.0601 38.0298 11.8001 37.9898 11.5801 37.8398C11.3701 37.6998 11.2201 37.4898 11.1701 37.2498L7.6801 20.1498C7.6301 19.8998 7.6801 19.6498 7.8201 19.4398C7.9701 19.2198 8.1901 19.0798 8.4501 19.0198L10.1601 18.6698L14.0201 37.6298L12.3201 37.9798ZM18.5701 33.1498C19.4101 32.6298 19.9401 31.7098 19.9401 30.7098C19.9401 29.2898 18.8801 28.1198 17.5101 27.9098L15.4101 17.6198L16.6801 17.3598L16.7401 17.3498L17.1701 17.2598L26.4301 15.3698L28.9201 14.8598L29.5201 17.7998L25.3901 18.2598L25.7801 21.7298L30.2201 21.2298L32.7901 33.8098L19.2701 36.5698L18.5701 33.1498ZM39.8101 32.3798L38.0101 32.7498L34.1501 13.7898L35.9501 13.4198C36.0201 13.4098 36.0901 13.3998 36.1601 13.3998C36.3501 13.3998 36.5401 13.4498 36.7001 13.5598C36.9101 13.6998 37.0601 13.9098 37.1101 14.1498L40.6001 31.2498C40.6901 31.7698 40.3401 32.2698 39.8101 32.3798Z" fill="black"></path></g><defs><clipPath id="clip0"><rect width="35.61" height="33.73" fill="white" transform="translate(6 7)"></rect></clipPath></defs></svg>