<svg xmlns="http://www.w3.org/2000/svg" width="48" height="48" viewBox="0 0 48 48" fill="none"><g clip-path="url(#clip0)"><path d="M38.63 18.8801C36.07 17.8601 34.25 15.3801 32.57 13.3101C30.82 11.1601 27.3 5.91015 24.15 8.89015C22.79 10.1801 23.01 12.0901 23.54 13.7001C24.13 15.4901 24.91 17.2201 25.78 18.8901C27.39 22.0101 29.35 24.9301 30.92 28.0701C31.55 29.3301 32.36 30.7701 32.14 32.2101C32 32.2001 31.84 32.1601 31.75 32.1401C30.93 31.9601 30.15 31.5601 29.42 31.1501C26.52 29.5001 24.38 26.8201 22.57 24.0701C21.57 22.5601 20.65 21.0001 19.7 19.4601C18.76 17.9501 17.82 16.3101 16.47 15.1201C13.45 12.4901 9.37996 13.4201 7.55996 16.9401C3.51996 24.7301 8.00996 33.4801 13.44 39.2101C15.66 41.5501 19.19 38.0101 16.98 35.6701C13.55 32.0501 10.51 27.3701 11.14 22.1501C11.22 21.4701 11.8 18.0201 12.94 18.6701C13.81 19.1701 14.4 20.4301 14.91 21.2301C15.72 22.5001 16.49 23.8001 17.29 25.0801C20.14 29.6301 23.54 34.1501 28.63 36.3101C31.23 37.4101 34.46 37.8301 36.25 35.1301C38.01 32.4901 37 29.3001 35.79 26.6801C34.84 24.6101 33.68 22.6401 32.53 20.6701C33.94 21.9301 35.49 22.9601 37.31 23.6901C38.56 24.1901 40.06 23.1401 40.39 21.9401C40.77 20.5301 39.89 19.3901 38.63 18.8801ZM32.11 32.3401C32.11 32.3501 32.1 32.3501 32.11 32.3401V32.3401Z" fill="#FBD0D0"></path><path d="M32.59 21.5004C35.52 21.5004 37.9 19.1204 37.9 16.1904C37.9 13.2604 35.52 10.8804 32.59 10.8804C29.66 10.8804 27.28 13.2604 27.28 16.1904C27.28 19.1204 29.66 21.5004 32.59 21.5004ZM32.59 11.8804C34.97 11.8804 36.9 13.8104 36.9 16.1904C36.9 18.5704 34.97 20.5004 32.59 20.5004C30.21 20.5004 28.28 18.5704 28.28 16.1904C28.28 13.8104 30.21 11.8804 32.59 11.8804Z" fill="black"></path><path d="M13.57 28.8806C14.5 26.3706 15.12 23.7406 15.41 21.0706L19.43 25.0706C19.51 25.1506 19.62 25.2006 19.74 25.2006C19.76 25.2006 19.78 25.2006 19.81 25.1906C19.94 25.1706 20.06 25.0806 20.12 24.9606C20.94 23.3306 20.62 21.3606 19.33 20.0706L18.98 19.7206H22.02C22.26 19.7206 22.46 19.5306 22.46 19.2906C22.46 19.2406 22.45 19.1906 22.43 19.1506C21.86 17.4206 20.24 16.2506 18.42 16.2506H17.86L20.02 14.0806C20.19 13.9106 20.19 13.6406 20.02 13.4706C19.98 13.4306 19.95 13.4106 19.9 13.3906C18.27 12.5706 16.3 12.8906 15.02 14.1806L14.6 14.5906C14.47 14.7306 14.34 14.8706 14.23 15.0306C14.11 14.8706 13.99 14.7306 13.85 14.5906L13.44 14.1806C12.15 12.8906 10.18 12.5706 8.56 13.3906C8.34 13.4906 8.25 13.7506 8.36 13.9706C8.38 14.0106 8.41 14.0506 8.44 14.0806L10.61 16.2506H10.04C8.22 16.2506 6.6 17.4206 6.02 19.1506C5.95 19.3806 6.07 19.6206 6.3 19.7006C6.34 19.7106 6.39 19.7206 6.43 19.7206H9.48L9.12 20.0706C7.83 21.3606 7.51 23.3306 8.33 24.9606C8.39 25.0806 8.51 25.1706 8.65 25.1906C8.67 25.2006 8.69 25.2006 8.72 25.2006C8.83 25.2006 8.94 25.1506 9.02 25.0706L12.77 21.3406C12.48 23.9606 11.74 26.5106 10.61 28.8806H6V29.8806H10.1C9.56 30.8906 8.93 31.8606 8.24 32.7906C7.66 32.6406 7.07 32.5206 6.48 32.4306L6.21 32.4006L6.12 33.2606L6.37 33.2906C6.81 33.3506 7.24 33.4406 7.66 33.5406C7.58 33.6506 7.49 33.7606 7.4 33.8606L8.06 34.4206C9.24 33.0206 10.25 31.4906 11.08 29.8806C11.25 29.5506 11.42 29.2206 11.57 28.8806C12.79 26.2206 13.53 23.3406 13.73 20.3906L14.23 19.9006L14.6 20.2706C14.36 23.2306 13.7 26.1206 12.65 28.8806C12.53 29.2106 12.39 29.5506 12.25 29.8806C11.41 31.9006 10.36 33.8206 9.11 35.6406L9.76 36.0906L9.82 36.1406C9.83 36.1206 9.84 36.1106 9.85 36.0906C10.12 35.7106 10.37 35.3206 10.62 34.9206C10.62 34.9106 10.63 34.9106 10.63 34.9106C10.64 34.8906 10.65 34.8806 10.66 34.8606C10.7 34.7906 10.75 34.7106 10.8 34.6306C12.83 35.6006 14.61 37.0006 16.04 38.7406L16.71 38.1906C16.02 37.3406 15.22 36.5906 14.36 35.9106C16.95 35.0006 26.08 32.2906 32.8 36.5806L33.34 35.7406C25.45 30.7006 14.88 34.6006 13.43 35.1806L12.56 34.5906C12.14 34.3406 11.7 34.1006 11.25 33.8906C11.99 32.6006 12.64 31.2606 13.2 29.8806H42V28.8806H13.57V28.8806ZM7.09 18.8506C7.69 17.7806 8.81 17.1206 10.04 17.1206H10.62C11.71 17.1206 12.73 17.6506 13.36 18.5306C12.46 18.3406 11.52 18.4606 10.68 18.8506H7.09ZM8.88 23.9906C8.54 22.8206 8.87 21.5506 9.73 20.6906L10.15 20.2706C10.77 19.6506 11.62 19.3006 12.5 19.3106C12.82 19.3106 13.14 19.3506 13.46 19.4406L8.88 23.9906ZM13.41 17.3006C13.02 16.9606 12.57 16.7006 12.09 16.5206L9.52 13.9406C10.7 13.6006 11.96 13.9306 12.83 14.7906L13.24 15.2106C13.43 15.4006 13.6 15.6206 13.74 15.8606C13.54 16.3206 13.43 16.8106 13.41 17.3006ZM19.58 23.9906L15 19.4506C16.17 19.1006 17.44 19.4106 18.31 20.2706L18.72 20.6906C19.59 21.5506 19.92 22.8206 19.58 23.9906ZM18.42 17.1206C19.64 17.1206 20.77 17.7806 21.36 18.8506H17.78C16.94 18.4606 16 18.3406 15.09 18.5306C15.72 17.6506 16.74 17.1206 17.83 17.1206H18.42ZM14.33 18.1206C14.12 17.0606 14.46 15.9706 15.21 15.2106L15.63 14.7906C16.49 13.9306 17.76 13.6006 18.94 13.9406L16.37 16.5206C15.54 16.8206 14.82 17.3906 14.33 18.1206Z" fill="black"></path><path d="M39.0801 31.5405H32.3101V32.5405H39.0801V31.5405Z" fill="black"></path></g><defs><clipPath id="clip0"><rect width="36" height="31.98" fill="white" transform="translate(6 8)"></rect></clipPath></defs></svg>