<svg xmlns="http://www.w3.org/2000/svg" width="48" height="48" viewBox="0 0 48 48" fill="none"><g clip-path="url(#clip0)"><path d="M37.21 34.9101C36.32 32.4601 35.84 29.9901 35.82 27.3801C35.8 24.1601 30.87 24.1601 30.82 27.3801C30.77 31.0501 24.87 32.0301 22.41 30.2401C20.82 29.0901 21.59 27.4001 22.55 26.0901C23.89 24.2501 25.69 22.6201 27.42 21.1501C30.4 18.6101 36.42 15.4801 33.33 10.6701C30.48 6.23009 24.31 8.23009 20.58 10.2301C16.51 12.4201 13.12 16.0101 11.22 20.2401C10.67 21.4701 10.87 22.9301 12.12 23.6601C13.19 24.2901 14.98 24.0001 15.54 22.7601C17.15 19.1801 19.8 16.2901 23.28 14.4601C24.07 14.0501 24.88 13.7101 25.73 13.4401C26.55 13.1801 27.84 12.6901 28.69 13.0301C28.9 13.1101 29.01 13.2501 29.13 13.3801C29.1 13.4101 29.08 13.4401 29.04 13.4801C28.43 14.0501 27.87 14.5501 27.18 15.0501C25.11 16.5501 23.13 18.1901 21.33 20.0001C19.59 21.7501 17.89 23.6301 16.99 25.9601C16.06 28.3601 16.46 30.9601 18.09 32.9501C19.67 34.8701 22.03 35.7301 24.44 35.9701C27 36.2201 29.68 35.6201 31.8 34.3001C31.98 34.9501 32.18 35.6001 32.41 36.2401C32.87 37.5101 34.11 38.3601 35.49 37.9901C36.68 37.6401 37.67 36.1801 37.21 34.9101ZM29.12 13.3701C29.01 13.1301 29.37 13.0801 29.12 13.3701V13.3701Z" fill="#FBD0D0"></path><path d="M39.6401 37.4803L32.8201 22.4803L37.1101 18.1903C38.0301 17.2803 38.5601 16.1003 38.5601 14.9503C38.5601 14.0903 38.2701 13.3403 37.7101 12.7803C36.3801 11.4503 33.9601 11.7203 32.3101 13.3703L31.4601 14.2203C31.3701 14.3003 31.2801 14.3603 31.1901 14.4503L29.7001 15.9303L29.7201 15.9503L27.6701 18.0003L11.7001 12.1203C11.0701 11.7603 10.2901 11.8803 9.80007 12.4203L9.38007 12.9003C8.83007 13.5103 8.88007 14.4503 9.52007 15.0403L21.5101 24.1603L18.0001 27.6703C17.7801 27.8903 17.6201 28.1003 17.5101 28.3003L17.0301 29.1203L12.3701 27.4003C12.0001 27.1803 11.5101 27.2403 11.2001 27.5703L11.0301 27.7603C10.7101 28.1303 10.7301 28.6803 11.1301 29.0503L15.2301 32.1703L14.3801 33.6203C14.1301 34.0703 14.0301 34.5503 14.0901 34.9903L13.6901 35.3903C13.4801 35.5903 13.3601 35.8603 13.3601 36.1503C13.3601 36.4403 13.4801 36.7103 13.6701 36.8903C13.8701 37.1003 14.1401 37.2203 14.4301 37.2203C14.7201 37.2203 14.9901 37.1003 15.1801 36.9003L15.6601 36.4203C15.6801 36.4203 15.7001 36.4303 15.7301 36.4303C16.1101 36.4303 16.5001 36.3203 16.8701 36.1103L18.6401 35.0803L22.1101 39.0203C22.2801 39.1803 22.5101 39.2703 22.7301 39.2703C22.9601 39.2703 23.2001 39.1803 23.3801 38.9903L23.5601 38.8003C23.8601 38.4903 23.9001 38.0303 23.6701 37.6803L21.6901 33.3203L22.0501 33.1103C22.2801 32.9803 22.5001 32.8103 22.7001 32.6103L26.8301 28.4803L36.9301 39.8903C37.2201 40.1703 37.5901 40.3103 37.9701 40.3103C38.3601 40.3103 38.7501 40.1603 39.0401 39.8603L39.4901 39.3903C40.0001 38.8703 40.0601 38.0703 39.6401 37.4803ZM22.7401 38.2203L19.5201 34.5703L20.8101 33.8203L22.7801 38.1603L22.7401 38.2203ZM35.8401 14.6203C36.2101 14.9903 36.4101 15.5003 36.4101 16.1003C36.4101 16.6503 36.2401 17.2203 35.9301 17.7503C35.9301 17.6903 35.9301 17.6303 35.9301 17.5703C35.9301 16.7203 35.6201 15.9503 35.0601 15.3903C34.5001 14.8303 33.7401 14.5303 32.8801 14.5303C32.8201 14.5303 32.7501 14.5303 32.6901 14.5303C33.8101 13.8803 35.0901 13.8703 35.8401 14.6203ZM37.0001 13.4903C37.3701 13.8603 37.5601 14.3603 37.5601 14.9503C37.5601 15.2503 37.4901 15.5603 37.4001 15.8603C37.3501 15.1003 37.0601 14.4103 36.5501 13.9003C36.0401 13.4003 35.3801 13.1303 34.6601 13.0703C35.5501 12.8003 36.4301 12.9203 37.0001 13.4903ZM10.1601 14.2703C9.95007 14.0803 9.93007 13.7803 10.1201 13.5703L10.5501 13.0903C10.6501 12.9803 10.7801 12.9203 10.9201 12.9203C11.0201 12.9203 11.1101 12.9503 11.2001 13.0003L26.8801 18.7903L22.2201 23.4503L10.1601 14.2703ZM11.8501 28.3503L11.9101 28.2803C11.9101 28.2803 11.9201 28.2903 11.9401 28.3003L16.5301 29.9903L16.2001 30.5503L15.7501 31.3103L11.8501 28.3503ZM14.3901 36.1103L14.4101 36.1003L14.5101 36.0003L17.2501 33.3403L17.2701 33.3803L14.4301 36.2303L14.3901 36.1103ZM21.9901 31.9103C21.8501 32.0503 21.7101 32.1603 21.5501 32.2503L18.6101 33.9503L17.9701 34.3203L17.5101 34.5803L17.9901 34.1003C18.1901 33.9003 18.3001 33.6303 18.3001 33.3503C18.3001 33.0703 18.1901 32.7903 17.9901 32.6003C17.7901 32.4003 17.5201 32.2903 17.2401 32.2903C16.9501 32.2903 16.6901 32.4003 16.4801 32.6003L15.6901 33.4003L16.0401 32.8003L16.8601 31.4003L18.3901 28.8003C18.4601 28.6703 18.5601 28.5403 18.7101 28.3903L22.3201 24.7803L28.7001 18.4003L30.6901 16.4103C31.2501 15.9403 31.9001 15.6403 32.5501 15.5603C33.2701 15.4703 33.9201 15.6703 34.3601 16.1103C34.7301 16.4803 34.9301 16.9903 34.9301 17.5903C34.9301 18.4403 34.5101 19.3603 33.8101 20.0703L33.8201 20.0803L21.9901 31.9103ZM38.7701 38.7003L38.3201 39.1703C38.1301 39.3603 37.8201 39.3703 37.6501 39.2103L27.5301 27.7703L32.0601 23.2403L38.7401 37.9403L38.8001 38.0403C38.9601 38.2403 38.9401 38.5203 38.7701 38.7003Z" fill="black"></path></g><defs><clipPath id="clip0"><rect width="30.91" height="32.31" fill="white" transform="translate(9 8)"></rect></clipPath></defs></svg>