<svg xmlns="http://www.w3.org/2000/svg" width="48" height="48" viewBox="0 0 48 48" fill="none"><g clip-path="url(#clip0)"><path d="M34.5901 21.21C33.6301 16.88 30.5901 12.79 27.1701 10.08C26.1101 9.24 24.6701 9.05 23.6301 10.08C22.7601 10.95 22.5701 12.77 23.6301 13.62C26.0601 15.54 28.0601 17.97 29.2301 20.86C29.5801 21.73 30.2201 23.33 29.7501 24.22C29.6101 24.48 29.3601 24.64 29.0501 24.75C28.0001 24.41 26.8501 24.51 25.8301 25.28C24.9301 25.96 24.3601 26.94 24.6801 28.1C24.9101 28.93 25.6201 29.63 26.4601 29.85C26.4201 29.9 26.3901 29.94 26.3901 29.94C25.5601 30.75 24.6601 31.45 23.6601 32.04C22.4601 32.75 19.5001 34.24 18.4001 32.86C17.5601 31.8 15.7401 31.98 14.8601 32.86C13.8201 33.9 14.0201 35.34 14.8601 36.4C16.5101 38.47 19.4201 38.57 21.8001 38.11C24.3501 37.62 26.6201 36.23 28.6201 34.62C30.4501 33.14 32.1801 31.24 32.0901 28.79C32.5301 28.52 32.9401 28.19 33.3101 27.78C34.9401 25.96 35.0901 23.48 34.5901 21.21Z" fill="#FBD0D0"></path><path d="M33.58 28.94V25.85C34.51 25.65 35.21 24.82 35.21 23.84C35.21 22.7 34.28 21.77 33.14 21.77H30.9C30.92 21.7 30.94 21.63 30.94 21.56V19.76C30.94 19.38 30.7 19.05 30.36 18.89C30.47 18.49 30.53 18.1 30.54 17.73L31.35 17.85V17.27C31.35 16.88 31.21 16.49 30.97 16.18V14.24C30.97 11.91 28.87 9.94 25.92 9.4C25.74 8.6 24.95 8 24.01 8C23.05 8 22.25 8.62 22.08 9.44C19.21 10.04 17.23 11.96 17.23 14.25V16.19C16.99 16.5 16.85 16.88 16.85 17.27V17.85L17.52 17.75C17.53 18.08 17.58 18.37 17.64 18.63C17.2 18.74 16.87 19.1 16.87 19.55V21.35C16.87 21.5 16.91 21.64 16.98 21.76H15.3C14.16 21.76 13.24 22.69 13.24 23.83C13.24 24.82 13.94 25.64 14.87 25.84V28.75C13.68 29.58 13 30.77 13 32.09V39.74H20.67H27.12H35.19V32.09C35.2 30.88 34.61 29.75 33.58 28.94ZM31.72 28.01C31.53 27.96 31.34 27.91 31.14 27.88C31.07 27.87 31 27.85 30.92 27.84C30.66 27.81 30.4 27.78 30.14 27.78H27.12V26.8C27.16 26.79 27.21 26.78 27.25 26.76C27.43 26.71 27.6 26.65 27.76 26.57C27.84 26.54 27.91 26.49 27.98 26.46C27.99 26.45 28 26.45 28.02 26.44C28.05 26.42 28.08 26.41 28.11 26.39C28.15 26.37 28.19 26.35 28.22 26.32C28.31 26.27 28.39 26.21 28.47 26.14C28.53 26.1 28.58 26.06 28.64 26.01C28.69 25.97 28.75 25.92 28.8 25.87H32.55V28.29C32.34 28.19 32.11 28.11 31.89 28.04C31.85 28.05 31.79 28.03 31.72 28.01ZM28.88 23.57C28.88 23.69 28.87 23.82 28.84 23.94C28.83 23.98 28.82 24.03 28.81 24.07C28.79 24.15 28.77 24.22 28.74 24.3C28.72 24.35 28.7 24.39 28.68 24.44C28.64 24.51 28.61 24.59 28.56 24.66C28.54 24.69 28.52 24.73 28.49 24.76C28.42 24.86 28.34 24.96 28.25 25.05C27.98 25.34 27.63 25.54 27.25 25.69C27.05 25.43 26.94 25.11 26.94 24.77C26.94 23.93 27.62 23.25 28.45 23.25C28.6 23.25 28.74 23.27 28.88 23.31V23.57ZM34.2 23.83C34.2 24.41 33.72 24.89 33.13 24.89H29.57C29.58 24.87 29.59 24.84 29.6 24.82C29.62 24.77 29.65 24.72 29.67 24.67C29.7 24.58 29.73 24.49 29.75 24.4C29.77 24.34 29.79 24.28 29.81 24.22C29.82 24.19 29.82 24.17 29.83 24.14C29.87 23.96 29.89 23.77 29.89 23.58V22.77H33.14C33.72 22.76 34.2 23.24 34.2 23.83ZM18.86 16.2C18.88 16.2 18.91 16.19 18.93 16.18C19.06 16.14 19.2 16.11 19.34 16.1L20.29 16.01L20.35 16C22.54 15.82 24.75 15.81 26.95 15.94C27.25 15.96 27.54 15.97 27.84 16L28.88 16.09C28.89 16.09 28.9 16.09 28.9 16.09C29 16.1 29.09 16.13 29.19 16.15C29.26 16.27 29.31 16.39 29.36 16.52L28.61 16.41C27.16 16.19 25.68 16.07 24.21 16.06H23.85C23.84 16.06 23.84 16.06 23.83 16.06H23.63L23.62 16.07C22.28 16.1 20.92 16.21 19.58 16.42L18.7 16.56C18.74 16.43 18.79 16.31 18.86 16.2ZM29.29 18.97C28.17 18.85 26.6 17.87 25.51 17.13C26.5 17.18 27.48 17.26 28.45 17.41L29.51 17.57C29.52 18.01 29.46 18.47 29.29 18.97ZM24.01 9C24.29 9 24.55 9.1 24.72 9.25C24.6 9.25 24.48 9.24 24.36 9.24H23.82C23.64 9.24 23.46 9.25 23.27 9.26C23.46 9.1 23.72 9 24.01 9ZM22.62 10.33C23.02 10.27 23.43 10.24 23.82 10.24H24.36C24.69 10.24 25.04 10.26 25.39 10.31C28.05 10.66 29.97 12.31 29.97 14.24V15.37C29.92 15.35 29.87 15.33 29.82 15.31V15.3L29.71 15.26C29.69 15.25 29.68 15.25 29.66 15.24C29.65 15.24 29.64 15.24 29.63 15.23C29.41 15.16 29.2 15.11 29 15.1C28.98 15.1 28.97 15.09 28.95 15.09L27.94 15C27.81 15.01 27.68 15 27.56 14.99C25.14 14.81 22.68 14.81 20.26 15.01L20.18 15.02L19.25 15.1C19.15 15.11 19.05 15.13 18.95 15.15C18.89 15.16 18.83 15.17 18.77 15.18H18.76C18.61 15.22 18.47 15.27 18.34 15.32L18.22 15.37V14.24C18.22 12.38 20.08 10.74 22.62 10.33ZM19.74 17.41C20.68 17.26 21.63 17.18 22.58 17.13C21.52 18.08 20.18 18.94 18.79 18.99C18.79 18.98 18.78 18.96 18.78 18.94C18.78 18.93 18.78 18.93 18.77 18.92L18.75 18.9C18.67 18.68 18.53 18.17 18.52 17.59L19.74 17.41ZM17.87 21.35L17.91 19.58H17.93C17.96 19.65 17.97 19.69 17.97 19.69L18.09 19.96L18.38 19.99C18.49 20 18.6 20 18.72 20C18.73 20 18.73 20 18.74 20H18.75C20.6 19.99 22.5 19.13 24.03 17.62C25.61 19.19 27.62 20.07 29.51 19.99H29.93L29.91 21.52H28.87V21.77V22.31C28.73 22.29 28.59 22.26 28.44 22.26C27.05 22.26 25.93 23.39 25.93 24.78C25.93 25.2 26.05 25.6 26.24 25.96L26.13 25.98V27.8H21.68V25.97L21.25 25.9C21.19 25.89 21.14 25.87 21.08 25.86C21.45 25.42 21.67 24.88 21.67 24.28C21.67 22.89 20.54 21.76 19.15 21.76C19.08 21.76 19 21.77 18.93 21.78V21.76V21.31L17.87 21.35ZM26.13 31.79H21.68V28.8H26.14V31.79H26.13ZM17.04 27.89C16.95 27.91 16.87 27.92 16.78 27.94C16.51 28 16.24 28.08 15.99 28.17C15.95 28.18 15.91 28.19 15.87 28.21V25.89H19C19 25.89 19.01 25.9 19.02 25.9C19.1 25.97 19.18 26.04 19.27 26.1C19.3 26.12 19.33 26.15 19.36 26.17C19.36 26.17 19.37 26.17 19.37 26.18C19.39 26.19 19.41 26.21 19.43 26.22C19.57 26.32 19.73 26.41 19.89 26.49L20.12 26.61L20.15 26.59C20.33 26.67 20.51 26.75 20.7 26.8V27.78H20.67H18.03C17.7 27.79 17.36 27.83 17.04 27.89ZM26.13 35.95H21.68V32.79H26.13V35.95V35.95ZM20.09 25.47C20.06 25.45 20.03 25.43 20 25.42C19.9 25.35 19.81 25.28 19.72 25.2C19.67 25.15 19.61 25.11 19.56 25.06C19.44 24.94 19.34 24.81 19.25 24.67C19.23 24.64 19.21 24.6 19.2 24.57C19.13 24.45 19.08 24.32 19.03 24.2C19.03 24.15 19.01 24.11 19 24.07C18.96 23.91 18.93 23.74 18.93 23.57V22.78C19.82 22.65 20.67 23.37 20.67 24.29C20.67 24.76 20.45 25.19 20.09 25.47ZM21.68 38.73V36.94H26.13V38.73H21.68ZM14.24 23.83C14.24 23.24 14.72 22.76 15.3 22.76H17.91L17.93 23.57C17.93 23.75 17.95 23.93 17.98 24.1C17.99 24.14 18 24.18 18 24.21C18.01 24.25 18.02 24.28 18.03 24.32C18.06 24.42 18.09 24.52 18.13 24.62C18.15 24.68 18.17 24.74 18.2 24.8C18.21 24.83 18.22 24.86 18.23 24.88V24.89H15.3C14.72 24.89 14.24 24.42 14.24 23.83ZM20.67 38.73H14V32.08C14 31.03 14.59 30.07 15.63 29.44C16.31 29.02 17.16 28.79 18.03 28.79H20.67V36.94V38.73ZM34.2 38.73H27.13V36.94V28.79H30.15C30.39 28.79 30.63 28.81 30.87 28.84C31.58 28.94 32.24 29.2 32.79 29.58C33.69 30.21 34.2 31.12 34.2 32.08V38.73Z" fill="black"></path><path d="M21.0699 21.0601C21.2899 21.0601 21.4699 21.2401 21.4699 21.4601H21.9699C21.9699 20.9601 21.5699 20.5601 21.0699 20.5601C20.5699 20.5601 20.1699 20.9601 20.1699 21.4601H20.6699C20.6699 21.2401 20.8499 21.0601 21.0699 21.0601Z" fill="black"></path><path d="M26.43 21.0601C26.65 21.0601 26.83 21.2401 26.83 21.4601H27.33C27.33 20.9601 26.93 20.5601 26.43 20.5601C25.93 20.5601 25.53 20.9601 25.53 21.4601H26.03C26.03 21.2401 26.21 21.0601 26.43 21.0601Z" fill="black"></path><path d="M24.0299 24.1902C24.5299 24.1902 24.9299 23.7902 24.9299 23.2902V21.7002H24.4299V23.2902C24.4299 23.5102 24.2499 23.6902 24.0299 23.6902C23.8099 23.6902 23.6299 23.5102 23.6299 23.2902V21.7002H23.1299V23.2902C23.1299 23.7902 23.5399 24.1902 24.0299 24.1902Z" fill="black"></path></g><defs><clipPath id="clip0"><rect width="22.2" height="31.74" fill="white" transform="translate(13 8)"></rect></clipPath></defs></svg>