<svg xmlns="http://www.w3.org/2000/svg" width="48" height="48" viewBox="0 0 48 48" fill="none"><g clip-path="url(#clip0)"><path d="M29.6201 32.7099C29.8701 32.7999 29.4701 32.4899 29.5701 32.6199C29.4101 32.3999 29.3601 32.2199 29.2801 31.9199C29.0901 31.2299 29.0601 30.6099 29.0301 29.8899C28.9301 27.7899 28.8301 25.6899 28.7301 23.5899C28.5401 19.6699 28.8101 15.0399 25.8301 12.0199C22.8901 9.02987 18.5201 9.91987 15.1301 11.5499C11.9801 13.0499 9.35011 15.6299 7.69011 18.6699C6.37011 21.0899 10.0701 23.2599 11.3901 20.8299C12.7801 18.2799 14.9601 16.1999 17.6601 15.0599C18.8601 14.5499 20.5701 13.9399 21.8701 14.4099C23.0601 14.8499 23.6501 16.1299 23.9401 17.2699C24.3901 19.0299 24.3301 20.9199 24.4101 22.7299C24.5001 24.6899 24.6001 26.6499 24.6901 28.6099C24.8401 31.8399 24.9801 35.4999 28.4901 36.8299C29.5701 37.2399 30.8401 36.3799 31.1301 35.3299C31.4501 34.1399 30.7101 33.1199 29.6201 32.7099Z" fill="#FBD0D0"></path><path d="M22.0301 35.0602C21.5001 34.6702 21.0301 34.2002 20.6601 33.6602C20.5601 33.5102 20.4601 33.3602 20.3601 33.2002C20.0901 32.7702 19.8001 32.3202 19.3801 31.9702C18.7401 31.4302 17.6901 31.1902 16.9801 31.7902C16.9401 31.8302 16.9001 31.8702 16.8601 31.9102C16.8201 31.9502 16.7701 31.9902 16.7401 32.0102C16.6301 32.0802 16.3701 31.9502 16.1601 31.7302L16.0401 31.6102C15.7601 31.3202 15.4101 30.9502 14.9001 30.9002C14.3601 30.8402 13.8201 31.1902 13.6401 31.7102C13.4701 32.2002 13.6301 32.7802 14.0301 33.1202C14.2501 33.3102 14.5001 33.4002 14.7301 33.4802C14.9001 33.5402 15.0401 33.5902 15.1401 33.6702C15.2501 33.7602 15.2901 33.8502 15.3501 34.0002C15.4001 34.1302 15.4601 34.2602 15.5501 34.3902C15.9801 35.0402 16.5501 35.3602 17.1601 35.6902C17.2901 35.7602 17.4201 35.8302 17.5501 35.9102C18.6101 36.5202 19.7901 36.8302 20.9201 37.1402C21.1401 37.2002 21.4001 37.2702 21.6801 37.2702C21.7601 37.2702 21.8401 37.2602 21.9201 37.2502C22.4101 37.1702 22.8001 36.8102 22.8601 36.3802C22.9601 35.7302 22.3601 35.2902 22.0301 35.0602ZM21.7801 36.4202C21.5901 36.4502 21.3601 36.3902 21.1301 36.3302C20.0501 36.0402 18.9301 35.7402 17.9701 35.1902C17.8301 35.1102 17.7001 35.0402 17.5701 34.9702C17.0101 34.6602 16.5701 34.4202 16.2601 33.9502C16.2001 33.8602 16.1701 33.7802 16.1401 33.7002C16.0601 33.5102 15.9601 33.2602 15.6901 33.0302C15.4801 32.8502 15.2301 32.7702 15.0201 32.6902C14.8501 32.6302 14.7001 32.5802 14.6001 32.4902C14.4601 32.3702 14.4001 32.1602 14.4501 32.0002C14.5001 31.8602 14.6501 31.7502 14.7901 31.7502C14.8001 31.7502 14.8101 31.7502 14.8201 31.7502C15.0201 31.7702 15.2201 31.9802 15.4301 32.2002L15.5601 32.3302C16.0901 32.8602 16.7101 33.0202 17.1901 32.7402C17.3101 32.6702 17.4001 32.5802 17.4701 32.5102L17.5501 32.4302C17.8801 32.1502 18.4701 32.3102 18.8401 32.6102C19.1601 32.8802 19.4001 33.2502 19.6501 33.6502C19.7501 33.8102 19.8601 33.9802 19.9701 34.1402C20.4001 34.7602 20.9301 35.3002 21.5501 35.7402C21.7001 35.8502 22.0501 36.1002 22.0301 36.2502C22.0001 36.3202 21.9001 36.4002 21.7801 36.4202Z" fill="black"></path><path d="M41.76 20.3C41.65 20.07 41.41 19.91 41.08 19.7L40.74 19.51L40.44 19.91C40.35 20.04 39.83 20.43 39.14 20.8L39.28 21.22L39.1 21V20.87H39L38.91 20.91C38.71 21 38.54 21.03 38.42 20.97C38.36 20.95 38.31 20.91 38.26 20.86L38.31 20.82C38.89 20.39 39.4 19.96 39.65 19.75L40.31 19.19L39.63 18.92C39.57 18.89 39.5 18.87 39.48 18.87C38.83 18.67 37.86 18.66 36.55 18.81C35.55 16.37 33.9 14.31 31.85 12.79L31.87 12.77L31.48 12.5C29.11 10.86 26.33 10 23.45 10H23.13L23.11 10.02C15.45 10.2 9.27002 16.48 9.27002 24.18C9.27002 24.42 9.28002 24.66 9.29002 24.9V24.99C9.40002 26.93 9.90002 28.75 10.7 30.4C10.35 30.61 10.11 31 10.11 31.45C10.11 32.12 10.63 32.67 11.28 32.67C11.52 32.67 11.75 32.59 11.93 32.46C14.51 36.04 18.72 38.37 23.45 38.37C26.51 38.37 29.41 37.42 31.83 35.62C32.42 35.19 32.95 34.71 33.45 34.2L33.46 34.22L33.84 33.81L33.85 33.8L34.06 33.57C35.5 31.94 36.56 30.01 37.12 27.95C37.17 27.76 37.22 27.58 37.26 27.39C37.34 27.05 37.41 26.7 37.46 26.31C37.46 26.29 37.47 26.27 37.47 26.25C37.47 26.24 37.47 26.23 37.47 26.22C37.47 26.21 37.47 26.2 37.47 26.2C37.48 26.13 37.49 26.06 37.5 25.98C38.08 25.79 38.5 25.26 38.52 24.62C38.53 24.33 38.44 24.06 38.3 23.82C39.3 23.45 39.91 23.21 39.91 23.21C40.33 23.06 40.68 22.89 40.96 22.7C41.54 22.32 41.88 21.88 41.97 21.38C42.07 20.84 41.85 20.44 41.76 20.3ZM35.51 18.97C35.46 18.98 35.42 18.99 35.37 18.99C34.77 19.09 34.11 19.22 33.4 19.38C33.46 19.15 33.53 18.92 33.6 18.67C33.85 17.85 34.09 16.99 34.01 16.1C34.68 16.96 35.25 17.91 35.69 18.94C35.64 18.95 35.57 18.96 35.51 18.97ZM20.31 20.33C20.29 20.35 20.27 20.37 20.25 20.4C20.21 20.45 20.19 20.5 20.16 20.55C20.15 20.57 20.14 20.58 20.13 20.6C20.1 20.59 20.07 20.59 20.04 20.58C19.47 20.47 18.92 20.51 18.39 20.55C18.13 20.57 17.87 20.59 17.61 20.59C17.22 20.59 16.29 20.52 15.94 19.89C15.75 19.55 15.76 19.06 15.96 18.62C16.04 18.43 16.15 18.24 16.25 18.06C16.4 17.79 16.55 17.52 16.65 17.22C16.82 16.75 16.7 16.26 16.59 15.83C16.52 15.55 16.44 15.23 16.52 15.1C16.57 15.02 16.73 14.95 16.95 14.91C17.26 14.85 17.59 14.9 17.95 14.96C18.12 14.99 18.28 15.01 18.47 15.03C19.21 15.07 19.96 14.92 20.65 14.56C20.78 14.49 20.91 14.42 21.05 14.34C21.39 14.14 21.69 13.96 22.01 13.97C22.29 13.98 22.58 14.16 22.89 14.34C23.35 14.61 23.88 14.92 24.5 14.74C24.62 14.7 24.74 14.64 24.86 14.58C24.95 14.53 25.07 14.47 25.13 14.47C25.15 14.47 25.19 14.47 25.24 14.53C25.34 14.65 25.39 14.87 25.36 15.06C25.33 15.22 25.28 15.39 25.23 15.55C25.14 15.84 25.04 16.17 25.05 16.53C25.06 17.14 25.39 17.71 26.06 18.27C26.62 18.75 27.2 19 27.75 19.01C28.45 19.06 29.24 18.6 29.39 17.79C29.49 17.1 29.05 16.53 28.69 16.08L28.64 16.01C28.39 15.68 28.23 15.25 28.4 15.04C28.54 14.88 28.89 14.92 29.12 15.08C29.32 15.19 29.49 15.37 29.68 15.55C29.82 15.68 29.95 15.82 30.08 15.92C30.62 16.41 31.23 16.59 31.78 16.4C32.07 16.29 32.3 16.09 32.5 15.9C32.74 15.68 32.91 15.55 32.99 15.58C33.04 15.6 33.12 15.73 33.17 15.99C33.29 16.77 33.05 17.57 32.8 18.42C32.69 18.8 32.57 19.19 32.48 19.59C31.13 19.91 29.62 20.32 27.94 20.82H27.93C27.91 20.83 27.9 20.83 27.88 20.84C27.8 20.86 27.72 20.89 27.64 20.91C27.33 21 27.02 21.09 26.71 21.19C26.49 21.26 26.28 21.32 26.04 21.39C25.53 21.28 22.8 20.48 21.12 19.97L20.99 19.93L20.86 19.98C20.8 20 20.74 20.03 20.68 20.06C20.66 20.07 20.65 20.08 20.63 20.09C20.59 20.12 20.54 20.15 20.5 20.18C20.48 20.2 20.46 20.21 20.44 20.23C20.38 20.26 20.34 20.29 20.31 20.33ZM23.06 21.44C23.17 21.47 23.27 21.5 23.37 21.53C23.54 21.58 23.72 21.63 23.88 21.68C23.98 21.71 24.06 21.73 24.15 21.76C24.27 21.79 24.4 21.83 24.51 21.86C23.91 22.05 23.29 22.25 22.66 22.46L22.59 22.48C22.58 22.48 22.57 22.47 22.56 22.47C22.08 22.18 21.71 21.93 21.44 21.72L21.3 21.58C21 21.31 20.91 21.12 20.89 21.05C20.86 20.95 20.93 20.87 21 20.83C21.78 21.07 22.46 21.27 23.06 21.44ZM23.56 10.86C25.93 10.88 28.21 11.55 30.19 12.71C30.12 12.71 30.05 12.7 29.97 12.69C29.74 12.67 29.51 12.65 29.27 12.68C28.87 12.73 28.51 12.89 28.16 13.05C27.73 13.24 27.36 13.41 27.04 13.31C26.76 13.22 26.55 12.91 26.32 12.59C26.02 12.16 25.69 11.68 25.11 11.53C24.94 11.48 24.77 11.47 24.61 11.47C24.5 11.47 24.39 11.48 24.29 11.48C24.05 11.5 23.83 11.51 23.7 11.42C23.6 11.36 23.54 11.26 23.52 11.14C23.52 11.05 23.53 10.95 23.56 10.86ZM11.27 31.82C11.1 31.82 10.96 31.66 10.96 31.46C10.96 31.34 11.02 31.23 11.1 31.17C11.21 31.37 11.33 31.56 11.45 31.75C11.4 31.79 11.34 31.82 11.27 31.82ZM31.32 34.93C29.04 36.62 26.32 37.51 23.44 37.51C18.87 37.51 14.82 35.2 12.42 31.64C12.43 31.58 12.44 31.51 12.44 31.45C12.44 30.91 12.09 30.45 11.62 30.29C10.78 28.66 10.24 26.83 10.13 24.87C10.12 24.64 10.11 24.41 10.11 24.18C10.12 17.09 15.69 11.3 22.68 10.9C22.67 11.02 22.66 11.15 22.68 11.27C22.74 11.64 22.94 11.95 23.24 12.15C23.6 12.38 24 12.36 24.34 12.34C24.54 12.33 24.72 12.32 24.88 12.36C25.17 12.44 25.38 12.74 25.62 13.09C25.9 13.5 26.22 13.96 26.77 14.14C26.93 14.19 27.1 14.22 27.25 14.22C27.71 14.22 28.13 14.03 28.51 13.85C28.81 13.71 29.09 13.58 29.37 13.55C29.53 13.53 29.71 13.55 29.89 13.56C30.04 13.57 30.19 13.59 30.33 13.59C30.65 13.59 30.95 13.52 31.2 13.39C31.77 13.8 32.31 14.26 32.82 14.75C32.45 14.81 32.15 15.07 31.92 15.28C31.76 15.42 31.6 15.56 31.47 15.61C31.12 15.73 30.75 15.41 30.62 15.29C30.49 15.19 30.38 15.07 30.26 14.96C30.04 14.75 29.82 14.52 29.54 14.37C29.01 14.03 28.2 13.96 27.72 14.5C27.19 15.12 27.5 15.99 27.93 16.55L28 16.61C28.28 16.97 28.57 17.34 28.53 17.66C28.47 17.97 28.1 18.17 27.77 18.16C27.41 18.15 27.02 17.98 26.61 17.63C26.14 17.24 25.91 16.87 25.91 16.53C25.91 16.31 25.98 16.07 26.05 15.81C26.11 15.61 26.17 15.42 26.2 15.21C26.27 14.77 26.15 14.3 25.88 13.99C25.68 13.75 25.41 13.63 25.12 13.63C24.85 13.63 24.63 13.75 24.45 13.84C24.38 13.88 24.31 13.92 24.25 13.94C24 14 23.72 13.85 23.31 13.61C22.94 13.39 22.53 13.15 22.04 13.12C21.48 13.09 21.02 13.36 20.6 13.6C20.48 13.67 20.36 13.74 20.25 13.8C19.7 14.08 19.09 14.21 18.52 14.18C18.37 14.17 18.22 14.14 18.07 14.12C17.66 14.06 17.23 13.99 16.78 14.08C16.3 14.17 15.98 14.36 15.79 14.65C15.52 15.07 15.65 15.58 15.76 16.03C15.84 16.35 15.92 16.69 15.84 16.93C15.76 17.17 15.63 17.4 15.49 17.65C15.38 17.85 15.26 18.06 15.17 18.27C14.86 18.95 14.86 19.73 15.18 20.29C15.73 21.28 16.93 21.43 17.6 21.43C17.88 21.43 18.16 21.41 18.44 21.39C18.94 21.36 19.41 21.32 19.86 21.41C19.97 21.44 20.08 21.48 20.19 21.52C20.28 21.7 20.41 21.89 20.6 22.08L20.74 22.23C20.95 22.42 21.21 22.62 21.55 22.84C20.6 23.16 19.61 23.5 18.59 23.86C18.25 23.98 17.94 24.09 17.63 24.2C12.96 20.55 12.32 20.78 12.05 20.88C11.86 20.95 11.73 21.11 11.69 21.31L11.66 21.45L11.73 21.58C11.73 21.58 12.1 22.32 12.62 23.26L12.67 23.36C13.19 24.34 13.94 25.69 14.5 26.54C14.28 27.16 14.24 28.14 14.24 28.36V28.58C14.05 28.43 13.81 28.34 13.55 28.34C12.91 28.34 12.38 28.89 12.38 29.56C12.38 30.23 12.9 30.78 13.55 30.78C14.2 30.78 14.72 30.23 14.72 29.56C14.72 29.24 14.6 28.95 14.4 28.73L14.52 28.78C14.6 28.81 14.7 28.83 14.79 28.83C14.94 28.83 15.1 28.79 15.25 28.71C15.59 28.55 16.04 28.22 16.65 27.67C16.82 27.71 16.99 27.76 17.17 27.79C17.26 27.81 17.36 27.82 17.45 27.83C17.63 27.86 17.8 27.89 17.99 27.91C18.11 27.92 18.24 27.93 18.36 27.94C18.53 27.96 18.7 27.97 18.89 27.98C19.03 27.99 19.17 27.99 19.32 28C19.5 28.01 19.67 28.01 19.86 28.01C19.9 28.01 19.93 28.01 19.96 28.01C20.11 28.01 20.28 28 20.44 28C20.57 28 20.7 28 20.83 27.99C21.05 27.98 21.27 27.97 21.49 27.95C21.61 27.94 21.74 27.94 21.86 27.93C22.12 27.91 22.39 27.88 22.65 27.85C22.75 27.84 22.85 27.83 22.95 27.82C23 27.81 23.05 27.81 23.11 27.8L19.5 31.73L19.97 32C20.01 32.02 20.42 32.21 21.07 32.23C21.09 32.23 21.11 32.23 21.13 32.23C21.91 32.23 22.67 32 23.48 31.52L26.77 29.13C27.04 29.49 27.46 29.73 27.92 29.74C28.16 29.74 28.37 29.68 28.56 29.58C29.87 29.72 31.01 29.38 31.77 28.58C31.85 28.5 31.93 28.41 32.01 28.32C32.25 28.05 32.45 27.84 32.63 27.76C32.69 27.73 32.75 27.72 32.81 27.72C32.9 27.72 32.99 27.77 33.07 27.86C33.21 28.02 33.3 28.27 33.28 28.5C33.26 28.8 33.14 29.11 33.01 29.43C32.94 29.62 32.86 29.81 32.81 30C32.52 30.91 32.51 31.92 32.78 32.84C32.83 33.03 32.91 33.21 32.99 33.39C33 33.41 33 33.43 33.01 33.45C32.5 33.99 31.94 34.48 31.32 34.93ZM24.39 27.46C24.49 27.26 24.55 27.07 24.59 26.9C24.6 26.85 24.6 26.8 24.61 26.75C24.63 26.59 24.64 26.45 24.63 26.33V26.32C24.63 26.3 24.62 26.28 24.62 26.26C24.61 26.2 24.61 26.14 24.6 26.1C24.58 26.01 24.56 25.93 24.53 25.86C24.51 25.8 24.57 25.72 24.65 25.68C24.67 25.67 24.69 25.66 24.72 25.65C25.04 25.51 25.35 25.38 25.65 25.26C25.75 25.22 25.84 25.18 25.94 25.15C26.23 25.04 26.52 24.95 26.79 24.86C26.88 24.83 26.96 24.81 27.05 24.79C27.31 24.72 27.57 24.65 27.82 24.6C27.88 24.59 27.94 24.58 28.01 24.57C28.27 24.52 28.52 24.49 28.76 24.47C28.8 24.47 28.83 24.47 28.86 24.46C29.12 24.44 29.35 24.44 29.56 24.45C29.6 24.45 29.63 24.46 29.66 24.46C29.86 24.48 30.04 24.5 30.19 24.54C30.21 24.55 30.24 24.55 30.26 24.56C30.42 24.6 30.56 24.65 30.68 24.7C30.69 24.7 30.7 24.71 30.71 24.71C30.84 24.77 30.94 24.83 31.03 24.88C31.05 24.9 31.07 24.91 31.09 24.92L27.77 27.34L27.35 27.64V27.63L26.64 28.15L26.5 28.25L25.97 28.64L23 30.82C22.36 31.2 21.75 31.39 21.13 31.39C21.07 31.39 21.02 31.39 20.96 31.38L23.75 28.35C23.97 28.11 24.13 27.89 24.26 27.67H24.28L24.39 27.46ZM34.7 24.94C34.74 24.93 34.78 24.92 34.83 24.91C35.07 24.86 35.31 24.8 35.54 24.74C35.56 24.74 35.57 24.73 35.59 24.73C35.59 24.74 35.6 24.75 35.6 24.76C35.62 24.86 35.64 24.96 35.67 25.05C35.71 25.16 35.76 25.26 35.81 25.35C35.83 25.38 35.86 25.41 35.88 25.44C35.92 25.5 35.96 25.56 36.02 25.61L36.03 25.62C36.02 25.63 36.02 25.64 36.01 25.65C35.87 25.84 35.75 26.04 35.65 26.23L35.55 26.4C35.43 26.58 35.1 27.01 34.79 26.98C34.45 26.95 34.24 26.44 34.2 25.94C34.19 25.87 34.18 25.79 34.17 25.71C34.17 25.68 34.16 25.65 34.15 25.63C34.14 25.56 34.12 25.5 34.1 25.43C34.09 25.4 34.08 25.37 34.07 25.35C34.04 25.26 33.99 25.18 33.94 25.1C33.96 25.1 33.99 25.09 34.01 25.09C34.24 25.04 34.47 24.99 34.7 24.94ZM28.25 28.79C28.15 28.85 28.04 28.88 27.92 28.88C27.75 28.88 27.58 28.79 27.45 28.63L28.44 27.91C28.45 27.92 28.46 27.93 28.47 27.94C28.48 27.96 28.49 27.97 28.49 27.99C28.53 28.08 28.56 28.17 28.56 28.26C28.56 28.49 28.45 28.68 28.25 28.79ZM31.88 25.41C31.96 25.4 32.07 25.39 32.22 25.37C32.2 25.4 32.17 25.44 32.15 25.47C32.07 25.58 32 25.69 31.9 25.78C31.68 25.99 31.34 26.02 31.07 26.01L31.88 25.41ZM15.16 27.36C15.23 27.4 15.31 27.43 15.39 27.43C15.45 27.43 15.51 27.42 15.57 27.39C15.58 27.39 15.59 27.38 15.61 27.37C15.62 27.37 15.63 27.38 15.64 27.38C15.47 27.52 15.28 27.67 15.11 27.78C15.12 27.63 15.14 27.49 15.16 27.36ZM15.37 25.01C15.26 25.05 15.15 25.11 15.06 25.19C15.03 25.21 15.01 25.24 14.98 25.27C14.92 25.32 14.87 25.38 14.82 25.44C14.81 25.45 14.8 25.45 14.8 25.46C14.35 24.72 13.84 23.79 13.45 23.06L13.4 22.95C13.19 22.57 13 22.21 12.85 21.92C13.58 22.31 14.91 23.19 16.67 24.54C16.45 24.62 16.25 24.69 16.06 24.76L15.37 25.01ZM13.82 29.56C13.82 29.76 13.68 29.92 13.51 29.92C13.34 29.92 13.2 29.76 13.2 29.56C13.2 29.36 13.34 29.2 13.51 29.2C13.69 29.19 13.82 29.36 13.82 29.56ZM36.3 27.71C35.8 29.54 34.89 31.26 33.66 32.73C33.65 32.69 33.62 32.65 33.61 32.61C33.39 31.85 33.39 31.02 33.63 30.27C33.68 30.1 33.75 29.93 33.81 29.76C33.95 29.39 34.11 29 34.13 28.57C34.16 28.12 33.99 27.64 33.7 27.31C33.47 27.05 33.16 26.9 32.83 26.88C32.82 26.88 32.8 26.88 32.79 26.88C32.14 26.88 31.71 27.37 31.36 27.76C31.29 27.84 31.22 27.92 31.15 27.99C30.62 28.54 29.92 28.72 29.33 28.75C29.33 28.74 29.33 28.72 29.34 28.71C29.38 28.57 29.42 28.43 29.42 28.29C29.42 28.14 29.4 28 29.36 27.86C29.35 27.82 29.33 27.78 29.31 27.73C29.27 27.64 29.23 27.55 29.18 27.47C29.17 27.45 29.16 27.43 29.15 27.41L30.16 26.68C30.29 26.73 30.42 26.77 30.57 26.8C31.38 26.96 32.07 26.82 32.5 26.39C32.66 26.25 32.77 26.08 32.87 25.94C32.93 25.86 32.98 25.78 33.04 25.71C33.14 25.6 33.24 25.59 33.26 25.58C33.32 25.62 33.35 25.91 33.37 26.03C33.43 26.86 33.87 27.74 34.73 27.82C35.29 27.87 35.83 27.54 36.29 26.84L36.41 26.64C36.48 26.52 36.55 26.4 36.62 26.29C36.57 26.59 36.52 26.88 36.45 27.17C36.39 27.36 36.35 27.53 36.3 27.71ZM37.12 25.19H37.05C36.98 25.18 36.93 25.17 36.88 25.16C36.86 25.16 36.86 25.16 36.84 25.15C36.78 25.13 36.73 25.09 36.68 25.05C36.66 25.03 36.63 25.02 36.61 25C36.55 24.93 36.5 24.86 36.46 24.77C36.43 24.7 36.42 24.63 36.42 24.61C36.43 24.56 36.44 24.52 36.45 24.47L36.79 24.35C36.98 24.28 37.16 24.22 37.35 24.16L37.47 24.12C37.6 24.24 37.68 24.41 37.67 24.59C37.67 24.92 37.42 25.18 37.12 25.19ZM41.13 21.22C41.09 21.48 40.87 21.74 40.5 21.97L40.49 21.98C40.27 22.13 39.99 22.27 39.62 22.4C39.62 22.4 38.76 22.74 37.38 23.25L37.05 23.37C36.88 23.43 36.7 23.49 36.52 23.56L35.98 23.75C34.75 24.16 32.64 24.46 31.92 24.56C31.89 24.53 31.86 24.5 31.83 24.47C31.81 24.45 31.79 24.43 31.77 24.41C31.7 24.35 31.62 24.28 31.52 24.21C30.72 23.66 29.28 23.27 26.73 24.01C26.69 24.02 26.66 24.03 26.62 24.04C26.3 24.14 25.96 24.25 25.6 24.38C25.53 24.4 25.47 24.43 25.4 24.46C25.05 24.6 24.69 24.74 24.3 24.92C24.17 24.98 24.06 25.05 23.97 25.14C23.79 25.32 23.68 25.56 23.67 25.81C23.66 25.94 23.68 26.06 23.73 26.19V26.2C23.74 26.22 23.75 26.25 23.76 26.29C23.77 26.32 23.77 26.35 23.77 26.4C23.78 26.45 23.78 26.51 23.77 26.58C23.77 26.59 23.77 26.59 23.77 26.6C23.77 26.61 23.77 26.62 23.77 26.63C23.76 26.7 23.74 26.78 23.71 26.87C23.71 26.88 23.71 26.88 23.7 26.89C23.7 26.89 23.7 26.89 23.7 26.9C22.19 27.11 20.84 27.21 19.65 27.19C18.46 27.17 17.43 27.05 16.57 26.8C16.19 26.7 15.87 26.59 15.58 26.45C15.51 26.42 15.45 26.36 15.43 26.28C15.42 26.25 15.42 26.21 15.43 26.14C15.43 26.1 15.45 26.05 15.48 26C15.49 25.99 15.48 25.98 15.49 25.97C15.52 25.91 15.58 25.87 15.65 25.84L16.32 25.6C16.72 25.45 17.17 25.29 17.66 25.12C18.07 24.98 18.46 24.84 18.86 24.7C19.88 24.35 21.01 23.96 22.22 23.56L22.25 23.61L22.65 23.41L24.39 22.84L26.55 22.15C26.65 22.12 26.75 22.09 26.85 22.06C27.25 21.94 27.65 21.82 28.03 21.71C28.07 21.7 28.12 21.68 28.16 21.67C29.98 21.14 31.55 20.72 32.93 20.4L33.02 20.38C34.24 20.1 35.31 19.89 36.23 19.76C36.27 19.75 36.31 19.75 36.35 19.74H36.36C37.03 19.65 37.6 19.61 38.08 19.61C38.24 19.61 38.38 19.62 38.52 19.62C38.31 19.79 38.07 19.98 37.81 20.17L37.18 20.62L37.28 20.92C37.3 20.98 37.51 21.56 38.08 21.79C38.31 21.89 38.67 21.95 39.14 21.77L39.16 21.78L39.23 21.74C39.25 21.73 39.26 21.73 39.28 21.72C39.32 21.71 39.38 21.68 39.48 21.62L39.59 21.55C39.83 21.42 40.53 21.02 40.93 20.64C40.95 20.65 40.97 20.66 40.97 20.66L41.04 20.79C41.04 20.77 41.18 20.96 41.13 21.22Z" fill="black"></path><path d="M8.48006 30.8096C7.84006 30.8096 7.31006 31.3596 7.31006 32.0296C7.31006 32.6996 7.83006 33.2496 8.48006 33.2496C9.13006 33.2496 9.65006 32.6996 9.65006 32.0296C9.65006 31.3496 9.13006 30.8096 8.48006 30.8096ZM8.48006 32.3896C8.31006 32.3896 8.17006 32.2296 8.17006 32.0296C8.17006 31.8296 8.31006 31.6696 8.48006 31.6696C8.65006 31.6696 8.79006 31.8296 8.79006 32.0296C8.80006 32.2296 8.66006 32.3896 8.48006 32.3896Z" fill="black"></path><path d="M8.34 29.5598C8.34 28.8898 7.82 28.3398 7.17 28.3398C6.52 28.3398 6 28.8798 6 29.5598C6 30.2298 6.52 30.7798 7.17 30.7798C7.82 30.7798 8.34 30.2298 8.34 29.5598ZM7.17 29.9198C7 29.9198 6.86 29.7598 6.86 29.5598C6.86 29.3598 7 29.1998 7.17 29.1998C7.34 29.1998 7.48 29.3598 7.48 29.5598C7.48 29.7598 7.34 29.9198 7.17 29.9198Z" fill="black"></path></g><defs><clipPath id="clip0"><rect width="36" height="28.37" fill="white" transform="translate(6 10)"></rect></clipPath></defs></svg>