<svg xmlns="http://www.w3.org/2000/svg" width="48" height="48" viewBox="0 0 48 48" fill="none"><g clip-path="url(#clip0)"><path d="M32.6399 34.2801C30.4699 33.1201 27.8999 33.3901 25.5399 33.5001C24.5099 33.5501 23.4199 33.6301 22.4299 33.2801C21.9599 33.1201 21.5399 32.8401 21.1299 32.5701C21.0599 32.5201 20.8399 32.3501 20.6599 32.2201C20.9099 31.6901 21.4099 30.7401 21.5099 30.6201C22.1199 29.9001 22.8699 29.2901 23.6199 28.7101C27.2199 25.9301 31.3399 22.9401 33.0399 18.5201C34.9399 13.5801 31.3199 9.03012 26.6499 7.68012C21.2899 6.13012 15.1699 7.36012 10.3299 9.94012C7.45993 11.4801 10.0099 15.8501 12.8899 14.3101C16.2699 12.5101 20.4199 11.5901 24.2299 12.3101C25.8099 12.6101 27.6799 13.2701 28.3399 14.8901C28.8999 16.2801 27.9399 17.7501 27.0999 18.8001C25.8399 20.4001 24.2899 21.8501 22.6999 23.1101C21.3199 24.2001 19.8399 25.1801 18.5599 26.4001C17.1999 27.7001 16.0199 29.3601 15.6299 31.2301C15.0599 33.9201 16.4399 35.5601 18.5699 36.9401C20.6299 38.2801 22.8999 38.6701 25.3199 38.5701C26.4699 38.5201 27.6199 38.4001 28.7699 38.4501C29.1499 38.4701 29.4999 38.5201 29.8599 38.6101C28.9799 41.0701 32.8499 43.0501 34.5299 40.5601C36.0299 38.3501 34.8599 35.4601 32.6399 34.2801Z" fill="#FBD0D0"></path><path d="M40.24 18.4701L36.84 16.3601L36.57 16.7601C36.35 17.0801 35.92 17.1701 35.58 16.9601C35.25 16.7601 35.14 16.3301 35.32 15.9801L35.54 15.5601L32.28 13.5301C31.96 13.3301 31.59 13.2701 31.22 13.3501C30.87 13.4301 30.57 13.6501 30.37 13.9501V13.4401C30.37 11.8601 29.09 10.5801 27.51 10.5801H9.85C8.28 10.5801 7 11.8601 7 13.4401V38.6801C7 40.2601 8.28 41.5401 9.85 41.5401H27.53C29.11 41.5401 30.39 40.2601 30.39 38.6801V36.9901L36.87 26.5701C37.14 26.1301 37.22 25.6201 37.13 25.1501C37.53 25.1001 37.91 24.8801 38.14 24.5101L40.7 20.4101L40.71 20.4001C41.11 19.7201 40.9 18.8701 40.24 18.4701ZM29.38 38.6801C29.38 39.7001 28.55 40.5201 27.54 40.5201H9.85C8.84 40.5201 8.02 39.6901 8.02 38.6801V13.4401C8.02 12.4201 8.84 11.6001 9.85 11.6001H27.53C28.55 11.6001 29.37 12.4301 29.37 13.4401V15.5601V19.5201V20.7101V38.6201V38.6801H29.38ZM36.01 26.0301L30.39 35.0701V21.3401L35.68 24.6401C36.16 24.9301 36.3 25.5501 36.01 26.0301ZM39.84 19.8801L37.28 23.9701C37.16 24.1601 36.93 24.2101 36.75 24.1001L30.39 20.1401V19.3701L30.41 19.3801L32.69 15.7201L32.38 15.5301L30.39 18.7301V15.8401L31.22 14.5001C31.28 14.4101 31.36 14.3501 31.46 14.3201C31.56 14.3001 31.66 14.3101 31.75 14.3701L34.26 15.9301C34.1 16.6401 34.4 17.4001 35.05 17.8001C35.7 18.2001 36.51 18.1301 37.07 17.6801L39.71 19.3201C39.9 19.4401 39.95 19.6801 39.84 19.8801Z" fill="black"></path><path d="M33.2757 16.0953L31 19.7554L31.3057 19.9455L33.5814 16.2854L33.2757 16.0953Z" fill="black"></path><path d="M35.77 21.4402L37.67 22.6202L39.51 19.6702L37.61 18.4902L35.77 21.4402ZM38.81 19.8402L37.51 21.9302L36.47 21.2802L37.77 19.1902L38.81 19.8402Z" fill="black"></path><path d="M18.69 28.7903C22.21 28.7903 25.08 25.9303 25.08 22.4003C25.08 18.8703 22.22 16.0103 18.69 16.0103C15.17 16.0103 12.3 18.8703 12.3 22.4003C12.3 25.9303 15.17 28.7903 18.69 28.7903ZM18.69 16.5203C21.93 16.5203 24.57 19.1603 24.57 22.4003C24.57 25.6403 21.93 28.2803 18.69 28.2803C15.45 28.2803 12.81 25.6403 12.81 22.4003C12.81 19.1603 15.45 16.5203 18.69 16.5203Z" fill="black"></path><path d="M20.4699 22.6602H16.9099L16.9199 22.9202C17.0099 25.5502 17.8199 27.7602 18.6899 27.7602C19.5599 27.7602 20.3699 25.5402 20.4599 22.9202L20.4699 22.6602ZM18.6899 27.2602C18.4099 27.2602 17.5799 25.8502 17.4399 23.1702H19.9399C19.7999 25.8502 18.9699 27.2602 18.6899 27.2602Z" fill="black"></path><path d="M20.9801 22.9099C20.9301 24.5899 20.6001 26.1199 20.1001 27.1099L19.8101 27.6699L20.4001 27.4699C22.3701 26.7999 23.7801 25.0199 23.9901 22.9499L24.0201 22.6699H20.9801V22.9099ZM23.4601 23.1699C23.2101 24.7199 22.2101 26.0599 20.8101 26.7499C21.1801 25.7899 21.4101 24.5299 21.4801 23.1699H23.4601Z" fill="black"></path><path d="M16.4001 21.9001C16.4501 20.2201 16.7801 18.6901 17.2801 17.7001L17.5701 17.1401L16.9801 17.3401C15.0001 18.0201 13.5901 19.7901 13.3801 21.8701L13.3501 22.1501H16.3901L16.4001 21.9001ZM13.9201 21.6401C14.1701 20.0901 15.1701 18.7501 16.5701 18.0601C16.2001 19.0201 15.9701 20.2801 15.9001 21.6401H13.9201Z" fill="black"></path><path d="M16.9701 27.4602L17.5601 27.6602L17.2701 27.1002C16.7601 26.1102 16.4401 24.5802 16.3901 22.9002L16.3801 22.6602H13.3501L13.3801 22.9402C13.5901 25.0102 15.0001 26.7902 16.9701 27.4602ZM15.9001 23.1702C15.9601 24.5302 16.2001 25.7902 16.5701 26.7502C15.1701 26.0602 14.1701 24.7302 13.9201 23.1702H15.9001Z" fill="black"></path><path d="M20.9801 21.8999L20.9901 22.1399H24.0301L24.0001 21.8699C23.7901 19.7999 22.3801 18.0199 20.4101 17.3499L19.8201 17.1499L20.1101 17.7099C20.6101 18.6899 20.9301 20.2199 20.9801 21.8999ZM23.4601 21.6399H21.4801C21.4201 20.2799 21.1801 19.0199 20.8101 18.0599C22.2201 18.7499 23.2101 20.0799 23.4601 21.6399Z" fill="black"></path><path d="M16.9099 22.14H20.4599L20.4499 21.88C20.3599 19.25 19.5499 17.04 18.6799 17.04C17.8099 17.04 16.9999 19.26 16.9099 21.88V22.14ZM18.6899 17.54C18.9699 17.54 19.7999 18.95 19.9399 21.63H17.4399C17.5799 18.95 18.4099 17.54 18.6899 17.54Z" fill="black"></path><path d="M11.26 33.0901H25.92V30.8701H11.26V33.0901ZM11.77 31.3801H25.42V32.5801H11.77V31.3801Z" fill="black"></path><path d="M11.26 35.8699H25.92V33.6499H11.26V35.8699ZM11.77 34.1599H25.42V35.3599H11.77V34.1599Z" fill="black"></path></g><defs><clipPath id="clip0"><rect width="33.91" height="34.71" fill="white" transform="translate(7 7)"></rect></clipPath></defs></svg>