<svg xmlns="http://www.w3.org/2000/svg" width="700" height="300" viewBox="0 0 700 300" fill="none"><rect x="380.639" y="27.5551" width="130.718" height="34.8569" rx="11.5" transform="rotate(6.72788 380.639 27.5551)" stroke="black"></rect><path d="M394.322 53.0044L401.927 53.8602L402.183 51.5904L397.372 51.0491L398.418 41.7555L395.623 41.441L394.322 53.0044ZM409.537 43.0066L406.742 42.6922L405.441 54.2556L408.236 54.57L409.537 43.0066ZM423.384 48.8072C423.413 46.0088 421.53 44.196 418.735 43.8815C415.652 43.5346 413.014 45.3819 412.584 49.2044C412.156 53.0099 414.259 55.4078 417.398 55.7611C420.571 56.1181 422.57 54.1588 423.009 52.1328L420.188 51.7982C419.865 52.8882 418.955 53.4548 417.73 53.317C416.081 53.1314 415.177 51.8232 415.435 49.5252C415.684 47.3175 416.844 46.1502 418.532 46.3402C419.803 46.4831 420.55 47.3162 420.56 48.4895L423.384 48.8072ZM426.22 56.5936L434.283 57.5009L434.538 55.2311L429.27 54.6383L429.538 52.2613L434.393 52.8077L434.65 50.5323L429.794 49.9859L430.061 47.6145L435.329 48.2072L435.584 45.9375L427.521 45.0302L426.22 56.5936ZM449.242 47.4744L446.453 47.1605L445.704 53.823L445.608 53.8122L441.806 46.6376L439.401 46.367L438.1 57.9304L440.895 58.2449L441.646 51.5711L441.719 51.5793L445.57 58.7709L447.941 59.0377L449.242 47.4744ZM458.927 52.0747L461.603 52.3759C461.824 50.2108 460.267 48.5547 457.579 48.2523C454.937 47.955 452.872 49.1806 452.647 51.3337C452.443 53.0891 453.563 54.2157 455.51 54.8979L456.687 55.3162C457.924 55.7527 458.456 56.1613 458.394 56.8119C458.303 57.5164 457.587 57.9333 456.464 57.8068C455.227 57.6677 454.479 57.0003 454.542 55.881L451.866 55.5799C451.595 58.2882 453.33 59.7928 456.238 60.1199C459.117 60.444 460.969 59.3315 461.228 57.1365C461.424 55.2889 460.303 54.0192 458.079 53.2601L457.111 52.9224C456.086 52.5784 455.459 52.1533 455.559 51.4671C455.636 50.8353 456.229 50.439 457.313 50.5609C458.403 50.6836 458.946 51.2421 458.927 52.0747ZM464.329 60.8817L472.392 61.7889L472.647 59.5192L467.379 58.9264L467.647 56.5494L472.502 57.0957L472.758 54.8203L467.903 54.2739L468.169 51.9026L473.437 52.4953L473.693 50.2255L465.63 49.3183L464.329 60.8817ZM480.483 62.6994C484.006 63.0958 486.436 61.1679 486.843 57.5543C487.249 53.9464 485.307 51.5324 481.779 51.1354L477.51 50.6551L476.209 62.2185L480.483 62.6994ZM479.272 60.1502L480.037 53.3522L481.369 53.5022C483.357 53.7258 484.322 54.7493 484.042 57.2392C483.761 59.7405 482.592 60.5238 480.644 60.3046L479.272 60.1502Z" fill="#FE9F9F"></path><path d="M514.429 262.962H550.504C545.771 254.007 537.839 248.133 528.851 248.133C525.569 248.141 522.335 248.92 519.41 250.408C519.227 248.655 518.887 246.922 518.395 245.23C517.096 245.558 515.764 245.734 514.425 245.754L514.429 262.962Z" fill="#FD5B5B"></path><path d="M495.106 262.962H513.821V245.753C509.624 245.675 505.596 244.09 502.472 241.288C499.348 238.485 497.337 234.652 496.805 230.489C495.559 230.893 494.369 231.451 493.261 232.15C494.19 241.801 494.57 250.753 494.852 257.39C494.943 259.53 495.023 261.391 495.106 262.962Z" fill="#FD5B5B"></path><path d="M513.819 222.113L507.02 213.658C506.995 213.627 506.976 213.591 506.965 213.553C506.953 213.515 506.95 213.474 506.954 213.435C506.959 213.395 506.971 213.356 506.99 213.321C507.009 213.286 507.035 213.255 507.066 213.23C507.097 213.205 507.133 213.186 507.172 213.175C507.21 213.164 507.25 213.16 507.29 213.165C507.33 213.169 507.368 213.181 507.403 213.2C507.439 213.22 507.47 213.246 507.495 213.277L513.819 221.14V202.927C513.819 202.846 513.851 202.769 513.909 202.712C513.966 202.655 514.043 202.622 514.124 202.622C514.205 202.622 514.282 202.655 514.339 202.712C514.396 202.769 514.428 202.846 514.428 202.927V230.867C516.736 228.584 519.968 225.322 520.248 224.865C520.271 224.797 520.317 224.739 520.379 224.701C520.44 224.664 520.513 224.649 520.584 224.66C520.656 224.671 520.721 224.707 520.768 224.761C520.816 224.815 520.843 224.884 520.845 224.956C520.845 225.111 520.845 225.399 514.428 231.724V245.145C517.953 245.081 521.369 243.914 524.195 241.807C527.021 239.699 529.115 236.759 530.182 233.399C531.249 230.039 531.235 226.429 530.142 223.077C529.049 219.726 526.933 216.801 524.09 214.716C524.028 214.671 523.986 214.604 523.972 214.528C523.957 214.453 523.972 214.375 524.013 214.31C525.137 212.539 525.764 210.499 525.83 208.402C525.896 206.306 525.397 204.23 524.387 202.393C523.376 200.555 521.891 199.022 520.086 197.954C518.28 196.886 516.221 196.323 514.124 196.323C512.026 196.323 509.968 196.886 508.162 197.954C506.357 199.022 504.871 200.555 503.861 202.393C502.85 204.23 502.352 206.306 502.418 208.402C502.483 210.499 503.111 212.539 504.235 214.31C504.276 214.375 504.291 214.453 504.276 214.528C504.262 214.604 504.22 214.671 504.158 214.716C501.315 216.801 499.198 219.726 498.105 223.077C497.013 226.429 496.999 230.039 498.065 233.399C499.132 236.759 501.226 239.699 504.052 241.807C506.879 243.914 510.295 245.081 513.819 245.145V222.113Z" fill="#FD5B5B"></path><path d="M513.819 245.754V245.145C510.295 245.081 506.879 243.914 504.052 241.806C501.226 239.699 499.132 236.759 498.065 233.399C496.998 230.039 497.012 226.429 498.105 223.077C499.198 219.725 501.315 216.801 504.157 214.716C504.219 214.671 504.262 214.603 504.276 214.528C504.29 214.453 504.276 214.375 504.235 214.31C503.11 212.539 502.482 210.498 502.416 208.401C502.349 206.304 502.848 204.228 503.858 202.389C504.869 200.55 506.355 199.017 508.16 197.949C509.966 196.881 512.026 196.317 514.124 196.317C516.222 196.317 518.281 196.881 520.087 197.949C521.893 199.017 523.379 200.55 524.389 202.389C525.4 204.228 525.898 206.304 525.832 208.401C525.766 210.498 525.137 212.539 524.013 214.31C523.972 214.375 523.957 214.453 523.971 214.528C523.986 214.603 524.028 214.671 524.09 214.716C526.933 216.801 529.049 219.725 530.142 223.077C531.235 226.429 531.249 230.039 530.182 233.399C529.115 236.759 527.021 239.699 524.195 241.806C521.369 243.914 517.953 245.081 514.428 245.145V245.754C515.767 245.733 517.1 245.558 518.399 245.23C521.587 244.425 524.483 242.737 526.754 240.359C529.025 237.98 530.578 235.009 531.234 231.787C531.89 228.564 531.622 225.223 530.462 222.146C529.302 219.069 527.297 216.382 524.677 214.395C525.803 212.526 526.413 210.39 526.443 208.208C526.474 206.026 525.924 203.874 524.851 201.974C523.777 200.073 522.218 198.492 520.333 197.392C518.448 196.292 516.304 195.712 514.122 195.712C511.939 195.712 509.796 196.292 507.91 197.392C506.025 198.492 504.466 200.073 503.393 201.974C502.319 203.874 501.769 206.026 501.8 208.208C501.831 210.39 502.44 212.526 503.567 214.395C500.676 216.589 498.541 219.629 497.459 223.093C496.376 226.557 496.4 230.272 497.527 233.722C498.655 237.171 500.829 240.184 503.748 242.34C506.666 244.497 510.185 245.69 513.813 245.754H513.819Z" fill="#1A1A1A"></path><path d="M514.428 245.145V231.724L514.337 231.813C514.309 231.841 514.276 231.863 514.239 231.878C514.203 231.893 514.163 231.901 514.124 231.9C514.043 231.9 513.965 231.868 513.907 231.811C513.85 231.754 513.818 231.676 513.818 231.595C513.818 231.514 513.85 231.436 513.907 231.379C514.073 231.216 514.246 231.044 514.424 230.867V202.927C514.424 202.846 514.392 202.769 514.335 202.712C514.278 202.655 514.201 202.623 514.12 202.623C514.039 202.623 513.962 202.655 513.905 202.712C513.848 202.769 513.815 202.846 513.815 202.927V221.14L514.357 221.814C514.408 221.877 514.431 221.958 514.423 222.038C514.414 222.118 514.374 222.192 514.311 222.243C514.248 222.293 514.167 222.317 514.087 222.308C514.007 222.299 513.933 222.259 513.882 222.196L513.815 222.113V262.962H514.424V245.145H514.428Z" fill="black"></path><path d="M520.845 224.956C520.844 224.884 520.817 224.815 520.769 224.761C520.722 224.707 520.656 224.671 520.585 224.66C520.514 224.649 520.441 224.664 520.38 224.701C520.318 224.739 520.272 224.797 520.249 224.865C519.968 225.322 516.737 228.584 514.429 230.867C514.25 231.044 514.078 231.216 513.911 231.379C513.854 231.436 513.822 231.514 513.822 231.595C513.822 231.676 513.854 231.754 513.911 231.811C513.969 231.868 514.047 231.9 514.129 231.9C514.168 231.9 514.207 231.893 514.244 231.878C514.281 231.863 514.314 231.841 514.342 231.813L514.433 231.724C520.841 225.399 520.845 225.111 520.845 224.956Z" fill="black"></path><path d="M507.067 213.23C507.036 213.255 507.01 213.286 506.991 213.321C506.971 213.356 506.959 213.395 506.955 213.435C506.951 213.475 506.954 213.515 506.965 213.553C506.977 213.592 506.995 213.627 507.02 213.659L513.82 222.113L513.887 222.196C513.912 222.227 513.943 222.253 513.978 222.272C514.013 222.292 514.052 222.304 514.092 222.308C514.131 222.312 514.172 222.309 514.21 222.298C514.248 222.286 514.284 222.268 514.315 222.243C514.347 222.218 514.373 222.187 514.392 222.152C514.411 222.116 514.423 222.078 514.427 222.038C514.432 221.998 514.428 221.958 514.417 221.92C514.406 221.881 514.387 221.846 514.362 221.814L513.82 221.14L507.495 213.277C507.47 213.246 507.439 213.22 507.404 213.201C507.369 213.181 507.331 213.169 507.291 213.165C507.251 213.161 507.211 213.164 507.172 213.175C507.134 213.187 507.098 213.205 507.067 213.23V213.23Z" fill="black"></path><path d="M194.08 248.137H193.78C188.234 248.133 182.771 249.481 177.864 252.064C172.957 254.648 168.754 258.388 165.618 262.962H194.441C194.283 258.98 194.139 253.875 194.08 248.137Z" fill="#FD5B5B"></path><path d="M498.629 184.372V182.363H480.115C480.532 183.016 480.938 183.688 481.333 184.378L498.629 184.372Z" fill="#FD5B5B"></path><path d="M476.973 178.106H491.79V176.091H475.085C475.367 176.379 475.649 176.663 475.927 176.958C476.291 177.327 476.634 177.713 476.973 178.106Z" fill="#FD5B5B"></path><path d="M294.585 185.184C300.284 180.903 306.741 177.792 314.012 175.847L313.929 174.944C313.925 174.892 313.934 174.84 313.955 174.792C313.976 174.745 314.009 174.703 314.051 174.672C314.154 174.595 316.689 172.78 325.214 172.514H325.225C325.274 172.514 325.323 172.527 325.367 172.55C325.411 172.573 325.448 172.607 325.476 172.648C326.388 166.936 326.402 164.383 326.416 161.474C326.416 160.918 326.416 160.35 326.43 159.749C323.148 162.31 317.775 166.336 314.491 167.923C314.45 167.943 314.405 167.953 314.359 167.953C314.312 167.954 314.265 167.943 314.223 167.921C309.656 165.637 307.176 158.846 306.851 147.734C306.776 145.14 306.833 142.603 306.946 140.34C305.514 140.15 304.07 140.054 302.625 140.054C295.667 140.055 288.892 142.284 283.292 146.413C277.692 150.542 273.561 156.356 271.504 163.003C280.867 167.2 289.541 175.496 294.585 185.184Z" fill="#FD5B5B"></path><path d="M346.975 170.052C347.232 171.4 347.47 172.457 347.667 173.251C347.949 172.705 348.107 172.411 348.115 172.396C348.146 172.339 348.195 172.293 348.254 172.265C348.313 172.237 348.38 172.229 348.444 172.242C348.54 172.263 358.019 174.252 363.568 177.028C363.606 177.049 363.64 177.077 363.666 177.112C366.873 178.05 369.954 179.376 372.84 181.062C375.652 182.716 378.281 184.664 380.681 186.873C381.483 183.625 382.32 181.165 383.16 180.083C389.606 171.79 397.484 165.469 406.253 161.425C404.106 157.256 401.124 153.573 397.492 150.606C393.86 147.639 389.657 145.451 385.143 144.178C380.629 142.905 375.902 142.575 371.255 143.208C366.608 143.842 362.141 145.424 358.132 147.858C357.333 153.426 355.735 158.72 353.381 163.38C352.017 166.234 349.771 168.574 346.975 170.052V170.052Z" fill="#FD5B5B"></path><path d="M320.365 156.931C315.766 154.495 312.26 148.597 310.75 140.75L310.618 140.064C309.703 135.336 308.457 128.885 309.248 121.852C308.97 121.745 308.699 121.621 308.436 121.481C308.388 121.451 308.349 121.408 308.325 121.357V131.831C308.326 131.845 308.326 131.859 308.325 131.873C308.282 132.176 304.105 161.898 314.371 167.303C317.712 165.647 323.276 161.443 326.455 158.955C326.455 158.559 326.475 158.143 326.493 157.707C324.669 158.318 322.466 158.044 320.365 156.931Z" fill="black"></path><path d="M306.858 147.73C307.183 158.841 309.663 165.633 314.23 167.917C314.272 167.938 314.319 167.949 314.366 167.949C314.412 167.949 314.457 167.939 314.498 167.919C317.782 166.331 323.155 162.306 326.437 159.745C326.437 159.489 326.448 159.225 326.454 158.955C323.275 161.443 317.711 165.653 314.37 167.304C304.104 161.898 308.281 132.176 308.323 131.873C308.324 131.859 308.324 131.845 308.323 131.831V121.357C308.315 121.343 308.307 121.329 308.301 121.314C307.95 120.113 307.754 118.871 307.719 117.62L307.729 131.8C307.684 132.113 307.201 135.62 306.964 140.325C306.84 142.599 306.783 145.136 306.858 147.73Z" fill="black"></path><path d="M177.415 227.13V229.146H194.262C194.283 228.469 194.305 227.797 194.329 227.13H177.415Z" fill="#FD5B5B"></path><path d="M180.914 193.872V195.888H197.416C197.55 195.202 197.692 194.532 197.837 193.872H180.914Z" fill="#FD5B5B"></path><path d="M180.914 231.425C180.833 231.425 180.756 231.457 180.699 231.514C180.641 231.572 180.609 231.649 180.609 231.73C180.609 231.811 180.641 231.888 180.699 231.945C180.756 232.002 180.833 232.034 180.914 232.034H194.175C194.175 231.831 194.185 231.628 194.191 231.425H180.914Z" fill="black"></path><path d="M184.463 197.865C184.382 197.865 184.304 197.897 184.247 197.954C184.19 198.011 184.158 198.088 184.158 198.169C184.158 198.25 184.19 198.327 184.247 198.385C184.304 198.442 184.382 198.474 184.463 198.474H196.942C196.976 198.271 197.013 198.068 197.049 197.865H184.463Z" fill="black"></path><path d="M523.303 159.682H512.234V171.572H523.303V159.682Z" fill="#FD5B5B"></path><path d="M511.626 159.377C511.626 159.296 511.658 159.219 511.715 159.162C511.772 159.105 511.85 159.073 511.93 159.073H523.297V155.752H507.465V171.572H511.612L511.626 159.377Z" fill="#FD5B5B"></path><path d="M511.626 159.377V174.045C511.626 174.125 511.658 174.203 511.715 174.26C511.772 174.317 511.85 174.349 511.93 174.349H526.6C526.681 174.349 526.758 174.317 526.815 174.26C526.872 174.203 526.904 174.125 526.904 174.045V159.377C526.904 159.296 526.872 159.219 526.815 159.162C526.758 159.105 526.681 159.073 526.6 159.073H511.926C511.846 159.074 511.77 159.106 511.714 159.163C511.657 159.22 511.626 159.297 511.626 159.377V159.377ZM523.303 159.682H526.295V173.74H512.235V159.682H523.303Z" fill="black"></path><path d="M413.759 113.24C410.41 114.395 408.506 116.713 408.104 120.142C408.021 122.171 409.992 123.606 411.512 124.404C412.114 121.285 412.907 118.206 413.887 115.185C414.055 114.662 414.253 114.149 414.482 113.65V113.65C414.234 113.533 413.995 113.384 413.759 113.24Z" fill="black"></path><path d="M411.512 124.408C409.992 123.608 408.021 122.175 408.104 120.145C408.51 116.715 410.41 114.397 413.759 113.244C413.542 113.112 413.331 112.976 413.126 112.838C409.845 114.121 407.903 116.607 407.499 120.094C407.498 120.101 407.498 120.108 407.499 120.115C407.387 122.581 409.732 124.209 411.402 125.055C411.437 124.832 411.473 124.623 411.512 124.408Z" fill="black"></path><path d="M274.818 210.721C274.24 203.7 273.712 198.865 273.7 198.745C273.695 198.705 273.699 198.665 273.71 198.626C273.721 198.588 273.74 198.552 273.765 198.52C273.79 198.489 273.821 198.463 273.857 198.443C273.892 198.424 273.931 198.412 273.971 198.407C274.011 198.403 274.051 198.406 274.09 198.418C274.128 198.429 274.164 198.448 274.196 198.473C274.227 198.498 274.253 198.529 274.273 198.564C274.292 198.6 274.304 198.638 274.309 198.678C274.321 198.796 274.798 203.166 275.342 209.627C280.236 199.462 286.53 191.383 294.099 185.564C288.728 175.191 279.16 166.427 269.064 162.653C266.52 161.703 264.093 160.914 261.756 160.256C261.614 164.785 257.291 173.732 254.063 178.131C254.035 178.17 253.998 178.201 253.956 178.223C253.913 178.245 253.866 178.256 253.818 178.256H253.771L241.062 176.284C240.815 176.456 240.565 176.616 240.307 176.763C240.262 176.788 240.21 176.802 240.157 176.801C240.094 176.801 240.033 176.782 239.981 176.746C239.845 176.65 239.715 176.553 239.591 176.454C237.358 176.422 231.922 176.627 227.487 179.093C227.443 179.116 227.394 179.128 227.344 179.128C227.294 179.128 227.245 179.116 227.201 179.093C227.157 179.07 227.118 179.037 227.09 178.997C227.061 178.956 227.043 178.909 227.037 178.859C225.938 169.951 229.054 161.693 230.359 158.722C229.468 158.88 228.588 159.048 227.721 159.225C215.004 161.815 205.929 175.835 202.618 181.734C198.707 188.71 196.204 202.234 195.179 221.944C194.339 238.089 194.726 254.451 195.041 262.946H209.487C209.207 233.757 213.246 202.366 213.289 202.052C213.299 201.971 213.341 201.898 213.405 201.848C213.47 201.798 213.551 201.776 213.632 201.786C213.713 201.796 213.786 201.838 213.836 201.902C213.886 201.967 213.908 202.048 213.898 202.129C213.857 202.444 209.822 233.794 210.102 262.946H262.733C264.356 243.632 267.862 227.313 273.18 214.434C273.705 213.172 274.251 211.935 274.818 210.721ZM248.717 244.984L239.191 259.53C239.164 259.571 239.126 259.606 239.082 259.63C239.038 259.654 238.989 259.667 238.939 259.668V259.668C238.89 259.668 238.841 259.656 238.797 259.633C238.753 259.61 238.716 259.577 238.688 259.536L227.897 243.906C227.853 243.842 227.834 243.763 227.846 243.685L237.447 183.27C237.459 183.194 237.499 183.125 237.56 183.077C237.621 183.03 237.697 183.007 237.774 183.014L239.037 183.12L236.144 181.397C236.097 181.368 236.058 181.327 236.032 181.278C236.006 181.229 235.994 181.174 235.996 181.118L236.185 177.574C236.19 177.495 236.225 177.42 236.284 177.367C236.343 177.313 236.42 177.284 236.5 177.286L243.502 177.55C243.577 177.553 243.647 177.583 243.701 177.634C243.755 177.685 243.788 177.754 243.795 177.828L244.061 181.098C244.066 181.162 244.05 181.227 244.017 181.282C243.983 181.337 243.933 181.38 243.874 181.405L239.611 183.169L241.609 183.337C241.679 183.343 241.744 183.373 241.795 183.423C241.845 183.472 241.877 183.537 241.885 183.607L248.766 244.783C248.773 244.854 248.756 244.925 248.717 244.984V244.984Z" fill="white"></path><path d="M195.04 262.962C194.726 254.46 194.338 238.097 195.178 221.96C196.204 202.255 198.706 188.727 202.618 181.75C205.928 175.843 214.999 161.824 227.724 159.231C228.593 159.054 229.473 158.886 230.363 158.728C230.481 158.46 230.584 158.233 230.668 158.054C229.63 158.234 228.608 158.428 227.603 158.635C222.634 159.65 217.721 162.457 213 166.985C209.034 170.789 205.258 175.793 202.086 181.454C200.324 184.596 198.934 188.879 197.838 193.88C197.693 194.54 197.551 195.21 197.417 195.896C197.289 196.543 197.168 197.205 197.05 197.873C197.013 198.076 196.977 198.279 196.942 198.482C195.463 207.088 194.685 217.209 194.324 227.138C194.3 227.815 194.277 228.487 194.257 229.154C194.233 229.917 194.211 230.677 194.192 231.433C194.192 231.636 194.182 231.839 194.176 232.042C194.042 237.675 194.03 243.147 194.08 248.145C194.139 253.883 194.283 258.988 194.432 262.962H195.04Z" fill="#1A1A1A"></path><path d="M261.759 160.256C264.092 160.914 266.519 161.703 269.067 162.653C279.163 166.427 288.731 175.191 294.098 185.56L294.301 185.401L294.589 185.186C289.545 175.496 280.872 167.2 271.508 163.002C270.77 162.672 270.027 162.363 269.276 162.083C266.653 161.103 264.148 160.289 261.747 159.617C261.761 159.82 261.765 160.033 261.759 160.256Z" fill="#1A1A1A"></path><path d="M273.967 198.404C273.928 198.409 273.889 198.421 273.854 198.44C273.819 198.459 273.788 198.485 273.763 198.517C273.738 198.548 273.72 198.584 273.709 198.623C273.698 198.661 273.695 198.702 273.699 198.741C273.712 198.865 274.239 203.7 274.818 210.717C274.988 210.348 275.162 209.982 275.337 209.619C274.794 203.158 274.323 198.788 274.304 198.67C274.295 198.59 274.254 198.518 274.191 198.468C274.128 198.418 274.047 198.395 273.967 198.404V198.404Z" fill="black"></path><path d="M475.497 177.376C466.493 167.915 455.822 161.525 444.441 158.608L448.47 160.496C448.511 160.516 448.547 160.544 448.575 160.579C448.604 160.614 448.624 160.655 448.634 160.699C450.419 167.663 447.687 172.975 439.78 177.926C439.732 177.955 439.677 177.971 439.62 177.971C439.577 177.971 439.534 177.962 439.495 177.944C439.455 177.927 439.42 177.901 439.391 177.869L430.429 167.765L418.007 179.04C417.969 179.075 417.922 179.1 417.872 179.112C417.822 179.123 417.769 179.122 417.719 179.108C417.67 179.094 417.624 179.068 417.588 179.031C417.551 178.995 417.524 178.95 417.51 178.9C417.329 178.277 413.413 164.627 415.551 158.712C403.23 162.004 392.167 169.48 383.642 180.457C382.845 181.482 382.019 183.918 381.192 187.34C389.021 194.688 395.549 205.389 400.668 219.293C406.441 234.982 409.242 251.65 410.578 262.962H470.051C471.054 258.365 471.387 251.705 471.066 242.614C468.374 227.892 464.164 219.967 464.124 219.88C464.087 219.81 464.08 219.728 464.103 219.652C464.125 219.577 464.177 219.513 464.246 219.474C464.316 219.438 464.398 219.431 464.474 219.454C464.549 219.477 464.613 219.529 464.652 219.598C464.694 219.677 468.951 227.682 471.661 242.535C471.941 244.058 472.193 245.604 472.418 247.173C472.436 247.294 472.456 247.414 472.474 247.534C472.493 247.654 472.509 247.808 472.529 247.94C473.217 252.921 473.649 257.935 473.822 262.96H494.492C494.409 261.393 494.329 259.54 494.238 257.413C493.373 236.916 491.565 194.262 475.497 177.376ZM425.692 175.49L428.907 172.172C428.935 172.142 428.969 172.119 429.006 172.103C429.043 172.087 429.083 172.078 429.124 172.078H431.919C431.963 172.078 432.006 172.088 432.045 172.106C432.085 172.124 432.12 172.151 432.148 172.184L435.311 175.819C435.35 175.863 435.375 175.918 435.383 175.977C435.391 176.035 435.382 176.094 435.358 176.148L433.407 180.364C433.382 180.416 433.343 180.461 433.295 180.492C433.246 180.523 433.189 180.54 433.131 180.54H427.853C427.794 180.54 427.736 180.523 427.686 180.49C427.636 180.457 427.597 180.41 427.573 180.356L425.623 175.823C425.6 175.767 425.595 175.705 425.607 175.646C425.619 175.587 425.649 175.533 425.692 175.49V175.49ZM441.234 234.218L428.215 252.876C428.187 252.917 428.149 252.949 428.106 252.972C428.062 252.995 428.014 253.006 427.965 253.006H427.951C427.9 253.004 427.85 252.988 427.806 252.961C427.763 252.934 427.726 252.897 427.701 252.852L417 234.196C416.963 234.132 416.952 234.056 416.968 233.983L427.667 182.599C427.681 182.53 427.719 182.468 427.773 182.424C427.827 182.38 427.895 182.355 427.965 182.355H433.078C433.151 182.355 433.221 182.381 433.276 182.428C433.331 182.476 433.367 182.541 433.379 182.613L441.295 233.999C441.304 234.077 441.282 234.156 441.234 234.218V234.218Z" fill="white"></path><path d="M421.374 156.862C420.99 156.92 420.607 156.983 420.226 157.051L421.352 156.972C421.36 156.935 421.366 156.899 421.374 156.862Z" fill="#1A1A1A"></path><path d="M441.52 157.34C441.5 157.34 441.477 157.34 441.457 157.328C441.458 157.343 441.458 157.358 441.457 157.372C441.477 157.359 441.498 157.348 441.52 157.34V157.34Z" fill="#1A1A1A"></path><path d="M383.159 180.083C382.319 181.165 381.482 183.627 380.681 186.873C380.851 187.029 381.022 187.182 381.19 187.34C382.016 183.918 382.842 181.482 383.64 180.457C392.165 169.48 403.23 162.004 415.54 158.71C415.628 158.466 415.73 158.228 415.847 157.997C412.552 158.854 409.341 160.004 406.252 161.436C397.483 165.475 389.606 171.788 383.159 180.083Z" fill="#1A1A1A"></path><path d="M444.431 158.608C455.822 161.525 466.493 167.915 475.487 177.376C491.555 194.262 493.363 236.916 494.232 257.415C494.323 259.542 494.403 261.395 494.486 262.962H495.095C495.012 261.391 494.932 259.53 494.841 257.391C494.559 250.753 494.179 241.802 493.25 232.15C491.654 215.581 488.439 196.943 481.314 184.379C480.922 183.689 480.516 183.017 480.097 182.363C479.152 180.869 478.102 179.445 476.954 178.1C476.615 177.707 476.272 177.321 475.919 176.952C475.641 176.657 475.359 176.373 475.077 176.085C468.456 169.342 460.952 164.196 452.749 160.788C449.235 159.322 445.59 158.191 441.863 157.409L444.431 158.608Z" fill="#1A1A1A"></path><path d="M372.534 181.588C369.633 179.894 366.532 178.569 363.302 177.644C362.564 177.953 360.179 180.38 352.613 193.99C348.377 201.612 344.429 209.309 343.932 210.283L345.838 217.605C345.854 217.667 345.85 217.733 345.826 217.793L328.126 262.38C328.127 262.385 328.127 262.391 328.126 262.396C328.121 262.408 328.115 262.419 328.108 262.429C328.096 262.447 328.082 262.464 328.067 262.479L328.041 262.504C328.023 262.517 328.004 262.529 327.984 262.538L327.953 262.553C327.922 262.565 327.888 262.571 327.854 262.571H324.761C324.729 262.571 324.697 262.565 324.667 262.555H324.655C324.627 262.546 324.601 262.535 324.576 262.52L324.564 262.51C324.542 262.491 324.522 262.469 324.507 262.445V262.433C324.49 262.407 324.478 262.379 324.47 262.35V262.35L313.432 214.665C313.423 214.625 313.422 214.584 313.429 214.543C313.436 214.503 313.452 214.464 313.475 214.43L317.049 208.986L314.07 176.457C306.793 178.423 300.344 181.561 294.667 185.883C276.804 199.483 266.548 224.701 263.341 262.961H287.966C287.883 260.728 287.615 247.102 292.619 233.648C292.619 233.648 292.619 233.636 292.631 233.628C293.37 227.197 294.496 220.815 296.002 214.519C296.01 214.479 296.027 214.44 296.05 214.406C296.074 214.372 296.104 214.343 296.139 214.321C296.174 214.299 296.213 214.285 296.254 214.278C296.295 214.272 296.337 214.274 296.377 214.284C296.417 214.295 296.455 214.313 296.487 214.339C296.52 214.364 296.547 214.396 296.567 214.432C296.587 214.468 296.6 214.508 296.604 214.549C296.608 214.591 296.604 214.632 296.591 214.672C295.04 221.168 293.892 227.753 293.155 234.391C292.915 237.275 291.965 249.856 292.85 258.901C293.014 260.275 293.217 261.631 293.459 262.961H366.079C366.593 262.93 367.794 262.725 369.087 261.57C370.695 260.137 372.771 256.922 373.553 249.742C374.198 243.765 371.698 232.286 369.051 220.107C369.034 220.032 369.046 219.953 369.085 219.887C369.124 219.82 369.187 219.771 369.261 219.749C369.335 219.727 369.415 219.734 369.484 219.768C369.553 219.803 369.606 219.862 369.633 219.935C369.7 220.113 376.277 238.022 376.894 262.952H409.959C408.624 251.673 405.831 235.091 400.09 219.492C393.303 201.052 384.031 188.294 372.534 181.588Z" fill="white"></path><path d="M381.19 187.34C381.022 187.182 380.851 187.03 380.681 186.874C378.28 184.665 375.652 182.717 372.84 181.062C369.954 179.377 366.873 178.05 363.665 177.112C363.694 177.147 363.714 177.187 363.725 177.23C363.736 177.273 363.737 177.318 363.728 177.362C363.715 177.428 363.68 177.488 363.63 177.532C363.579 177.576 363.515 177.602 363.448 177.606C363.397 177.609 363.348 177.622 363.302 177.644C366.531 178.569 369.632 179.894 372.533 181.588C384.03 188.286 393.302 201.052 400.094 219.503C405.834 235.102 408.619 251.683 409.963 262.963H410.572C409.236 251.651 406.435 234.982 400.662 219.294C395.547 205.389 389.019 194.688 381.19 187.34Z" fill="#1A1A1A"></path><path d="M294.666 185.884C300.35 181.563 306.792 178.425 314.069 176.458L314.012 175.849C306.742 177.8 300.285 180.911 294.585 185.186L294.297 185.401L294.094 185.56C286.525 191.379 280.23 199.458 275.336 209.623C275.161 209.987 274.987 210.353 274.817 210.721C274.251 211.939 273.705 213.183 273.179 214.452C267.861 227.329 264.347 243.648 262.731 262.964H263.34C266.547 224.702 276.796 199.486 294.666 185.884Z" fill="#1A1A1A"></path><path d="M328.965 236.384C330.027 220.249 334.807 204.411 338.834 193.541C338.493 193.541 338.152 193.551 337.819 193.551H337.527H337.044H336.808H336.37H336.114L335.708 193.539L335.434 193.527L335.028 193.511L334.744 193.494L334.356 193.472L334.064 193.452L333.682 193.423L333.386 193.399L333.006 193.367L332.708 193.338L332.332 193.3L332.032 193.267L331.657 193.22L331.356 193.184L330.979 193.133L330.68 193.09L330.299 193.032L330.004 192.985L329.619 192.92L329.326 192.869L328.92 192.794L328.646 192.741L328.2 192.65L327.97 192.601L327.292 192.449C327.012 192.372 326.732 192.289 326.454 192.199L326.176 192.104C326.679 212.045 327.022 242.886 325.108 261.988H327.524C327.378 260.119 326.856 250.721 328.965 236.384Z" fill="black"></path><path d="M324.655 262.552C324.628 262.544 324.601 262.533 324.576 262.52C324.601 262.533 324.628 262.544 324.655 262.552Z" fill="black"></path><path d="M324.577 262.5C324.555 262.482 324.535 262.459 324.52 262.435C324.535 262.459 324.555 262.482 324.577 262.5Z" fill="black"></path><path d="M324.5 262.422C324.484 262.397 324.471 262.368 324.464 262.339C324.471 262.368 324.484 262.397 324.5 262.422V262.422Z" fill="black"></path><path d="M328.116 262.396C328.111 262.408 328.104 262.419 328.097 262.43C328.104 262.419 328.111 262.408 328.116 262.396V262.396Z" fill="black"></path><path d="M324.76 262.571C324.729 262.571 324.697 262.565 324.667 262.555C324.697 262.565 324.729 262.571 324.76 262.571V262.571Z" fill="black"></path><path d="M327.542 262.296C327.542 262.296 327.53 262.173 327.513 261.961H325.098C325.086 262.073 325.076 262.187 325.063 262.296C325.056 262.368 325.023 262.435 324.971 262.485C324.919 262.535 324.851 262.565 324.779 262.57H327.802C327.734 262.561 327.671 262.529 327.624 262.479C327.577 262.429 327.548 262.365 327.542 262.296V262.296Z" fill="black"></path><path d="M328.058 262.479L328.031 262.504L328.058 262.479Z" fill="black"></path><path d="M327.975 262.538L327.943 262.552L327.975 262.538Z" fill="black"></path><path d="M327.288 192.425C327.007 192.348 326.727 192.265 326.449 192.175C326.727 192.265 327.011 192.348 327.288 192.425Z" fill="black"></path><path d="M328.916 192.77L328.642 192.717L328.916 192.77Z" fill="black"></path><path d="M335.018 193.486L334.733 193.47L335.018 193.486Z" fill="black"></path><path d="M334.345 193.448L334.053 193.427L334.345 193.448Z" fill="black"></path><path d="M338.833 193.542C338.492 193.542 338.151 193.554 337.818 193.554C338.151 193.552 338.492 193.548 338.833 193.542Z" fill="black"></path><path d="M331.645 193.196L331.345 193.16L331.645 193.196Z" fill="black"></path><path d="M332.996 193.342L332.697 193.314L332.996 193.342Z" fill="black"></path><path d="M332.322 193.275L332.021 193.243L332.322 193.275Z" fill="black"></path><path d="M333.67 193.399L333.374 193.375L333.67 193.399Z" fill="black"></path><path d="M328.196 192.626L327.966 192.577L328.196 192.626Z" fill="black"></path><path d="M335.691 193.506L335.417 193.494L335.691 193.506Z" fill="black"></path><path d="M330.967 193.1L330.669 193.058L330.967 193.1Z" fill="black"></path><path d="M329.608 192.897L329.315 192.847L329.608 192.897Z" fill="black"></path><path d="M330.287 193.007L329.993 192.96L330.287 193.007Z" fill="black"></path><path d="M311.218 139.948L311.35 140.634C312.826 148.3 316.221 154.045 320.65 156.393C322.761 157.51 324.966 157.725 326.695 156.978H326.709H326.73C329.931 156.026 331.544 155.151 331.561 155.135C331.596 155.113 331.635 155.098 331.676 155.091C331.717 155.085 331.759 155.086 331.799 155.097C331.839 155.107 331.877 155.125 331.91 155.151C331.943 155.176 331.97 155.208 331.99 155.244C332.01 155.281 332.023 155.321 332.027 155.362C332.031 155.403 332.026 155.445 332.014 155.485C332.001 155.524 331.98 155.561 331.953 155.592C331.926 155.623 331.892 155.649 331.855 155.667C331.79 155.703 330.231 156.55 327.111 157.493C327.046 159.04 327.038 160.28 327.032 161.48C327.016 164.756 327.002 167.584 325.723 174.899C325.719 174.924 325.712 174.949 325.701 174.972C325.682 175.015 325.658 175.065 325.629 175.122C325.747 178.167 325.958 184.009 326.149 191.434C326.575 191.584 327.004 191.722 327.438 191.84C331.317 192.753 335.182 193.015 339.063 192.934L339.341 192.193C341.669 186.024 344.311 179.978 347.257 174.079C347.042 173.267 346.748 172.037 346.421 170.348C342.982 172.039 339.075 172.536 335.663 172.536C333.205 172.529 330.753 172.29 328.339 171.824L328.258 171.808C328.215 171.798 328.175 171.779 328.14 171.753C328.105 171.726 328.076 171.692 328.055 171.653C328.034 171.613 328.022 171.569 328.02 171.524C328.018 171.478 328.026 171.433 328.043 171.391C328.155 171.13 339.036 145.231 336.365 136.428C335.208 132.604 332.888 131.429 330.43 130.182C327.213 128.559 323.89 126.868 322.642 119.51C317.179 123.709 312.176 122.859 309.838 122.073C309.093 128.958 310.317 135.298 311.218 139.948Z" fill="white"></path><path d="M325.629 175.116C325.658 175.059 325.682 175.009 325.7 174.966C325.711 174.943 325.719 174.918 325.723 174.893C327.001 167.586 327.016 164.744 327.032 161.474C327.032 160.274 327.046 159.038 327.111 157.487L326.908 157.55C326.88 157.558 326.852 157.562 326.823 157.562C326.751 157.563 326.682 157.539 326.627 157.494C326.571 157.448 326.534 157.385 326.521 157.315C326.508 157.244 326.521 157.172 326.556 157.11C326.592 157.048 326.648 157 326.715 156.976H326.701C324.971 157.723 322.767 157.508 320.656 156.391C316.221 154.043 312.831 148.298 311.356 140.632L311.224 139.946C310.322 135.295 309.098 128.958 309.845 122.065C309.624 121.992 309.427 121.917 309.255 121.85C308.463 128.883 309.709 135.334 310.625 140.061L310.757 140.748C312.267 148.595 315.772 154.493 320.372 156.929C322.473 158.041 324.675 158.315 326.498 157.704C326.48 158.145 326.467 158.557 326.459 158.953C326.459 159.223 326.447 159.487 326.443 159.742C326.443 160.351 326.443 160.912 326.429 161.468C326.415 164.376 326.4 166.93 325.489 172.642C325.52 172.688 325.538 172.742 325.542 172.798C325.538 172.867 325.572 173.683 325.629 175.116Z" fill="#1A1A1A"></path><path d="M326.449 192.175C326.727 192.264 327.007 192.348 327.287 192.425L327.965 192.577L328.195 192.626L328.641 192.717L328.915 192.77L329.321 192.845L329.614 192.896L329.999 192.961L330.294 193.007L330.675 193.066L330.974 193.109L331.351 193.16L331.651 193.196L332.027 193.243L332.327 193.275L332.703 193.314L333.001 193.342L333.381 193.375L333.677 193.399L334.059 193.427L334.351 193.448L334.739 193.47L335.023 193.486L335.429 193.503L335.703 193.515L336.109 193.527H336.365H336.803H337.039H337.522H337.814C338.155 193.527 338.496 193.527 338.829 193.515C338.904 193.312 338.979 193.109 339.056 192.906C335.175 192.987 331.31 192.725 327.432 191.812C326.997 191.694 326.569 191.556 326.143 191.406C326.143 191.623 326.155 191.838 326.159 192.055L326.449 192.175Z" fill="#1A1A1A"></path><path d="M347.667 173.251C347.464 172.458 347.232 171.4 346.974 170.052C346.788 170.152 346.601 170.255 346.412 170.343C346.739 172.031 347.033 173.257 347.248 174.073C347.407 173.759 347.549 173.481 347.667 173.251Z" fill="#1A1A1A"></path><path d="M255.899 157.029C255.706 153.948 255.873 149.265 256.392 143.009C255.154 143.513 253.804 143.89 252.548 143.89C251.848 143.904 251.155 143.76 250.518 143.47C248.742 142.619 249.584 139.701 250.561 136.321C251.43 133.313 252.414 129.905 251.306 128.171C250.9 127.53 250.22 127.144 249.243 126.996C247.374 126.712 246.02 127.033 245.218 127.948C243.595 129.803 244.668 133.528 244.68 133.567C244.693 133.608 244.696 133.652 244.69 133.695C244.683 133.738 244.668 133.78 244.644 133.816C244.621 133.852 244.592 133.882 244.557 133.906C244.522 133.93 244.482 133.946 244.441 133.954C243.792 134.023 243.136 133.946 242.52 133.729C241.905 133.512 241.345 133.16 240.883 132.7C239.285 131.076 238.825 128.139 239.511 123.958C239.555 123.681 239.606 123.389 239.659 123.083C240.327 119.206 241.335 113.34 237.184 111.963C235.861 111.523 233.614 112.272 231.44 112.997C230.598 113.277 229.749 113.559 228.925 113.786C228.203 114.962 227.676 116.248 227.364 117.592C225.876 123.972 225.318 129.885 225.753 134.691C226.171 139.325 227.482 142.737 229.54 144.558C231.355 146.159 233.661 146.464 236.389 145.459C236.4 145.457 236.412 145.457 236.423 145.459C236.434 145.454 236.446 145.45 236.458 145.447L241.666 144.818C241.717 144.811 241.769 144.818 241.817 144.837C241.864 144.856 241.906 144.887 241.938 144.927C241.97 144.967 241.992 145.014 242.001 145.065C242.011 145.115 242.007 145.167 241.991 145.216C241.179 147.651 237.306 150.505 236.47 151.102C236.301 153.308 236.107 155.306 235.932 156.926C235.945 156.975 235.945 157.027 235.932 157.076C235.918 157.139 235.906 157.202 235.891 157.264C235.814 157.975 235.741 158.606 235.678 159.138C235.486 165.467 239.858 174.047 240.753 175.746C241.467 174.5 249.176 161.107 255.899 157.029Z" fill="white"></path><path d="M235.873 156.794C235.907 156.829 235.93 156.872 235.942 156.92C236.117 155.296 236.312 153.302 236.48 151.096L236.328 151.204C236.277 151.238 236.217 151.256 236.155 151.256C236.103 151.257 236.051 151.244 236.005 151.218C235.944 151.182 235.898 151.126 235.873 151.06C235.709 153.205 235.52 155.15 235.35 156.743L235.603 156.702C235.652 156.695 235.703 156.699 235.75 156.715C235.797 156.731 235.839 156.758 235.873 156.794Z" fill="#1A1A1A"></path><path d="M240.16 176.797C240.213 176.797 240.265 176.784 240.31 176.758C240.568 176.612 240.818 176.452 241.066 176.279L240.948 176.253C240.941 176.285 240.928 176.316 240.911 176.344C240.881 176.39 240.839 176.428 240.789 176.452C240.739 176.476 240.684 176.487 240.629 176.482C240.613 176.482 240.233 176.452 239.59 176.442C239.717 176.54 239.847 176.638 239.98 176.734C240.032 176.773 240.095 176.795 240.16 176.797V176.797Z" fill="#1A1A1A"></path><path d="M236.19 145.725C236.195 145.661 236.221 145.6 236.263 145.551C236.305 145.503 236.361 145.469 236.424 145.455C236.412 145.453 236.401 145.453 236.389 145.455C233.661 146.46 231.355 146.155 229.541 144.554C227.483 142.727 226.171 139.321 225.753 134.687C225.319 129.88 225.877 123.967 227.365 117.588C227.674 116.243 228.199 114.957 228.92 113.78C228.633 113.859 228.351 113.932 228.075 113.995C227.487 115.081 227.048 116.242 226.772 117.446C223.727 130.471 224.639 141.03 229.139 145.004C231.006 146.654 233.426 147.054 236.16 146.173L236.19 145.725Z" fill="#1A1A1A"></path><path d="M256.392 143.009C255.873 149.265 255.706 153.948 255.899 157.029C256.102 156.909 256.291 156.797 256.486 156.694C256.471 156.392 256.457 156.071 256.449 155.722C256.368 152.616 256.563 148.268 257.028 142.731C256.821 142.83 256.609 142.922 256.392 143.009Z" fill="#1A1A1A"></path><path d="M235.896 157.258C235.769 157.875 235.697 158.502 235.683 159.132C235.746 158.594 235.819 157.969 235.896 157.258Z" fill="#1A1A1A"></path><path d="M440.827 159.93C440.827 155.278 441.095 149.172 441.657 141.662C441.343 141.554 441.04 141.418 440.75 141.256C437.685 139.514 435.726 137.083 435.515 134.75C435.443 134.113 435.533 133.467 435.776 132.874C436.02 132.28 436.41 131.757 436.909 131.355C439.451 129.221 440.766 126.623 440.36 124.573C440.114 123.339 439.262 122.46 437.896 122.032C435.46 121.266 433.999 124.748 433.124 126.828C432.75 127.715 432.545 128.19 432.312 128.413C431.833 128.888 431.35 129.061 430.879 128.923C429.712 128.586 429.182 126.414 429.125 126.166C429.109 126.093 429.119 126.017 429.155 125.951C430.838 122.906 429.994 115.717 428.171 113.328C427.026 111.83 425.086 110.864 422.845 110.689C420.163 110.503 417.512 111.358 415.444 113.076C415.04 113.812 414.709 114.586 414.456 115.386C408.61 133.727 412.239 140.661 414.925 143.162C415.936 144.109 417.187 144.761 418.543 145.049C419.898 145.336 421.307 145.247 422.615 144.792C422.654 144.735 422.712 144.692 422.778 144.672L427.875 143.15C427.927 143.134 427.982 143.133 428.035 143.146C428.087 143.16 428.136 143.187 428.174 143.225C428.213 143.263 428.241 143.311 428.255 143.363C428.269 143.416 428.269 143.471 428.254 143.523C427.879 144.867 423.738 148.192 423.094 148.707C422.861 151.569 422.468 154.415 421.917 157.232C422.037 157.795 423.507 163.931 430.442 166.975C433.191 165.78 438.97 162.733 440.827 159.93Z" fill="white"></path><path d="M421.6 156.956C421.675 156.949 421.749 156.971 421.809 157.017C421.868 157.063 421.908 157.129 421.921 157.203C421.921 157.203 421.921 157.224 421.921 157.248C422.472 154.43 422.865 151.584 423.098 148.723L423.058 148.755C423.012 148.79 422.958 148.812 422.901 148.818C422.844 148.824 422.787 148.815 422.735 148.79C422.684 148.765 422.64 148.726 422.61 148.677C422.58 148.629 422.564 148.573 422.564 148.516V147.351C422.441 150.568 421.88 154.171 421.375 156.87C421.375 156.907 421.361 156.943 421.353 156.98L421.6 156.956Z" fill="#1A1A1A"></path><path d="M422.565 144.972C422.565 144.91 422.584 144.85 422.62 144.8C421.31 145.25 419.903 145.334 418.549 145.042C417.195 144.75 415.947 144.095 414.939 143.145C412.253 140.645 408.624 133.711 414.47 115.369C414.723 114.569 415.054 113.795 415.458 113.06C415.255 113.232 415.034 113.411 414.831 113.602C414.785 113.644 414.728 113.672 414.665 113.681C414.603 113.69 414.54 113.679 414.484 113.65C414.256 114.149 414.057 114.662 413.889 115.185C412.909 118.208 412.115 121.288 411.513 124.408C411.474 124.623 411.437 124.832 411.401 125.046C410.792 128.48 410.589 131.553 410.792 134.232C411.098 138.418 412.355 141.568 414.527 143.592C415.585 144.582 416.885 145.277 418.297 145.606C419.709 145.934 421.182 145.885 422.569 145.463L422.565 144.972Z" fill="#1A1A1A"></path><path d="M441.657 141.665C441.094 149.175 440.816 155.277 440.826 159.933C441.336 159.164 441.551 158.413 441.328 157.723C441.31 157.667 441.309 157.606 441.324 157.55C441.34 157.493 441.371 157.441 441.415 157.402C441.428 157.392 441.442 157.384 441.456 157.376C441.457 157.361 441.457 157.346 441.456 157.331C441.531 153.123 441.797 147.947 442.253 141.838C442.051 141.793 441.852 141.735 441.657 141.665V141.665Z" fill="#1A1A1A"></path><path d="M550.696 262.963H473.827C473.827 263.062 473.827 263.166 473.839 263.257C473.842 263.318 473.826 263.378 473.793 263.429C473.793 263.429 473.793 263.429 473.782 263.446C473.774 263.457 473.765 263.468 473.756 263.478V263.478L473.74 263.49L473.713 263.515L473.689 263.527L473.661 263.543L473.634 263.553H473.604C473.593 263.554 473.582 263.554 473.571 263.553H550.696C550.776 263.553 550.854 263.521 550.911 263.464C550.968 263.407 551 263.33 551 263.249C551 263.168 550.968 263.091 550.911 263.034C550.854 262.976 550.776 262.944 550.696 262.944V262.963Z" fill="black"></path><path d="M209.496 263.27C209.496 263.167 209.496 263.067 209.496 262.962H163.742C163.661 262.962 163.584 262.994 163.527 263.051C163.47 263.108 163.438 263.186 163.438 263.266C163.438 263.347 163.47 263.425 163.527 263.482C163.584 263.539 163.661 263.571 163.742 263.571H209.8C209.72 263.571 209.643 263.539 209.586 263.483C209.529 263.427 209.497 263.35 209.496 263.27V263.27Z" fill="black"></path><path d="M469.992 263.199C470.01 263.122 470.026 263.041 470.045 262.962H376.897C376.897 263.061 376.897 263.165 376.897 263.26C376.898 263.301 376.891 263.341 376.876 263.379C376.862 263.417 376.839 263.451 376.811 263.48C376.782 263.509 376.749 263.532 376.711 263.548C376.674 263.563 376.633 263.571 376.593 263.571H470.282C470.237 263.571 470.192 263.56 470.15 263.54C470.109 263.521 470.073 263.492 470.044 263.456C470.016 263.421 469.996 263.379 469.985 263.335C469.975 263.29 469.974 263.244 469.984 263.199H469.992Z" fill="black"></path><path d="M365.491 263.25C365.495 263.172 365.529 263.099 365.585 263.045C365.642 262.992 365.717 262.962 365.795 262.962H293.467C293.482 263.047 293.496 263.13 293.512 263.216C293.52 263.255 293.519 263.295 293.511 263.334C293.503 263.373 293.488 263.411 293.465 263.444C293.443 263.477 293.414 263.505 293.381 263.527C293.347 263.549 293.31 263.564 293.271 263.571H365.763C365.685 263.563 365.613 263.525 365.563 263.465C365.512 263.405 365.486 263.328 365.491 263.25Z" fill="black"></path><path d="M287.98 263.285C287.98 263.272 287.98 263.161 287.966 262.962H210.094C210.094 263.063 210.094 263.165 210.094 263.264C210.095 263.304 210.087 263.344 210.072 263.381C210.057 263.418 210.035 263.452 210.007 263.48C209.979 263.509 209.945 263.531 209.908 263.547C209.872 263.562 209.832 263.571 209.792 263.571H288.284C288.207 263.571 288.132 263.541 288.075 263.488C288.019 263.435 287.985 263.362 287.98 263.285V263.285Z" fill="black"></path><path d="M308.524 114.371C308.174 116.583 308.287 118.844 308.857 121.01C309.715 121.449 315.843 124.258 322.669 118.706C322.711 118.672 322.761 118.65 322.814 118.642C322.867 118.633 322.921 118.639 322.971 118.658C323.021 118.678 323.066 118.71 323.099 118.752C323.133 118.794 323.155 118.844 323.163 118.897C324.295 126.383 327.555 128.031 330.707 129.633C333.17 130.881 335.717 132.174 336.949 136.246C339.537 144.801 330.1 168.014 328.743 171.276C331.027 171.698 333.345 171.914 335.668 171.924C341.697 171.924 349.329 170.336 352.832 163.112C357.647 153.572 359.273 141.363 357.298 129.596C355.288 117.695 349.873 108.326 342.438 103.885C335.23 99.5794 330.186 102.094 327.226 104.96C327.194 104.992 327.154 105.016 327.111 105.03C327.068 105.044 327.022 105.049 326.977 105.044C326.932 105.038 326.889 105.023 326.851 104.999C326.812 104.974 326.78 104.942 326.755 104.904C324.198 100.826 319.84 101.228 317.536 102.494C312.35 105.346 309.317 109.341 308.524 114.371Z" fill="black"></path><path d="M308.313 121.314C308.32 121.329 308.327 121.344 308.336 121.357C308.36 121.408 308.399 121.451 308.447 121.481C308.71 121.621 308.981 121.745 309.259 121.852C309.432 121.919 309.629 121.994 309.85 122.068C312.188 122.853 317.192 123.704 322.654 119.504C323.892 126.862 327.215 128.553 330.432 130.177C332.89 131.423 335.21 132.598 336.367 136.422C339.03 145.226 328.149 171.132 328.045 171.386C328.028 171.427 328.02 171.473 328.022 171.518C328.024 171.563 328.036 171.607 328.057 171.647C328.078 171.686 328.107 171.72 328.142 171.747C328.177 171.773 328.217 171.792 328.26 171.802L328.341 171.818C330.755 172.285 333.207 172.523 335.665 172.53C339.067 172.53 342.972 172.033 346.423 170.342C346.612 170.249 346.798 170.151 346.985 170.052C349.782 168.574 352.028 166.234 353.391 163.38C355.746 158.712 357.343 153.434 358.143 147.858C359.009 141.76 358.928 135.566 357.903 129.493C355.874 117.417 350.35 107.893 342.763 103.363C335.435 98.9867 330.227 101.366 327.081 104.27C324.55 100.592 320.263 100.304 317.246 101.962C310.548 105.64 308.48 110.703 307.909 114.304C307.739 115.401 307.677 116.513 307.723 117.622C307.761 118.873 307.959 120.114 308.313 121.314ZM326.758 104.904C326.782 104.942 326.815 104.974 326.853 104.999C326.892 105.023 326.935 105.038 326.98 105.044C327.025 105.049 327.071 105.044 327.114 105.03C327.157 105.016 327.196 104.992 327.229 104.96C330.188 102.094 335.233 99.5794 342.44 103.885C349.873 108.326 355.289 117.687 357.294 129.592C359.278 141.365 357.652 153.574 352.829 163.108C349.325 170.332 341.693 171.919 335.665 171.919C333.342 171.91 331.024 171.694 328.739 171.272C330.097 168.01 339.534 144.797 336.946 136.242C335.714 132.17 333.166 130.877 330.704 129.629C327.552 128.031 324.292 126.381 323.159 118.893C323.151 118.84 323.129 118.79 323.096 118.748C323.062 118.706 323.018 118.674 322.968 118.654C322.918 118.635 322.864 118.629 322.811 118.638C322.758 118.646 322.708 118.668 322.666 118.702C315.848 124.252 309.716 121.448 308.857 121.01C308.288 118.844 308.175 116.583 308.524 114.371C309.318 109.341 312.351 105.346 317.539 102.494C319.843 101.228 324.201 100.826 326.758 104.904V104.904Z" fill="black"></path><path d="M371.164 227.029C373.439 237.827 374.671 245.094 374.162 249.809C373.516 255.771 371.929 259.895 369.453 262.069C369.062 262.416 368.632 262.716 368.172 262.962H376.291C375.987 250.826 374.266 238.766 371.164 227.029V227.029Z" fill="black"></path><path d="M376.907 263.261C376.907 263.161 376.907 263.058 376.907 262.962C376.298 238.032 369.713 220.133 369.646 219.945C369.619 219.872 369.566 219.813 369.497 219.778C369.428 219.744 369.348 219.737 369.274 219.759C369.2 219.781 369.137 219.83 369.098 219.896C369.059 219.963 369.047 220.042 369.064 220.117C371.702 232.278 374.211 243.766 373.566 249.752C372.788 256.932 370.712 260.147 369.1 261.58C367.807 262.735 366.605 262.94 366.092 262.97H365.8C365.719 262.966 365.64 262.994 365.58 263.048C365.519 263.102 365.483 263.178 365.479 263.259C365.475 263.339 365.503 263.418 365.557 263.479C365.611 263.539 365.686 263.575 365.767 263.579H365.785C365.814 263.579 365.871 263.579 365.95 263.579H366.139H376.606C376.647 263.58 376.687 263.572 376.725 263.556C376.762 263.541 376.796 263.518 376.824 263.489C376.853 263.46 376.875 263.425 376.89 263.387C376.905 263.35 376.912 263.309 376.911 263.269L376.907 263.261ZM372.951 262.962H368.172C368.633 262.715 369.063 262.416 369.453 262.069C371.934 259.895 373.513 255.777 374.162 249.809C374.672 245.1 373.44 237.833 371.164 227.029C374.266 238.764 375.987 250.822 376.292 262.956L372.951 262.962Z" fill="black"></path><path d="M296.374 214.302C296.296 214.282 296.213 214.294 296.143 214.335C296.073 214.376 296.023 214.443 296.002 214.521C294.496 220.817 293.37 227.198 292.631 233.63C292.66 233.564 292.712 233.512 292.777 233.481C292.842 233.45 292.915 233.444 292.985 233.462C293.054 233.481 293.114 233.523 293.155 233.582C293.196 233.641 293.214 233.713 293.207 233.784C293.207 233.804 293.185 234.017 293.155 234.393C293.892 227.755 295.04 221.169 296.591 214.673C296.611 214.595 296.6 214.512 296.559 214.443C296.519 214.373 296.452 214.322 296.374 214.302V214.302Z" fill="black"></path><path d="M293.519 263.216C293.503 263.13 293.488 263.047 293.474 262.962C293.225 261.632 293.022 260.277 292.865 258.902C292.996 260.347 293.208 261.783 293.501 263.203C293.509 263.248 293.509 263.294 293.498 263.338C293.488 263.382 293.468 263.424 293.44 263.459C293.411 263.494 293.374 263.522 293.333 263.542C293.292 263.561 293.248 263.571 293.202 263.571V263.571C293.213 263.572 293.224 263.572 293.235 263.571C293.254 263.573 293.273 263.573 293.291 263.571C293.368 263.553 293.435 263.506 293.477 263.439C293.52 263.373 293.535 263.293 293.519 263.216V263.216Z" fill="black"></path><path d="M292.414 236.075C288.242 248.729 288.498 260.954 288.575 262.962H292.813C291.253 255.147 292.016 241.521 292.414 236.075Z" fill="black"></path><path d="M293.424 263.46C293.452 263.424 293.472 263.383 293.483 263.338C293.493 263.294 293.494 263.248 293.485 263.204C293.193 261.783 292.981 260.347 292.85 258.903C291.965 249.858 292.915 237.277 293.155 234.393C293.185 234.017 293.205 233.804 293.207 233.784C293.214 233.713 293.196 233.641 293.155 233.582C293.114 233.523 293.054 233.481 292.984 233.462C292.915 233.444 292.842 233.451 292.777 233.481C292.712 233.512 292.66 233.564 292.631 233.63C292.631 233.63 292.631 233.644 292.619 233.65C287.615 247.104 287.883 260.719 287.966 262.962C287.966 263.165 287.981 263.273 287.981 263.285C287.985 263.363 288.019 263.435 288.076 263.489C288.133 263.542 288.207 263.571 288.285 263.571H293.187C293.232 263.571 293.277 263.561 293.318 263.542C293.359 263.523 293.396 263.495 293.424 263.46V263.46ZM292.41 236.076C292.004 241.522 291.249 255.156 292.816 262.962H288.575C288.498 260.955 288.242 248.729 292.414 236.076H292.41Z" fill="black"></path><path d="M339.907 192.412C335.798 203.249 330.665 219.691 329.571 236.435C329.571 236.435 329.571 236.453 329.571 236.459C327.73 248.983 327.903 257.709 328.063 260.9L345.227 217.665L343.317 210.327C343.299 210.256 343.307 210.18 343.339 210.114C343.382 210.031 347.569 201.822 352.086 193.697C359.005 181.246 361.597 178.098 362.703 177.288C357.661 174.926 349.948 173.192 348.544 172.888C347.855 174.189 343.966 181.695 339.907 192.412Z" fill="white"></path><path d="M347.249 174.073C344.303 179.972 341.661 186.018 339.333 192.187L339.055 192.928C338.978 193.131 338.903 193.334 338.827 193.537C334.8 204.406 330.02 220.245 328.959 236.38C326.85 250.716 327.371 260.114 327.507 261.955C327.523 262.158 327.534 262.28 327.536 262.29C327.542 262.358 327.571 262.422 327.618 262.472C327.665 262.521 327.728 262.553 327.795 262.562H327.838C327.872 262.562 327.906 262.556 327.938 262.544L327.968 262.53C327.988 262.52 328.007 262.509 328.025 262.495L328.051 262.471C328.066 262.455 328.08 262.438 328.092 262.42C328.099 262.41 328.105 262.399 328.11 262.388C328.111 262.382 328.111 262.377 328.11 262.371L345.81 217.785C345.834 217.725 345.838 217.659 345.822 217.596L343.916 210.275C344.413 209.3 348.361 201.603 352.598 193.981C360.163 180.372 362.544 177.946 363.286 177.635C363.332 177.613 363.382 177.6 363.433 177.597C363.5 177.593 363.564 177.567 363.614 177.523C363.665 177.479 363.7 177.419 363.713 177.353C363.724 177.288 363.715 177.221 363.686 177.161C363.657 177.102 363.61 177.052 363.552 177.02C358.003 174.244 348.532 172.254 348.428 172.234C348.367 172.227 348.305 172.238 348.25 172.267C348.195 172.296 348.15 172.341 348.122 172.396C348.122 172.411 347.955 172.705 347.673 173.251C347.549 173.48 347.407 173.758 347.249 174.073ZM362.7 177.284C361.594 178.096 359.002 181.242 352.082 193.693C347.566 201.812 343.378 210.027 343.336 210.11C343.303 210.176 343.295 210.252 343.313 210.323L345.223 217.661L328.059 260.896C327.899 257.705 327.726 248.979 329.567 236.455C329.567 236.455 329.567 236.441 329.567 236.431C330.666 219.691 335.799 203.249 339.907 192.412C343.967 181.695 347.856 174.189 348.544 172.888C349.949 173.192 357.662 174.926 362.7 177.284V177.284Z" fill="#1A1A1A"></path><path d="M317.674 209.037C317.683 209.108 317.665 209.18 317.626 209.24L314.063 214.663L324.637 260.382C327.296 231.245 325.13 177.652 324.939 173.129C317.934 173.381 315.17 174.717 314.555 175.072L317.674 209.037Z" fill="white"></path><path d="M314.069 176.456L317.049 208.984L313.474 214.427C313.452 214.462 313.436 214.5 313.429 214.541C313.421 214.581 313.422 214.623 313.432 214.663L324.464 262.333C324.471 262.362 324.484 262.39 324.5 262.416V262.428C324.516 262.453 324.535 262.474 324.557 262.493L324.569 262.503C324.593 262.521 324.619 262.535 324.646 262.546H324.659C324.689 262.557 324.72 262.562 324.752 262.562H324.778C324.85 262.557 324.918 262.527 324.97 262.477C325.022 262.427 325.055 262.36 325.063 262.288C325.075 262.179 325.085 262.065 325.097 261.953C327.011 242.851 326.668 212.02 326.165 192.069C326.165 191.852 326.155 191.637 326.148 191.42C325.958 183.995 325.743 178.153 325.629 175.108C325.572 173.675 325.537 172.859 325.535 172.792C325.532 172.736 325.514 172.682 325.483 172.636C325.455 172.595 325.417 172.561 325.373 172.538C325.33 172.514 325.281 172.502 325.231 172.502H325.221C316.684 172.768 314.154 174.582 314.057 174.66C314.015 174.691 313.983 174.733 313.961 174.78C313.94 174.828 313.931 174.88 313.935 174.932L314.02 175.847L314.069 176.456ZM314.554 175.07C315.163 174.714 317.934 173.379 324.939 173.127C325.13 177.65 327.295 231.242 324.636 260.38L314.055 214.655L317.617 209.231C317.657 209.171 317.674 209.099 317.666 209.028L314.554 175.07Z" fill="#1A1A1A"></path><path d="M241.305 183.924L238.001 183.646L228.465 243.661L238.928 258.818L248.146 244.741L241.305 183.924Z" fill="black"></path><path d="M241.882 183.607C241.874 183.537 241.842 183.472 241.792 183.423C241.741 183.374 241.676 183.343 241.606 183.337L239.608 183.169L239.458 183.232C239.421 183.247 239.381 183.255 239.34 183.254C239.286 183.254 239.233 183.239 239.186 183.211L239.034 183.12L237.771 183.014C237.694 183.007 237.618 183.03 237.557 183.077C237.496 183.125 237.456 183.194 237.444 183.27L227.843 243.685C227.831 243.763 227.85 243.842 227.894 243.906L238.685 259.536C238.713 259.577 238.75 259.61 238.794 259.633C238.838 259.656 238.887 259.668 238.936 259.668V259.668C238.986 259.667 239.035 259.654 239.079 259.63C239.123 259.606 239.161 259.572 239.188 259.53L248.714 244.984C248.752 244.924 248.769 244.852 248.761 244.781L241.882 183.607ZM228.465 243.661L238.005 183.646L241.309 183.924L248.15 244.741L238.932 258.817L228.465 243.661Z" fill="black"></path><path d="M210.106 263.265C210.106 263.164 210.106 263.062 210.106 262.963C209.825 233.817 213.861 202.46 213.901 202.146C213.906 202.106 213.903 202.065 213.893 202.026C213.882 201.987 213.864 201.951 213.839 201.919C213.815 201.887 213.784 201.861 213.749 201.841C213.714 201.821 213.675 201.808 213.635 201.803C213.595 201.798 213.555 201.801 213.516 201.811C213.477 201.822 213.441 201.84 213.409 201.865C213.377 201.889 213.35 201.92 213.33 201.955C213.31 201.99 213.297 202.029 213.292 202.069C213.25 202.383 209.21 233.774 209.49 262.963C209.49 263.066 209.49 263.166 209.49 263.271C209.492 263.351 209.524 263.428 209.581 263.484C209.638 263.54 209.715 263.572 209.795 263.572C209.836 263.572 209.876 263.565 209.914 263.55C209.952 263.535 209.986 263.512 210.015 263.484C210.044 263.455 210.067 263.421 210.082 263.384C210.098 263.346 210.106 263.306 210.106 263.265Z" fill="black"></path><path d="M231.241 112.418C233.614 111.629 235.855 110.882 237.371 111.387C242.019 112.936 240.913 119.352 240.253 123.187C240.2 123.491 240.15 123.783 240.105 124.057C239.461 127.973 239.876 130.81 241.303 132.266C241.658 132.618 242.079 132.897 242.542 133.086C243.006 133.275 243.502 133.371 244.002 133.368C243.757 132.317 243.231 129.308 244.761 127.549C245.494 126.71 246.588 126.288 248.009 126.288C248.455 126.29 248.9 126.326 249.341 126.396C250.483 126.568 251.318 127.057 251.823 127.845C253.079 129.81 252.099 133.206 251.149 136.49C250.288 139.474 249.472 142.293 250.786 142.92C253.987 144.453 259.623 140.659 260.409 140.111C260.671 138.962 262.845 128.87 261.877 113.115C261.7 110.184 260.677 107.947 258.753 106.272C253.512 101.719 242.756 102.572 234.113 103.242C229.887 103.575 226.213 103.863 223.903 103.459C222.616 108.556 222.634 111.767 223.956 112.999C225.411 114.361 228.375 113.372 231.241 112.418Z" fill="black"></path><path d="M228.92 113.786C229.744 113.559 230.592 113.276 231.435 112.996C233.609 112.272 235.855 111.523 237.179 111.963C241.33 113.347 240.321 119.205 239.653 123.082C239.6 123.389 239.55 123.681 239.505 123.957C238.819 128.139 239.28 131.08 240.877 132.7C241.34 133.16 241.899 133.511 242.515 133.728C243.13 133.945 243.786 134.022 244.435 133.954C244.477 133.946 244.516 133.93 244.551 133.906C244.586 133.882 244.616 133.852 244.638 133.816C244.662 133.779 244.678 133.738 244.684 133.695C244.69 133.652 244.687 133.608 244.675 133.566C244.663 133.528 243.593 129.803 245.213 127.948C246.015 127.032 247.369 126.712 249.238 126.996C250.214 127.144 250.888 127.53 251.3 128.171C252.409 129.905 251.424 133.313 250.555 136.321C249.579 139.7 248.728 142.613 250.513 143.47C251.149 143.76 251.843 143.904 252.542 143.89C253.799 143.89 255.149 143.512 256.387 143.009C256.604 142.922 256.815 142.83 257.022 142.737C258.364 142.125 259.645 141.389 260.85 140.539C260.909 140.497 260.95 140.436 260.968 140.366C260.993 140.263 263.497 129.85 262.478 113.08C262.292 110.021 261.171 107.577 259.145 105.815C253.72 101.092 242.822 101.946 234.067 102.634C229.707 102.977 225.948 103.272 223.744 102.807C223.667 102.791 223.587 102.805 223.52 102.847C223.454 102.888 223.406 102.954 223.386 103.03C221.927 108.675 221.978 111.985 223.543 113.445C224.621 114.46 226.257 114.417 228.075 114.001C228.351 113.938 228.633 113.865 228.92 113.786ZM223.957 113C222.635 111.766 222.617 108.555 223.904 103.46C226.214 103.866 229.888 103.576 234.114 103.243C242.757 102.571 253.513 101.719 258.752 106.274C260.676 107.948 261.699 110.185 261.875 113.116C262.834 128.869 260.67 138.962 260.408 140.112C259.622 140.66 253.986 144.454 250.785 142.922C249.471 142.294 250.287 139.471 251.148 136.491C252.098 133.207 253.078 129.811 251.822 127.846C251.316 127.059 250.482 126.57 249.339 126.397C248.899 126.327 248.454 126.291 248.008 126.289C246.587 126.289 245.495 126.712 244.76 127.55C243.23 129.304 243.745 132.318 244.001 133.369C243.501 133.373 243.005 133.277 242.541 133.088C242.078 132.898 241.657 132.62 241.301 132.267C239.881 130.812 239.46 127.974 240.104 124.059C240.149 123.785 240.199 123.492 240.252 123.188C240.912 119.354 242.018 112.937 237.37 111.389C235.853 110.883 233.613 111.63 231.24 112.42C228.376 113.372 225.412 114.36 223.957 113Z" fill="black"></path><path d="M241.222 145.479L236.78 146.009L236.492 150.317C237.627 149.478 240.3 147.357 241.222 145.479Z" fill="black"></path><path d="M235.994 151.218C236.04 151.244 236.092 151.257 236.144 151.257C236.206 151.256 236.266 151.238 236.317 151.204L236.469 151.096C237.305 150.502 241.178 147.646 241.99 145.21C242.006 145.161 242.01 145.109 242.001 145.059C241.991 145.009 241.97 144.961 241.937 144.922C241.905 144.882 241.863 144.851 241.816 144.831C241.768 144.812 241.716 144.805 241.665 144.812L236.457 145.441C236.445 145.444 236.434 145.448 236.423 145.453C236.36 145.468 236.303 145.501 236.261 145.55C236.219 145.599 236.194 145.659 236.189 145.723L236.159 146.182L235.84 150.93C235.838 150.987 235.852 151.043 235.879 151.093C235.906 151.144 235.946 151.186 235.994 151.216V151.218ZM241.221 145.48C240.299 147.357 237.626 149.478 236.492 150.325L236.78 146.01L241.221 145.48Z" fill="black"></path><path d="M414.575 113.011C416.915 110.892 419.942 109.82 422.909 110.065C425.321 110.268 427.42 111.318 428.668 112.952C430.61 115.495 431.493 122.804 429.76 126.133C429.963 126.945 430.466 128.163 431.061 128.332C431.307 128.403 431.587 128.283 431.897 127.974C432.047 127.826 432.303 127.195 432.569 126.584C433.523 124.313 435.121 120.513 438.084 121.442C439.653 121.936 440.674 123.003 440.962 124.449C441.415 126.716 440.012 129.539 437.309 131.815C436.886 132.155 436.556 132.598 436.35 133.1C436.143 133.603 436.068 134.149 436.129 134.689C436.32 136.792 438.208 139.102 441.058 140.719C445.523 143.251 449.366 137.32 452.177 132.988L452.518 132.464C454.05 130.116 454.532 127.077 453.839 124.128C453.465 122.523 452.766 121.013 451.786 119.688C450.805 118.364 449.565 117.254 448.14 116.427C448.102 116.406 448.07 116.376 448.044 116.341C448.019 116.306 448.002 116.266 447.994 116.224C447.987 116.18 447.989 116.135 448.001 116.093C448.012 116.05 448.033 116.01 448.061 115.976C451.219 112.213 451.757 106.984 449.37 103.261C447.981 101.098 445.602 99.5307 442.846 98.9644C441.294 98.6479 439.694 98.6477 438.142 98.9641C436.59 99.2804 435.118 99.9067 433.813 100.805C433.771 100.834 433.721 100.852 433.67 100.857C433.618 100.861 433.566 100.853 433.519 100.832C433.472 100.812 433.43 100.78 433.399 100.739C433.368 100.698 433.348 100.649 433.34 100.598C433.152 99.3161 432.699 98.0871 432.01 96.9892C431.322 95.8913 430.412 94.9485 429.34 94.2208C428.329 93.5206 427.184 93.038 425.977 92.8035C424.77 92.5691 423.528 92.5879 422.329 92.8588C421.196 93.1341 420.13 93.6322 419.192 94.324C418.255 95.0157 417.464 95.8873 416.867 96.8879C416.22 97.9392 415.789 99.1092 415.6 100.329C415.411 101.549 415.468 102.794 415.766 103.992C415.778 104.041 415.778 104.091 415.766 104.14C415.753 104.188 415.729 104.233 415.696 104.27C415.662 104.307 415.62 104.335 415.572 104.352C415.525 104.368 415.475 104.373 415.425 104.366C413.101 104.027 411.084 104.554 410.402 105.675C410.034 106.284 409.979 107.185 410.254 108.153C410.783 110.027 412.393 111.833 414.575 113.011Z" fill="black"></path><path d="M413.759 113.24C413.994 113.384 414.234 113.522 414.484 113.646C414.539 113.675 414.603 113.685 414.665 113.677C414.727 113.668 414.785 113.64 414.831 113.597C415.034 113.407 415.237 113.228 415.458 113.055C417.526 111.337 420.176 110.482 422.859 110.668C425.091 110.853 427.04 111.819 428.185 113.307C430.012 115.696 430.852 122.882 429.169 125.93C429.133 125.996 429.122 126.073 429.139 126.146C429.196 126.393 429.725 128.565 430.893 128.902C431.363 129.04 431.847 128.868 432.326 128.393C432.551 128.169 432.756 127.694 433.137 126.807C434.012 124.727 435.476 121.246 437.91 122.011C439.276 122.439 440.128 123.318 440.374 124.552C440.78 126.602 439.458 129.2 436.923 131.334C436.424 131.737 436.034 132.259 435.79 132.853C435.546 133.446 435.456 134.092 435.529 134.73C435.732 137.062 437.698 139.494 440.763 141.235C441.053 141.397 441.357 141.533 441.671 141.641C441.87 141.71 442.073 141.767 442.28 141.81C442.59 141.877 442.906 141.911 443.224 141.911C447.111 141.911 450.397 136.849 452.705 133.295L453.046 132.773C454.67 130.284 455.177 127.073 454.448 123.964C454.069 122.337 453.372 120.801 452.397 119.444C451.421 118.088 450.187 116.938 448.765 116.062C451.893 112.118 452.368 106.755 449.896 102.9C448.42 100.599 445.901 98.9361 442.982 98.3373C439.845 97.693 436.58 98.2942 433.878 100.014C433.372 97.435 431.869 95.1599 429.695 93.683C428.615 92.9357 427.391 92.4212 426.101 92.172C424.811 91.9229 423.484 91.9446 422.203 92.2357C420.993 92.5314 419.853 93.0654 418.852 93.8063C417.85 94.5472 417.006 95.4803 416.369 96.5511C415.061 98.6808 414.607 101.227 415.101 103.678C412.689 103.424 410.676 104.053 409.904 105.328C409.442 106.089 409.366 107.141 409.689 108.285C410.164 109.966 411.419 111.584 413.14 112.804C413.331 112.972 413.542 113.108 413.759 113.24ZM410.402 105.667C411.084 104.546 413.101 104.019 415.425 104.358C415.475 104.365 415.525 104.36 415.572 104.344C415.62 104.327 415.662 104.299 415.696 104.262C415.729 104.225 415.753 104.18 415.766 104.132C415.778 104.083 415.778 104.033 415.766 103.984C415.469 102.788 415.413 101.544 415.602 100.325C415.791 99.1068 416.221 97.9383 416.867 96.888C417.462 95.886 418.251 95.0126 419.187 94.3187C420.124 93.6249 421.189 93.1245 422.321 92.8467C423.52 92.5758 424.762 92.557 425.969 92.7915C427.176 93.0259 428.321 93.5085 429.332 94.2087C430.404 94.9365 431.313 95.8792 432.002 96.9771C432.691 98.075 433.144 99.3041 433.332 100.586C433.339 100.637 433.36 100.686 433.391 100.727C433.422 100.767 433.464 100.8 433.511 100.82C433.558 100.841 433.61 100.849 433.662 100.845C433.713 100.84 433.763 100.822 433.805 100.793C435.11 99.8946 436.582 99.2684 438.134 98.952C439.686 98.6357 441.286 98.6358 442.838 98.9523C445.594 99.5186 447.973 101.086 449.362 103.249C451.749 106.972 451.211 112.201 448.052 115.964C448.024 115.998 448.004 116.038 447.992 116.081C447.981 116.123 447.978 116.168 447.985 116.212C447.994 116.254 448.011 116.294 448.036 116.329C448.061 116.364 448.094 116.393 448.132 116.415C449.557 117.242 450.797 118.352 451.777 119.676C452.758 121 453.457 122.511 453.831 124.116C454.523 127.065 454.034 130.104 452.51 132.452L452.169 132.976C449.358 137.307 445.505 143.239 441.05 140.707C438.208 139.084 436.312 136.78 436.121 134.677C436.06 134.137 436.135 133.591 436.342 133.088C436.548 132.586 436.878 132.143 437.301 131.803C440.012 129.527 441.415 126.704 440.954 124.436C440.666 122.991 439.645 121.924 438.076 121.43C435.112 120.501 433.515 124.3 432.561 126.572C432.303 127.181 432.039 127.814 431.889 127.962C431.579 128.271 431.298 128.391 431.053 128.319C430.458 128.147 429.955 126.925 429.752 126.121C431.485 122.792 430.602 115.483 428.66 112.94C427.411 111.316 425.313 110.252 422.901 110.053C419.934 109.808 416.907 110.879 414.567 112.999C412.385 111.821 410.775 110.015 410.245 108.127C409.98 107.177 410.03 106.274 410.402 105.667Z" fill="black"></path><path d="M423.173 145.197V147.871C424.671 146.653 426.557 144.978 427.332 143.955L423.173 145.197Z" fill="black"></path><path d="M422.735 148.782C422.787 148.807 422.844 148.817 422.901 148.811C422.958 148.805 423.012 148.783 423.058 148.748L423.098 148.715C423.742 148.204 427.883 144.875 428.258 143.531C428.273 143.479 428.273 143.423 428.259 143.371C428.245 143.318 428.217 143.271 428.178 143.232C428.139 143.194 428.091 143.167 428.039 143.154C427.986 143.141 427.931 143.142 427.878 143.157L422.782 144.68C422.719 144.699 422.665 144.738 422.626 144.791C422.587 144.843 422.565 144.907 422.564 144.972V148.508C422.564 148.565 422.58 148.621 422.61 148.669C422.641 148.718 422.684 148.757 422.735 148.782ZM423.173 147.873V145.197L427.332 143.955C426.557 144.98 424.671 146.655 423.173 147.873Z" fill="black"></path><path d="M243.432 180.928L243.207 178.147L236.775 177.905L236.612 180.968L239.367 182.61L243.432 180.928Z" fill="black"></path><path d="M239.341 183.254C239.381 183.255 239.421 183.247 239.458 183.232L239.609 183.169L243.871 181.405C243.93 181.38 243.98 181.337 244.014 181.282C244.048 181.227 244.063 181.163 244.058 181.099L243.79 177.829C243.784 177.755 243.75 177.686 243.696 177.634C243.643 177.583 243.572 177.553 243.498 177.551L236.495 177.287C236.415 177.284 236.338 177.313 236.279 177.367C236.22 177.421 236.185 177.495 236.18 177.575L235.993 181.125C235.991 181.18 236.004 181.235 236.03 181.284C236.056 181.333 236.094 181.374 236.142 181.403L239.034 183.126L239.186 183.218C239.234 183.244 239.287 183.256 239.341 183.254V183.254ZM236.775 177.906L243.207 178.147L243.433 180.928L239.373 182.611L236.619 180.969L236.775 177.906Z" fill="black"></path><path d="M439.665 177.268C447.09 172.555 449.688 167.525 448.071 160.985L442.022 158.144C442.225 162.053 432.991 166.494 430.945 167.43L439.665 177.268Z" fill="white"></path><path d="M441.415 157.398C441.372 157.438 441.34 157.489 441.324 157.546C441.309 157.603 441.31 157.663 441.328 157.719C441.551 158.409 441.328 159.16 440.827 159.93C438.969 162.733 433.191 165.779 430.444 166.997L430.564 167.05C430.611 167.07 430.652 167.102 430.683 167.142C430.715 167.182 430.735 167.23 430.744 167.28C430.752 167.33 430.747 167.382 430.731 167.43C430.714 167.478 430.685 167.521 430.647 167.555L430.42 167.758L439.381 177.877C439.41 177.909 439.446 177.935 439.485 177.952C439.525 177.97 439.568 177.979 439.611 177.979C439.667 177.979 439.723 177.963 439.771 177.934C447.687 172.983 450.409 167.671 448.625 160.707C448.615 160.663 448.594 160.622 448.566 160.587C448.537 160.552 448.502 160.523 448.461 160.504L444.432 158.616L441.884 157.423L441.746 157.358C441.675 157.326 441.595 157.322 441.521 157.348C441.498 157.356 441.476 157.367 441.456 157.38C441.442 157.385 441.428 157.391 441.415 157.398V157.398ZM442.024 158.151L448.073 160.993C449.697 167.527 447.093 172.563 439.668 177.276L430.94 167.444C432.992 166.51 442.219 162.061 442.022 158.151H442.024Z" fill="#1A1A1A"></path><path d="M417.947 178.255L429.884 167.419C423.444 164.446 421.69 158.864 421.359 157.581L416.579 157.92C413.8 162.27 417.222 175.575 417.947 178.255Z" fill="white"></path><path d="M415.541 158.71C413.403 164.624 417.319 178.275 417.5 178.898C417.515 178.946 417.541 178.989 417.576 179.024C417.612 179.06 417.655 179.086 417.703 179.101C417.752 179.116 417.805 179.117 417.856 179.105C417.906 179.094 417.953 179.069 417.991 179.034L430.413 167.758L430.641 167.555C430.678 167.521 430.707 167.478 430.724 167.43C430.741 167.382 430.745 167.33 430.737 167.28C430.729 167.23 430.708 167.182 430.676 167.142C430.645 167.102 430.604 167.07 430.557 167.05L430.438 166.997C423.504 163.953 422.034 157.81 421.912 157.254C421.912 157.23 421.912 157.212 421.912 157.21C421.899 157.136 421.859 157.069 421.8 157.024C421.741 156.978 421.666 156.956 421.592 156.962L421.354 156.978L420.228 157.057L416.401 157.327C416.356 157.331 416.313 157.345 416.273 157.367C416.234 157.39 416.2 157.42 416.174 157.457C416.054 157.632 415.946 157.815 415.849 158.003C415.732 158.232 415.629 158.468 415.541 158.71V158.71ZM421.372 157.581C421.697 158.864 423.451 164.446 429.898 167.419L417.946 178.255C417.213 175.575 413.791 162.27 416.584 157.92L421.372 157.581Z" fill="#1A1A1A"></path><path d="M428.062 179.931H432.937L434.724 176.071L431.78 172.687H429.255L426.271 175.768L428.062 179.931Z" fill="black"></path><path d="M427.58 180.355C427.604 180.41 427.643 180.457 427.692 180.489C427.742 180.522 427.8 180.54 427.86 180.54H433.138C433.196 180.54 433.252 180.523 433.301 180.492C433.35 180.46 433.389 180.416 433.414 180.363L435.364 176.147C435.389 176.094 435.398 176.035 435.39 175.976C435.381 175.918 435.356 175.863 435.318 175.819L432.155 172.193C432.127 172.161 432.091 172.134 432.052 172.116C432.012 172.098 431.969 172.088 431.926 172.088H429.131C429.09 172.088 429.05 172.097 429.013 172.113C428.975 172.129 428.942 172.152 428.914 172.181L425.698 175.5C425.656 175.543 425.628 175.598 425.617 175.657C425.605 175.716 425.612 175.777 425.635 175.833L427.58 180.355ZM431.78 172.687L434.723 176.07L432.937 179.927H428.065L426.269 175.768L429.252 172.687H431.78Z" fill="black"></path><path d="M428.213 182.964L417.587 233.993L427.99 252.133L440.666 233.971L432.817 182.964H428.213Z" fill="black"></path><path d="M433.078 182.355H427.965C427.895 182.355 427.827 182.38 427.773 182.424C427.719 182.468 427.681 182.53 427.667 182.599L416.968 233.983C416.952 234.056 416.964 234.131 417 234.196L427.701 252.852C427.727 252.897 427.763 252.934 427.807 252.961C427.85 252.988 427.9 253.004 427.951 253.006H427.965C428.014 253.006 428.063 252.994 428.106 252.972C428.15 252.949 428.187 252.916 428.215 252.876L441.234 234.218C441.279 234.155 441.297 234.076 441.285 233.999L433.369 182.613C433.358 182.543 433.323 182.479 433.27 182.432C433.217 182.385 433.149 182.357 433.078 182.355ZM427.99 252.133L417.587 233.993L428.213 182.964H432.817L440.666 233.971L427.99 252.133Z" fill="black"></path><path d="M380.336 271.516H319.866V275.114H380.336V271.516Z" fill="#FD5B5B"></path><path d="M471.221 268.213H410.751V271.812H471.221V268.213Z" fill="#FD5B5B"></path><path d="M308.607 272.441H284.509V276.04H308.607V272.441Z" fill="#FD5B5B"></path><path d="M421.825 275.472H397.728V279.071H421.825V275.472Z" fill="#FD5B5B"></path><path d="M237.14 275.256H212.257V277.272H237.14V275.256Z" fill="#FD5B5B"></path><path d="M281.487 270.014H256.604V272.029H281.487V270.014Z" fill="#FD5B5B"></path><path d="M333.491 282.958H308.607V284.973H333.491V282.958Z" fill="#FD5B5B"></path><path d="M185.303 207.938H160.42V209.954H185.303V207.938Z" fill="#FD5B5B"></path><path d="M494.199 129.517H488.227V123.547H482.257V117.58H476.288L474.54 119.615H480.51V125.585H486.481V131.553H492.451V137.522H498.421V143.492L500.168 141.454V135.486H494.199V129.517Z" fill="#FD5B5B"></path><path d="M201.655 159.29C201.628 159.335 201.59 159.372 201.545 159.397C201.499 159.423 201.448 159.436 201.396 159.436H184.236L182.287 163.246H208.254L195.278 137.89L193.065 142.193L201.668 159C201.689 159.045 201.7 159.096 201.698 159.146C201.695 159.197 201.681 159.246 201.655 159.29V159.29Z" fill="#FD5B5B"></path><path d="M200.898 158.827L192.722 142.861L184.548 158.827H200.898Z" fill="#FD5B5B"></path><path d="M473.746 107.705H479.411V113.37C479.411 113.451 479.443 113.528 479.5 113.585C479.557 113.642 479.635 113.674 479.716 113.674H485.381V119.339C485.381 119.42 485.413 119.498 485.47 119.555C485.527 119.612 485.604 119.644 485.685 119.644H491.352V125.305C491.352 125.386 491.384 125.463 491.442 125.52C491.499 125.577 491.576 125.61 491.657 125.61H497.322V131.275C497.322 131.355 497.354 131.433 497.411 131.49C497.468 131.547 497.546 131.579 497.626 131.579C497.707 131.579 497.785 131.547 497.842 131.49C497.899 131.433 497.931 131.355 497.931 131.275V125.305C497.931 125.224 497.899 125.147 497.842 125.09C497.785 125.033 497.707 125.001 497.626 125.001H491.961V119.337C491.961 119.257 491.929 119.179 491.872 119.122C491.815 119.065 491.738 119.033 491.657 119.033H485.99V113.37C485.99 113.289 485.958 113.212 485.9 113.155C485.843 113.097 485.766 113.065 485.685 113.065H480.02V107.4C480.02 107.319 479.988 107.242 479.931 107.185C479.874 107.128 479.796 107.096 479.716 107.096H473.746C473.665 107.096 473.588 107.128 473.531 107.185C473.473 107.242 473.441 107.319 473.441 107.4C473.441 107.481 473.473 107.558 473.531 107.615C473.588 107.673 473.665 107.705 473.746 107.705V107.705Z" fill="black"></path><path d="M175.426 159.436H201.395C201.448 159.436 201.499 159.423 201.545 159.397C201.59 159.372 201.628 159.335 201.655 159.29C201.682 159.245 201.697 159.195 201.7 159.142C201.702 159.09 201.691 159.038 201.667 158.992L193.065 142.193L188.683 133.627C188.657 133.578 188.618 133.536 188.57 133.507C188.522 133.478 188.467 133.463 188.411 133.463C188.355 133.463 188.3 133.478 188.252 133.507C188.205 133.536 188.166 133.578 188.141 133.627L175.156 159C175.132 159.046 175.12 159.098 175.122 159.15C175.124 159.202 175.139 159.253 175.166 159.298C175.193 159.343 175.232 159.379 175.277 159.405C175.323 159.431 175.374 159.444 175.426 159.444V159.436ZM188.417 134.439L192.728 142.861L200.904 158.827H175.938L188.417 134.439Z" fill="black"></path><path d="M163.742 212.254C163.661 212.254 163.584 212.286 163.527 212.343C163.47 212.4 163.438 212.478 163.438 212.558C163.438 212.639 163.47 212.717 163.527 212.774C163.584 212.831 163.661 212.863 163.742 212.863H184.866C184.947 212.863 185.024 212.831 185.081 212.774C185.138 212.717 185.171 212.639 185.171 212.558C185.171 212.478 185.138 212.4 185.081 212.343C185.024 212.286 184.947 212.254 184.866 212.254H163.742Z" fill="black"></path><path d="M159.756 236.406C157.92 236.985 156.316 238.135 155.178 239.687C154.04 241.24 153.426 243.115 153.426 245.04C153.426 246.965 154.04 248.84 155.178 250.393C156.316 251.945 157.92 253.095 159.756 253.674C161.806 253.341 163.672 252.29 165.018 250.708C166.364 249.126 167.103 247.117 167.103 245.04C167.103 242.963 166.364 240.954 165.018 239.372C163.672 237.79 161.806 236.739 159.756 236.406V236.406Z" fill="#FD5B5B"></path><path d="M171.539 245.041C171.539 242.64 170.585 240.337 168.887 238.639C167.19 236.942 164.887 235.988 162.486 235.988C162.021 235.988 161.557 236.023 161.098 236.093C163.014 236.679 164.691 237.865 165.882 239.475C167.074 241.086 167.717 243.036 167.717 245.04C167.717 247.043 167.074 248.994 165.882 250.604C164.691 252.215 163.014 253.4 161.098 253.986C161.557 254.056 162.021 254.092 162.486 254.092C163.675 254.092 164.852 253.858 165.95 253.403C167.049 252.948 168.047 252.282 168.887 251.441C169.728 250.601 170.395 249.603 170.85 248.505C171.305 247.407 171.539 246.229 171.539 245.041V245.041Z" fill="#FD5B5B"></path><path d="M167.715 245.041C167.713 243.072 167.091 241.154 165.936 239.559C164.781 237.964 163.153 236.774 161.282 236.159C159.412 235.543 157.395 235.534 155.519 236.131C153.642 236.728 152.002 237.902 150.832 239.486C149.662 241.069 149.021 242.982 149.001 244.95C148.98 246.919 149.581 248.845 150.719 250.452C151.856 252.059 153.471 253.267 155.335 253.903C157.198 254.539 159.215 254.571 161.098 253.994C163.013 253.405 164.688 252.218 165.879 250.606C167.07 248.995 167.713 247.045 167.715 245.041V245.041ZM159.756 253.674C159.291 253.749 158.822 253.787 158.351 253.787C157.191 253.805 156.039 253.592 154.963 253.16C153.886 252.729 152.906 252.087 152.079 251.273C151.253 250.459 150.596 249.489 150.148 248.419C149.7 247.349 149.47 246.2 149.47 245.04C149.47 243.88 149.7 242.731 150.148 241.661C150.596 240.591 151.253 239.621 152.079 238.807C152.906 237.993 153.886 237.351 154.963 236.92C156.039 236.488 157.191 236.275 158.351 236.293C158.822 236.293 159.291 236.331 159.756 236.406C161.806 236.739 163.671 237.79 165.018 239.372C166.364 240.954 167.103 242.963 167.103 245.04C167.103 247.117 166.364 249.127 165.018 250.708C163.671 252.29 161.806 253.341 159.756 253.674V253.674Z" fill="black"></path><path d="M464.656 219.6C464.617 219.531 464.553 219.479 464.478 219.456C464.402 219.433 464.32 219.44 464.25 219.476C464.181 219.515 464.129 219.578 464.107 219.654C464.084 219.73 464.092 219.812 464.128 219.882C464.169 219.961 468.378 227.885 471.07 242.616V242.593C471.061 242.513 471.085 242.432 471.136 242.369C471.187 242.305 471.261 242.265 471.342 242.256C471.423 242.248 471.503 242.272 471.567 242.323C471.63 242.374 471.67 242.448 471.679 242.528C471.959 244.052 472.211 245.598 472.436 247.166C472.209 245.601 471.956 244.055 471.679 242.528C468.955 227.684 464.698 219.679 464.656 219.6Z" fill="black"></path><path d="M472.533 247.936C472.513 247.8 472.497 247.662 472.479 247.53C472.497 247.662 472.513 247.8 472.533 247.936Z" fill="black"></path><path d="M473.739 263.492L473.712 263.517L473.739 263.492Z" fill="black"></path><path d="M473.783 263.445C473.775 263.457 473.766 263.468 473.756 263.479C473.766 263.468 473.775 263.457 473.783 263.445V263.445Z" fill="black"></path><path d="M473.688 263.535L473.658 263.552L473.688 263.535Z" fill="black"></path><path d="M473.792 263.43C473.825 263.378 473.842 263.318 473.839 263.256C473.841 263.318 473.825 263.378 473.792 263.43V263.43Z" fill="black"></path><path d="M473.22 262.962C473.037 257.594 472.555 252.241 471.777 246.927C471.86 253.828 471.495 259.093 470.669 262.962H473.22Z" fill="black"></path><path d="M473.563 263.569C473.574 263.57 473.585 263.57 473.596 263.569H473.626L473.652 263.559L473.681 263.543L473.705 263.531L473.732 263.506L473.748 263.494C473.757 263.484 473.766 263.473 473.774 263.462C473.774 263.462 473.774 263.462 473.784 263.445C473.817 263.394 473.833 263.334 473.831 263.273C473.831 263.175 473.831 263.07 473.819 262.978C473.645 257.953 473.214 252.939 472.526 247.958C472.506 247.822 472.489 247.684 472.471 247.552C472.453 247.42 472.433 247.312 472.414 247.191C472.187 245.625 471.935 244.079 471.657 242.553C471.649 242.472 471.608 242.398 471.545 242.347C471.482 242.296 471.401 242.272 471.32 242.281C471.24 242.289 471.165 242.329 471.114 242.393C471.063 242.456 471.04 242.537 471.048 242.617V242.64C471.367 251.731 471.034 258.391 470.033 262.989C470.015 263.068 469.999 263.149 469.981 263.226C469.971 263.271 469.971 263.317 469.982 263.361C469.992 263.406 470.013 263.447 470.041 263.483C470.07 263.519 470.106 263.547 470.147 263.567C470.188 263.587 470.233 263.597 470.279 263.597H473.563V263.569ZM471.771 246.925C472.549 252.239 473.031 257.592 473.214 262.96H470.663C471.495 259.093 471.86 253.818 471.777 246.927L471.771 246.925Z" fill="black"></path><path d="M331.854 155.655C331.892 155.637 331.925 155.611 331.953 155.58C331.98 155.549 332.001 155.512 332.013 155.473C332.026 155.433 332.03 155.391 332.026 155.35C332.022 155.309 332.01 155.269 331.99 155.232C331.97 155.196 331.942 155.164 331.909 155.139C331.876 155.113 331.839 155.095 331.799 155.085C331.758 155.074 331.716 155.072 331.675 155.079C331.634 155.086 331.595 155.1 331.56 155.123C331.544 155.123 329.936 156.014 326.729 156.966H326.709C326.642 156.99 326.585 157.038 326.55 157.1C326.514 157.162 326.502 157.234 326.515 157.305C326.528 157.375 326.565 157.438 326.62 157.484C326.675 157.529 326.745 157.553 326.816 157.552C326.845 157.552 326.874 157.548 326.902 157.54L327.105 157.477C330.241 156.537 331.789 155.691 331.854 155.655Z" fill="black"></path><path d="M258.098 156.674C251.673 158.614 242.964 173.168 241.474 175.728L253.685 177.621C257.389 172.496 261.601 162.976 261.116 159.398C261.027 158.728 260.397 158.357 259.669 157.926C259.086 157.579 258.487 157.228 258.098 156.674Z" fill="white"></path><path d="M255.899 157.029C249.176 161.107 241.467 174.5 240.763 175.74C240.86 175.924 240.919 176.028 240.925 176.04C240.959 176.106 240.967 176.182 240.947 176.253L241.061 176.272L253.77 178.245H253.816C253.864 178.245 253.912 178.233 253.954 178.211C253.997 178.189 254.034 178.158 254.062 178.119C257.287 173.72 261.613 164.773 261.755 160.244C261.755 160.021 261.751 159.808 261.743 159.605C261.743 159.503 261.728 159.402 261.716 159.304C261.586 158.342 260.766 157.857 259.973 157.39C259.392 157.047 258.791 156.692 258.497 156.16C258.464 156.101 258.413 156.054 258.351 156.027C258.289 156.001 258.22 155.995 258.154 156.012C257.573 156.171 257.012 156.396 256.481 156.682C256.291 156.798 256.096 156.909 255.899 157.029ZM261.115 159.406C261.599 162.984 257.389 172.504 253.684 177.629L241.473 175.736C242.963 173.176 251.673 158.622 258.097 156.682C258.487 157.236 259.086 157.591 259.668 157.934C260.397 158.357 261.026 158.728 261.115 159.406Z" fill="#1A1A1A"></path><path d="M227.593 178.34C232.465 175.802 238.335 175.79 240.133 175.855C238.916 173.563 234.044 163.843 235.252 157.368L231.377 157.977C230.78 159.182 226.509 168.292 227.593 178.34Z" fill="white"></path><path d="M230.363 158.72C229.057 161.692 225.942 169.949 227.04 178.858C227.046 178.907 227.064 178.954 227.093 178.995C227.122 179.036 227.16 179.069 227.204 179.091C227.248 179.114 227.297 179.127 227.347 179.127C227.397 179.127 227.446 179.114 227.49 179.091C231.926 176.629 237.357 176.424 239.594 176.452C240.238 176.452 240.609 176.491 240.633 176.493C240.688 176.497 240.744 176.487 240.793 176.463C240.843 176.438 240.885 176.401 240.916 176.355C240.932 176.323 240.943 176.289 240.948 176.253C240.969 176.179 240.959 176.1 240.922 176.032C240.922 176.02 240.857 175.917 240.759 175.732C239.858 174.033 235.482 165.453 235.685 159.124C235.699 158.494 235.771 157.867 235.898 157.251C235.912 157.188 235.924 157.125 235.938 157.062C235.952 157.013 235.952 156.961 235.938 156.912C235.927 156.864 235.903 156.821 235.869 156.786C235.836 156.749 235.793 156.721 235.746 156.705C235.699 156.688 235.649 156.683 235.599 156.69L235.346 156.731L231.136 157.384C231.089 157.392 231.044 157.411 231.006 157.439C230.967 157.466 230.935 157.503 230.913 157.545C230.913 157.557 230.819 157.728 230.673 158.038C230.584 158.225 230.48 158.452 230.363 158.72ZM235.252 157.376C234.047 163.843 238.918 173.564 240.136 175.848C238.338 175.783 232.472 175.795 227.596 178.332C226.512 168.285 230.783 159.175 231.38 157.963L235.252 157.376Z" fill="#1A1A1A"></path></svg>