<svg xmlns="http://www.w3.org/2000/svg" width="48" height="48" viewBox="0 0 48 48" fill="none"><rect width="48" height="48" fill="white"></rect><g clip-path="url(#clip0)"><path d="M11.4701 14.8001C10.1201 14.1401 8.4701 14.4301 7.6701 15.8001C6.9601 17.0201 7.3101 18.9401 8.6701 19.6001C10.4301 20.4501 12.0401 21.5001 13.2801 22.6001C14.0201 23.2501 14.7201 23.9501 15.3801 24.6901C16.1501 25.5601 16.4001 25.8901 17.0301 26.8301C17.5801 27.6501 18.0801 28.5101 18.5201 29.4001C19.0101 30.3801 19.1401 30.6901 19.5001 31.7401C20.1801 33.7301 20.5101 35.4801 20.6101 37.2401C20.6901 38.7401 21.8301 40.0201 23.3901 40.0201C24.8301 40.0201 26.2501 38.7501 26.1701 37.2401C25.6501 27.8401 19.9901 18.9501 11.4701 14.8001Z" fill="#FE8B8B"></path><path d="M35.0897 14.46C31.4297 10.13 26.0797 7.61996 20.4997 7.00996C19.0097 6.84996 17.7197 8.39996 17.7197 9.78996C17.7197 11.43 18.9997 12.4 20.4997 12.57C22.2397 12.76 24.5097 13.47 26.1897 14.37C28.1797 15.44 29.6797 16.65 31.1597 18.39C34.0197 21.75 35.1497 26.25 34.7497 30.62C34.6097 32.12 36.1197 33.4 37.5297 33.4C39.1497 33.4 40.1697 32.12 40.3097 30.62C40.8497 24.78 38.8697 18.92 35.0897 14.46Z" fill="#FE8B8B"></path><path d="M33.6309 32.2012L32.7151 31.7994L32.7132 31.8038L33.6309 32.2012ZM31.5566 35.0488L32.2008 35.8138L32.2066 35.8088L31.5566 35.0488ZM28.3574 36.7363L28.6406 37.6954L28.6464 37.6937L28.3574 36.7363ZM18.127 35.7695L17.6996 36.6736L17.7058 36.6765L18.127 35.7695ZM16.3164 34.7852L15.3208 34.691C15.2852 35.0679 15.4654 35.4325 15.7864 35.6332L16.3164 34.7852ZM16.9844 27.7188L17.5491 26.8934C17.2568 26.6935 16.8806 26.663 16.56 26.8133C16.2394 26.9635 16.0221 27.2721 15.9888 27.6246L16.9844 27.7188ZM18.4785 28.5977L18.0237 29.4883C18.0288 29.4908 18.0339 29.4934 18.039 29.4959L18.4785 28.5977ZM20.1836 29.3359L19.8284 30.2707C19.8358 30.2735 19.8433 30.2763 19.8508 30.2789L20.1836 29.3359ZM21.9766 29.8457L21.7657 30.8232L21.7696 30.8241L21.9766 29.8457ZM24.7363 29.9688L24.873 30.9594C24.8822 30.9581 24.8915 30.9567 24.9007 30.9551L24.7363 29.9688ZM26.3711 29.0723L25.5624 28.4841C25.5564 28.4923 25.5506 28.5006 25.5449 28.5089L26.3711 29.0723ZM25.457 26.7871L25.0098 27.6815C25.0185 27.6859 25.0272 27.6901 25.0359 27.6941L25.457 26.7871ZM24.4375 26.418L24.1798 27.3842C24.1899 27.3869 24.2001 27.3894 24.2103 27.3918L24.4375 26.418ZM22.9609 26.3125L23.0135 27.3111C23.0292 27.3103 23.0448 27.3091 23.0604 27.3075L22.9609 26.3125ZM21.5898 26.541L21.8575 27.5045C21.8687 27.5014 21.8799 27.4981 21.891 27.4946L21.5898 26.541ZM21.0977 26.7695L20.0979 26.7486C20.0897 27.1367 20.3069 27.4944 20.655 27.6662C21.0031 27.8381 21.4192 27.7929 21.7224 27.5504L21.0977 26.7695ZM21.2031 21.7422L21.32 20.749C21.04 20.7161 20.7591 20.8029 20.5465 20.988C20.3339 21.1731 20.2093 21.4394 20.2033 21.7212L21.2031 21.7422ZM23.6641 21.707L23.8089 22.6965C23.8167 22.6953 23.8245 22.6941 23.8324 22.6928L23.6641 21.707ZM25 21.3027L25.4158 22.2122C25.4228 22.209 25.4299 22.2056 25.4369 22.2022L25 21.3027ZM26.0195 20.4941L25.2491 19.8566C25.2447 19.8619 25.2403 19.8673 25.236 19.8727L26.0195 20.4941ZM26.125 18.2441L25.3657 18.8949C25.371 18.9011 25.3763 18.9071 25.3817 18.9131L26.125 18.2441ZM25.334 17.6816L24.9443 18.6027L24.9567 18.6077L25.334 17.6816ZM20.5352 17.8398L20.2011 16.8973L20.1973 16.8986L20.5352 17.8398ZM18.1094 19.2812L17.135 19.5061C17.2146 19.8512 17.4708 20.1284 17.8085 20.2349C18.1462 20.3415 18.5151 20.2614 18.7783 20.0245L18.1094 19.2812ZM16.6328 12.8828L16.001 12.1077C15.7056 12.3485 15.5727 12.7363 15.6584 13.1077L16.6328 12.8828ZM20.3066 10.8789L20.6229 11.8276L20.6277 11.826L20.3066 10.8789ZM28.1289 10.7383L27.8213 11.6899L27.8328 11.6934L28.1289 10.7383ZM31.2227 12.373L30.5905 13.1479L30.5967 13.1529L31.2227 12.373ZM32.7871 22.1816L33.5598 22.8164C33.5635 22.812 33.5671 22.8075 33.5706 22.803L32.7871 22.1816ZM31.9258 23.043L31.2974 22.265C31.0274 22.4831 30.8898 22.8256 30.9339 23.1699C30.9779 23.5142 31.1974 23.811 31.5136 23.9541L31.9258 23.043ZM34.2812 26.6465L33.2904 26.7816L33.2908 26.7847L34.2812 26.6465ZM33.3867 28.1406C33.3867 29.5935 33.1517 30.8044 32.7151 31.7994L34.5466 32.603C35.1178 31.3011 35.3867 29.8049 35.3867 28.1406H33.3867ZM32.7132 31.8038C32.2779 32.809 31.6751 33.6317 30.9067 34.2889L32.2066 35.8088C33.2195 34.9425 33.9994 33.8667 34.5485 32.5985L32.7132 31.8038ZM30.9125 34.2839C30.1372 34.9368 29.1953 35.4388 28.0684 35.779L28.6464 37.6937C30.0039 37.2838 31.1948 36.6609 32.2008 35.8137L30.9125 34.2839ZM28.0743 35.7773C26.9484 36.1097 25.6917 36.2812 24.2969 36.2812V38.2812C25.8552 38.2812 27.3055 38.0896 28.6406 37.6954L28.0743 35.7773ZM24.2969 36.2812C23.6934 36.2812 23.0683 36.223 22.4206 36.1043L22.0599 38.0715C22.8184 38.2106 23.5644 38.2812 24.2969 38.2812V36.2812ZM22.4206 36.1043C21.7608 35.9833 21.1057 35.8182 20.455 35.6087L19.8419 37.5124C20.574 37.7482 21.3134 37.9346 22.0599 38.0715L22.4206 36.1043ZM20.455 35.6087C19.8025 35.3986 19.1669 35.1499 18.5481 34.8625L17.7058 36.6765C18.3995 36.9986 19.1116 37.2772 19.8419 37.5124L20.455 35.6087ZM18.5543 34.8655C17.9425 34.5762 17.3735 34.2666 16.8464 33.9372L15.7864 35.6332C16.3843 36.0069 17.0224 36.3535 17.6996 36.6736L18.5543 34.8655ZM17.312 34.8793L17.9799 27.8129L15.9888 27.6246L15.3208 34.691L17.312 34.8793ZM16.4197 28.5441C16.9049 28.876 17.4403 29.1904 18.0237 29.4883L18.9333 27.7071C18.4151 27.4425 17.9545 27.1709 17.5491 26.8934L16.4197 28.5441ZM18.039 29.4959C18.6179 29.7792 19.2144 30.0374 19.8284 30.2707L20.5388 28.4012C19.9809 28.1891 19.4407 27.9552 18.9181 27.6994L18.039 29.4959ZM19.8508 30.2789C20.4869 30.5034 21.1252 30.6851 21.7657 30.8232L22.1874 28.8682C21.6326 28.7485 21.0756 28.5903 20.5164 28.3929L19.8508 30.2789ZM21.7696 30.8241C22.4399 30.9658 23.0954 31.0391 23.7344 31.0391V29.0391C23.2484 29.0391 22.732 28.9834 22.1835 28.8674L21.7696 30.8241ZM23.7344 31.0391C24.1102 31.0391 24.4899 31.0122 24.873 30.9594L24.5997 28.9781C24.3031 29.019 24.0148 29.0391 23.7344 29.0391V31.0391ZM24.9007 30.9551C25.3377 30.8823 25.7514 30.755 26.1328 30.5643L25.2383 28.7755C25.0572 28.866 24.8381 28.938 24.5719 28.9824L24.9007 30.9551ZM26.1328 30.5643C26.5653 30.3481 26.9247 30.0354 27.1973 29.6356L25.5449 28.5089C25.4659 28.6247 25.3683 28.7105 25.2383 28.7755L26.1328 30.5643ZM27.1798 29.6604C27.5231 29.1884 27.6523 28.6311 27.6523 28.0703H25.6523C25.6523 28.3298 25.5941 28.4405 25.5624 28.4841L27.1798 29.6604ZM27.6523 28.0703C27.6523 27.4722 27.369 26.9851 26.9895 26.6246L25.612 28.0746C25.6603 28.1204 25.6691 28.1422 25.6657 28.1352C25.6639 28.1314 25.6601 28.1226 25.657 28.1093C25.6538 28.0959 25.6523 28.0824 25.6523 28.0703H27.6523ZM26.9895 26.6246C26.6676 26.3188 26.2932 26.0728 25.8781 25.8801L25.0359 27.6941C25.2771 27.8061 25.4652 27.9351 25.612 28.0746L26.9895 26.6246ZM25.9042 25.8927C25.5073 25.6942 25.0937 25.5442 24.6647 25.4441L24.2103 27.3918C24.4844 27.4558 24.7505 27.5519 25.0098 27.6815L25.9042 25.8927ZM24.6952 25.4517C24.3004 25.3465 23.914 25.2773 23.5586 25.2773V27.2773C23.672 27.2773 23.8715 27.302 24.1798 27.3842L24.6952 25.4517ZM23.5586 25.2773C23.3505 25.2773 23.116 25.292 22.8614 25.3175L23.0604 27.3075C23.2747 27.2861 23.4386 27.2773 23.5586 27.2773V25.2773ZM22.9084 25.3139C22.6517 25.3274 22.3912 25.3543 22.1271 25.3939L22.4237 27.3717C22.6283 27.3411 22.8248 27.321 23.0135 27.3111L22.9084 25.3139ZM22.1271 25.3939C21.8417 25.4367 21.562 25.5011 21.2887 25.5874L21.891 27.4946C22.063 27.4403 22.2404 27.3993 22.4237 27.3717L22.1271 25.3939ZM21.3222 25.5775C21.0358 25.657 20.7324 25.7811 20.473 25.9887L21.7224 27.5504C21.7072 27.5626 21.706 27.5601 21.7297 27.5491C21.7532 27.5382 21.7941 27.5221 21.8575 27.5045L21.3222 25.5775ZM22.0974 26.7905L22.2029 21.7632L20.2033 21.7212L20.0979 26.7486L22.0974 26.7905ZM21.0863 22.7353C21.3 22.7605 21.5044 22.7797 21.6991 22.7927L21.8321 20.7971C21.6753 20.7867 21.5047 20.7708 21.32 20.749L21.0863 22.7353ZM21.6991 22.7927C21.8997 22.8061 22.1095 22.8125 22.3281 22.8125V20.8125C22.1483 20.8125 21.9831 20.8072 21.8321 20.7971L21.6991 22.7927ZM22.3281 22.8125C22.7946 22.8125 23.2889 22.7726 23.8089 22.6965L23.5193 20.7176C23.0783 20.7821 22.682 20.8125 22.3281 20.8125V22.8125ZM23.8324 22.6928C24.3914 22.5973 24.9207 22.4385 25.4158 22.2122L24.5842 20.3933C24.259 20.5419 23.8976 20.6527 23.4958 20.7213L23.8324 22.6928ZM25.4369 22.2022C25.9749 21.9409 26.4355 21.5789 26.803 21.1155L25.236 19.8727C25.0645 20.089 24.8454 20.2661 24.5631 20.4032L25.4369 22.2022ZM26.7899 21.1317C27.2504 20.5752 27.4414 19.8941 27.4414 19.1758H25.4414C25.4414 19.5356 25.3511 19.7333 25.2491 19.8566L26.7899 21.1317ZM27.4414 19.1758C27.4414 18.6005 27.2799 18.0325 26.8683 17.5752L25.3817 18.9131C25.392 18.9246 25.4414 18.9776 25.4414 19.1758H27.4414ZM26.8843 17.5933C26.5641 17.2198 26.1669 16.9412 25.7113 16.7555L24.9567 18.6077C25.1339 18.6799 25.264 18.7763 25.3657 18.8949L26.8843 17.5933ZM25.7236 16.7607C25.3269 16.5928 24.9038 16.4835 24.46 16.4262L24.2041 18.4097C24.4868 18.4462 24.7317 18.5126 24.9443 18.6026L25.7236 16.7607ZM24.46 16.4262C24.0643 16.3751 23.6924 16.3477 23.3477 16.3477V18.3477C23.5888 18.3477 23.8732 18.3671 24.2041 18.4097L24.46 16.4262ZM23.3477 16.3477C22.2807 16.3477 21.2304 16.5325 20.2011 16.8973L20.8692 18.7824C21.6915 18.491 22.5162 18.3477 23.3477 18.3477V16.3477ZM20.1973 16.8986C19.1644 17.2694 18.2426 17.816 17.4404 18.538L18.7783 20.0245C19.3824 19.4809 20.0778 19.0665 20.873 18.781L20.1973 16.8986ZM19.0838 19.0564L17.6072 12.658L15.6584 13.1077L17.135 19.5061L19.0838 19.0564ZM17.2647 13.6579C18.2453 12.8585 19.3621 12.2479 20.6229 11.8276L19.9904 9.93022C18.509 10.424 17.1766 11.1494 16.001 12.1077L17.2647 13.6579ZM20.6277 11.826C21.912 11.3906 23.1924 11.1758 24.4727 11.1758V9.17578C22.9639 9.17578 21.4669 9.4297 19.9856 9.93184L20.6277 11.826ZM24.4727 11.1758C25.6506 11.1758 26.7652 11.3484 27.8213 11.6898L28.4365 9.78675C27.1723 9.37813 25.8494 9.17578 24.4727 9.17578V11.1758ZM27.8328 11.6934C28.8905 12.0213 29.8059 12.5078 30.5905 13.1479L31.8548 11.5982C30.8582 10.7852 29.7111 10.1818 28.425 9.78312L27.8328 11.6934ZM30.5967 13.1529C31.3712 13.7746 31.9902 14.5445 32.4552 15.4746L34.244 14.5801C33.6544 13.4008 32.8554 12.4012 31.8486 11.5932L30.5967 13.1529ZM32.4552 15.4746C32.9021 16.3683 33.1406 17.4293 33.1406 18.6836H35.1406C35.1406 17.1723 34.8518 15.7957 34.244 14.5801L32.4552 15.4746ZM33.1406 18.6836C33.1406 18.9828 33.0968 19.2947 33.0033 19.6218L34.9264 20.1712C35.0673 19.678 35.1406 19.1813 35.1406 18.6836H33.1406ZM33.0033 19.6218C32.9046 19.9674 32.7709 20.3045 32.6013 20.6338L34.3792 21.5498C34.608 21.1057 34.7907 20.6459 34.9264 20.1712L33.0033 19.6218ZM32.6013 20.6338C32.4317 20.963 32.2326 21.2715 32.0036 21.5602L33.5706 22.803C33.8806 22.4121 34.1503 21.9941 34.3792 21.5498L32.6013 20.6338ZM32.0144 21.5469C31.7844 21.8269 31.545 22.065 31.2974 22.265L32.5541 23.8209C32.9159 23.5287 33.2507 23.1927 33.5598 22.8164L32.0144 21.5469ZM31.5136 23.9541C31.8839 24.1216 32.1634 24.3343 32.3744 24.5843L33.903 23.2946C33.4811 22.7946 32.952 22.4096 32.3379 22.1319L31.5136 23.9541ZM32.3744 24.5843C32.6232 24.8792 32.8211 25.2056 32.9694 25.5671L34.8197 24.8079C34.593 24.2553 34.2869 23.7497 33.903 23.2946L32.3744 24.5843ZM32.9694 25.5671C33.123 25.9416 33.2309 26.3454 33.2904 26.7816L35.2721 26.5114C35.1909 25.9163 35.041 25.3474 34.8197 24.8079L32.9694 25.5671ZM33.2908 26.7847C33.355 27.2443 33.3867 27.6962 33.3867 28.1406H35.3867C35.3867 27.6007 35.3481 27.0564 35.2717 26.5083L33.2908 26.7847Z" fill="black"></path></g><defs><clipPath id="clip0"><rect width="36" height="33.01" fill="white" transform="translate(6 7)"></rect></clipPath></defs></svg>