<svg xmlns="http://www.w3.org/2000/svg" width="48" height="48" viewBox="0 0 48 48" fill="none"><rect width="48" height="48" fill="white"></rect><g clip-path="url(#clip0)"><path d="M11.4701 14.8001C10.1201 14.1401 8.4701 14.4301 7.6701 15.8001C6.9601 17.0201 7.3101 18.9401 8.6701 19.6001C10.4301 20.4501 12.0401 21.5001 13.2801 22.6001C14.0201 23.2501 14.7201 23.9501 15.3801 24.6901C16.1501 25.5601 16.4001 25.8901 17.0301 26.8301C17.5801 27.6501 18.0801 28.5101 18.5201 29.4001C19.0101 30.3801 19.1401 30.6901 19.5001 31.7401C20.1801 33.7301 20.5101 35.4801 20.6101 37.2401C20.6901 38.7401 21.8301 40.0201 23.3901 40.0201C24.8301 40.0201 26.2501 38.7501 26.1701 37.2401C25.6501 27.8401 19.9901 18.9501 11.4701 14.8001Z" fill="#FE8B8B"></path><path d="M35.0897 14.46C31.4297 10.13 26.0797 7.61996 20.4997 7.00996C19.0097 6.84996 17.7197 8.39996 17.7197 9.78996C17.7197 11.43 18.9997 12.4 20.4997 12.57C22.2397 12.76 24.5097 13.47 26.1897 14.37C28.1797 15.44 29.6797 16.65 31.1597 18.39C34.0197 21.75 35.1497 26.25 34.7497 30.62C34.6097 32.12 36.1197 33.4 37.5297 33.4C39.1497 33.4 40.1697 32.12 40.3097 30.62C40.8497 24.78 38.8697 18.92 35.0897 14.46Z" fill="#FE8B8B"></path><path d="M33.209 23.1309L34.1366 23.5045L34.1383 23.5001L33.209 23.1309ZM31.8555 25.5215L31.0555 24.9215L31.0539 24.9235L31.8555 25.5215ZM29.957 27.5781L30.6191 28.3276L30.6199 28.3269L29.957 27.5781ZM27.8125 29.2656L27.2426 28.4439C26.8833 28.6931 26.7276 29.1469 26.8581 29.5642C26.9887 29.9815 27.3752 30.2656 27.8125 30.2656V29.2656ZM33.3672 29.2656L34.3655 29.3232C34.3814 29.0485 34.2833 28.7793 34.0944 28.5792C33.9055 28.3791 33.6424 28.2656 33.3672 28.2656V29.2656ZM32.9453 36.5781L32.9111 37.5775C33.454 37.5961 33.9124 37.178 33.9437 36.6357L32.9453 36.5781ZM16.4922 36.0156H15.4922C15.4922 36.5546 15.9193 36.9966 16.458 37.015L16.4922 36.0156ZM16.4922 29.6172L16.1706 28.6703C15.765 28.8081 15.4922 29.1888 15.4922 29.6172H16.4922ZM18.4434 28.8613L18.8392 29.7797L18.8466 29.7764L18.4434 28.8613ZM20.4648 27.8242L19.9638 26.9588L19.9572 26.9627L20.4648 27.8242ZM22.3457 26.5234L21.7191 25.744L21.7116 25.7502L22.3457 26.5234ZM23.9102 24.959L23.1277 24.3362L23.1261 24.3383L23.9102 24.959ZM24.9824 23.0957L24.0551 22.7215C24.0532 22.7262 24.0513 22.7309 24.0495 22.7356L24.9824 23.0957ZM25.1406 19.7559L24.2281 20.1649C24.232 20.1735 24.236 20.1821 24.2401 20.1906L25.1406 19.7559ZM24.4902 18.9121L23.85 19.6803C23.8565 19.6857 23.863 19.691 23.8695 19.6962L24.4902 18.9121ZM23.5059 18.4023L23.1989 19.3541C23.2109 19.3579 23.223 19.3616 23.2351 19.365L23.5059 18.4023ZM21.2559 18.3496L21.4459 19.3314C21.456 19.3294 21.4661 19.3273 21.4761 19.3251L21.2559 18.3496ZM19.1816 19.1934L19.7289 20.0304L19.7363 20.0254L19.1816 19.1934ZM18.3555 19.8789L17.3798 20.0979C17.4605 20.4578 17.7328 20.7439 18.0881 20.8425C18.4434 20.9411 18.8242 20.8361 19.0788 20.5694L18.3555 19.8789ZM16.8086 12.9883L16.1015 12.2812C15.8592 12.5235 15.7578 12.873 15.8329 13.2073L16.8086 12.9883ZM20.0781 11.1953L20.3504 12.1575C20.356 12.1559 20.3616 12.1543 20.3671 12.1526L20.0781 11.1953ZM27.7422 11.4238L27.3537 12.3453L27.3614 12.3485L27.7422 11.4238ZM30.8535 13.4805L30.1463 14.1876L30.1559 14.1969L30.8535 13.4805ZM32.9453 16.5742L32.0238 16.9627L32.0271 16.9703L32.9453 16.5742ZM32.7188 20.4414C32.7188 21.2549 32.5719 22.0259 32.2796 22.7617L34.1383 23.5001C34.5257 22.5249 34.7188 21.5029 34.7188 20.4414H32.7188ZM32.2814 22.7572C31.975 23.5179 31.5674 24.2389 31.0555 24.9215L32.6555 26.1215C33.2686 25.304 33.7632 24.4314 34.1366 23.5045L32.2814 22.7572ZM31.0539 24.9235C30.5456 25.605 29.9596 26.2403 29.2942 26.8294L30.6199 28.3269C31.3841 27.6503 32.0638 26.9146 32.657 26.1194L31.0539 24.9235ZM29.295 26.8287C28.6194 27.4254 27.9352 27.9636 27.2426 28.4439L28.3824 30.0873C29.1429 29.5599 29.8884 28.973 30.6191 28.3276L29.295 26.8287ZM27.8125 30.2656H33.3672V28.2656H27.8125V30.2656ZM32.3688 29.208L31.947 36.5205L33.9437 36.6357L34.3655 29.3232L32.3688 29.208ZM32.9795 35.5787L16.5264 35.0162L16.458 37.015L32.9111 37.5775L32.9795 35.5787ZM17.4922 36.0156V29.6172H15.4922V36.0156H17.4922ZM16.8138 30.5641C17.4629 30.3436 18.1382 30.0818 18.8392 29.7797L18.0475 27.943C17.3892 28.2268 16.7636 28.4689 16.1706 28.6703L16.8138 30.5641ZM18.8466 29.7764C19.5741 29.4558 20.2828 29.0922 20.9725 28.6858L19.9572 26.9627C19.3344 27.3297 18.6954 27.6575 18.0401 27.9462L18.8466 29.7764ZM20.9659 28.6896C21.6797 28.2764 22.3513 27.8121 22.9798 27.2967L21.7116 25.7502C21.1682 26.1957 20.5859 26.5986 19.9638 26.9588L20.9659 28.6896ZM22.9723 27.3028C23.6242 26.7787 24.1994 26.2047 24.6942 25.5797L23.1261 24.3383C22.7303 24.8383 22.2625 25.3072 21.7191 25.7441L22.9723 27.3028ZM24.6926 25.5817C25.2112 24.9301 25.6201 24.2208 25.9153 23.4558L24.0495 22.7356C23.8291 23.3065 23.5232 23.8394 23.1277 24.3362L24.6926 25.5817ZM25.9098 23.4699C26.2307 22.6745 26.3867 21.8257 26.3867 20.9336H24.3867C24.3867 21.5883 24.2732 22.181 24.0551 22.7215L25.9098 23.4699ZM26.3867 20.9336C26.3867 20.3646 26.2815 19.8188 26.0412 19.3211L24.2401 20.1906C24.3279 20.3726 24.3867 20.6119 24.3867 20.9336H26.3867ZM26.0531 19.3468C25.8377 18.8661 25.5231 18.4543 25.1109 18.1281L23.8695 19.6962C24.0199 19.8152 24.1389 19.9659 24.2281 20.1649L26.0531 19.3468ZM25.1304 18.1439C24.7342 17.8137 24.2782 17.5808 23.7766 17.4397L23.2351 19.365C23.4835 19.4348 23.6837 19.5417 23.85 19.6803L25.1304 18.1439ZM23.8129 17.4506C23.3405 17.2983 22.8434 17.2266 22.3281 17.2266V19.2266C22.6566 19.2266 22.9446 19.272 23.1989 19.3541L23.8129 17.4506ZM22.3281 17.2266C21.8982 17.2266 21.4669 17.2768 21.0356 17.3742L21.4761 19.3251C21.7714 19.2584 22.0549 19.2266 22.3281 19.2266V17.2266ZM21.0658 17.3678C20.6391 17.4504 20.221 17.574 19.8122 17.7375L20.555 19.5945C20.8493 19.4768 21.146 19.3894 21.4459 19.3314L21.0658 17.3678ZM19.8122 17.7375C19.3961 17.904 19.0007 18.1121 18.6269 18.3613L19.7363 20.0254C19.9954 19.8527 20.268 19.7093 20.555 19.5945L19.8122 17.7375ZM18.6344 18.3564C18.267 18.5966 17.9322 18.874 17.6321 19.1884L19.0788 20.5694C19.2709 20.3682 19.4869 20.1885 19.7289 20.0303L18.6344 18.3564ZM19.3312 19.6599L17.7843 12.7692L15.8329 13.2073L17.3798 20.0979L19.3312 19.6599ZM17.5157 13.6954C17.8748 13.3363 18.2895 13.0329 18.7647 12.7854L17.8408 11.0115C17.191 11.35 16.6096 11.773 16.1015 12.2812L17.5157 13.6954ZM18.7647 12.7854C19.2656 12.5244 19.7938 12.3151 20.3504 12.1575L19.8058 10.2331C19.1203 10.4271 18.4648 10.6865 17.8408 11.0115L18.7647 12.7854ZM20.3671 12.1526C20.935 11.9812 21.5133 11.858 22.1028 11.783L21.8503 9.79902C21.1507 9.88805 20.4635 10.0344 19.7891 10.238L20.3671 12.1526ZM22.1028 11.783C22.7074 11.7061 23.298 11.668 23.875 11.668V9.66797C23.2098 9.66797 22.5348 9.7119 21.8503 9.79902L22.1028 11.783ZM23.875 11.668C25.1333 11.668 26.2893 11.8966 27.3537 12.3453L28.1306 10.5024C26.8044 9.94327 25.3823 9.66797 23.875 9.66797V11.668ZM27.3614 12.3485C28.4396 12.7925 29.3646 13.4058 30.1464 14.1876L31.5606 12.7734C30.5846 11.7974 29.4354 11.0396 28.1229 10.4992L27.3614 12.3485ZM30.1559 14.1969C30.9466 14.9668 31.5696 15.8851 32.0238 16.9627L33.8668 16.1858C33.3132 14.8727 32.5417 13.7285 31.5511 12.764L30.1559 14.1969ZM32.0271 16.9703C32.4855 18.0329 32.7188 19.1862 32.7188 20.4414H34.7188C34.7188 18.931 34.4364 17.5062 33.8635 16.1781L32.0271 16.9703Z" fill="black"></path></g><defs><clipPath id="clip0"><rect width="36" height="33.01" fill="white" transform="translate(6 7)"></rect></clipPath></defs></svg>