<svg xmlns="http://www.w3.org/2000/svg" xmlns:xlink="http://www.w3.org/1999/xlink" width="63" height="63" viewBox="0 0 63 63"><defs><linearGradient id="linear-gradient" x1="-0.056" y1="0.197" x2="1" y2="0.868" gradientUnits="objectBoundingBox"><stop offset="0" stop-color="#38ef7d"></stop><stop offset="1" stop-color="#11998e"></stop></linearGradient></defs><g id="Group_4672" data-name="Group 4672" transform="translate(-820 -1885)"><circle id="Ellipse_28" data-name="Ellipse 28" cx="31.5" cy="31.5" r="31.5" transform="translate(820 1885)" fill="#02131b"></circle><path id="man_2_" data-name="man (2)" d="M98.632,25.373a.562.562,0,0,0-.489-.1c-3.5.891-3.273.841-3.372.841a.564.564,0,0,1-.551-.445.578.578,0,0,1,.432-.67l1.962-.5a.564.564,0,0,0,.386-.75l-.125-.323a1.69,1.69,0,0,0-2.569-.758l-4.234,3.07a1.123,1.123,0,0,1-1.323,0l-4.234-3.07a1.69,1.69,0,0,0-2.569.757l-.125.323a.564.564,0,0,0,.386.75l1.962.5a.577.577,0,0,1,.432.67.564.564,0,0,1-.551.445c-.1,0,.128.051-3.372-.841a.562.562,0,0,0-.489.1A5.808,5.808,0,0,0,78,29.923v3.329a.564.564,0,0,0,.564.564h21.7a.564.564,0,0,0,.564-.564V29.923a5.808,5.808,0,0,0-2.192-4.55ZM87.845,28.691a8.237,8.237,0,0,1-2.279,3.568.564.564,0,1,1-.763-.83,7.111,7.111,0,0,0,1.968-3.08.564.564,0,0,1,1.074.342Zm5.793,3.716a.561.561,0,0,1-.381-.149,8.237,8.237,0,0,1-2.279-3.568.564.564,0,0,1,1.074-.342,7.11,7.11,0,0,0,1.968,3.08A.564.564,0,0,1,93.638,32.407Zm-2.5-8.839-1.648,1.2a.141.141,0,0,1-.165,0l-1.648-1.2a.141.141,0,0,1,.109-.252,8.708,8.708,0,0,0,3.244,0,.141.141,0,0,1,.109.252ZM98.71,8.659c0,4.545,0,4.223,0,4.3a.316.316,0,0,1-.632-.021v-2.7A5.072,5.072,0,0,0,93,5.159H85.817a5.078,5.078,0,0,0-5.072,5.072v2.7a.316.316,0,0,1-.632.021c0-.065-.006-4.3,0-4.368a9.378,9.378,0,0,1,1.105-3.4C83.456,1.18,87.99.208,89.326.006a.564.564,0,0,1,.486.162,10.666,10.666,0,0,0,4.754,2.776A6,6,0,0,1,98.71,8.659Zm-1.761,1.572v4.631a7.539,7.539,0,0,1-15.076.027V10.231a3.95,3.95,0,0,1,3.945-3.945H93a3.95,3.95,0,0,1,3.945,3.945Z" transform="translate(761.879 1899.501)" fill="url(#linear-gradient)"></path></g></svg>