<svg xmlns="http://www.w3.org/2000/svg" xmlns:xlink="http://www.w3.org/1999/xlink" id="Group_330" data-name="Group 330" width="84.688" height="86.443" viewBox="0 0 84.688 86.443"><defs><linearGradient id="linear-gradient" x1="-8.704" y1="-3.54" x2="4.528" y2="0.264" gradientUnits="objectBoundingBox"><stop offset="0" stop-color="#11998e"></stop><stop offset="1" stop-color="#38ef7d"></stop></linearGradient></defs><g id="screenplay"><path id="XMLID_1081_" d="M12.934,82.642,5.165,84.805l7.769,27.9Z" transform="translate(-5.165 -68.602)" fill="url(#linear-gradient)"></path><path id="XMLID_1084_" d="M115.182,483.167l1.213,4.355,15.641-4.355Z" transform="translate(-96.491 -401.08)" fill="url(#linear-gradient)"></path><path id="XMLID_1087_" d="M133.021,76.99l-16.46-16.46H94.1v-5.1h17.361l-5.61-5.61H94.1v-5.1h9.07l-2.454-5.61H94.1v-5.1h4.386l-1.463-3.345,7.646,3.345h24.66v5.1H115.788l5.61,5.61h7.934v5.1h-2.837l15.229,15.229V0H80.9V76.99ZM94.448,12.606h19.514v5.1H94.448Zm0,10.707h34.883v5.1H94.448Z" transform="translate(-68.029)" fill="url(#linear-gradient)"></path><path id="XMLID_1091_" d="M239.582,241.183l-5.532-2.42,2.42,5.532,33.148,33.148,3.112-3.112Z" transform="translate(-195.164 -198.198)" fill="url(#linear-gradient)"></path><path id="XMLID_1092_" d="M467.728,469.33l-3.112,3.112,2.9,2.9a2.126,2.126,0,0,0,3,0l.109-.109a2.123,2.123,0,0,0,0-3Z" transform="translate(-386.558 -389.594)" fill="url(#linear-gradient)"></path></g></svg>