<svg width="25" height="25" viewBox="0 0 25 25" fill="none" xmlns="http://www.w3.org/2000/svg">
<path d="M17.3306 2.35254H7.33057C4.56914 2.35254 2.33057 4.59112 2.33057 7.35254V17.3525C2.33057 20.114 4.56914 22.3525 7.33057 22.3525H17.3306C20.092 22.3525 22.3306 20.114 22.3306 17.3525V7.35254C22.3306 4.59112 20.092 2.35254 17.3306 2.35254Z" stroke="#FAFAFA" stroke-width="2" stroke-linecap="round" stroke-linejoin="round"/>
<path d="M16.3308 11.7226C16.4542 12.5548 16.312 13.4048 15.9245 14.1516C15.537 14.8984 14.9239 15.504 14.1724 15.8823C13.4209 16.2605 12.5692 16.3922 11.7385 16.2585C10.9079 16.1249 10.1405 15.7327 9.5456 15.1378C8.95068 14.5428 8.55849 13.7755 8.42483 12.9448C8.29116 12.1141 8.42283 11.2625 8.80109 10.511C9.17935 9.75945 9.78495 9.14634 10.5317 8.75884C11.2785 8.37134 12.1285 8.22918 12.9608 8.3526C13.8097 8.47848 14.5956 8.87406 15.2025 9.4809C15.8093 10.0877 16.2049 10.8737 16.3308 11.7226Z" stroke="#FAFAFA" stroke-width="2" stroke-linecap="round" stroke-linejoin="round"/>
<path d="M17.8306 6.85254H17.8406" stroke="#FAFAFA" stroke-width="2" stroke-linecap="round" stroke-linejoin="round"/>
</svg>
