<svg xmlns="http://www.w3.org/2000/svg" width="24" height="24" viewBox="0 0 24 24" fill="none"><g clip-path="url(#clip0_1579_2350)"><path d="M20.25 10.1665C20.25 16.5832 12 22.0832 12 22.0832C12 22.0832 3.75 16.5832 3.75 10.1665C3.75 7.97847 4.61919 5.88005 6.16637 4.33287C7.71354 2.7857 9.81196 1.9165 12 1.9165C14.188 1.9165 16.2865 2.7857 17.8336 4.33287C19.3808 5.88005 20.25 7.97847 20.25 10.1665Z" stroke="#EF4F4F" stroke-width="2" stroke-linecap="round" stroke-linejoin="round"></path><path d="M12 12.9165C13.5188 12.9165 14.75 11.6853 14.75 10.1665C14.75 8.64772 13.5188 7.4165 12 7.4165C10.4812 7.4165 9.25 8.64772 9.25 10.1665C9.25 11.6853 10.4812 12.9165 12 12.9165Z" stroke="#EF4F4F" stroke-width="2" stroke-linecap="round" stroke-linejoin="round"></path></g><defs><clipPath id="clip0_1579_2350"><rect width="22" height="22" fill="white" transform="translate(1 1)"></rect></clipPath></defs></svg>