<svg xmlns="http://www.w3.org/2000/svg" width="122" height="44" viewBox="0 0 122 44" fill="none"><path d="M121 1L106.946 5.86488L111.27 8.56759M121 1L111.27 8.56759M121 1L117.757 13.4325L113.433 10.6697M121 1L113.433 10.6697M111.27 8.56759V13.4325L113.433 10.6697" stroke="#EF4F4F" stroke-width="1.07695" stroke-linecap="round" stroke-linejoin="round"></path><path d="M99.9192 36.6754V13.9727H104.784V36.6754H99.9192Z" fill="#EF4F4F" stroke="#EF4F4F" stroke-width="1.07695" stroke-linecap="round" stroke-linejoin="round"></path><path d="M16.6757 17.7563C16.6757 17.7563 16.6757 28.628 16.6757 35.5942M16.6757 17.7563L31.2704 24.7833L27.4866 38.2969M16.6757 17.7563L7.69441 22.0806M16.6757 35.5942C13.973 36.1348 14.5904 39.5274 12.3514 39.3781C10.2663 39.2391 10.6527 35.7332 8.56759 35.5942C6.32856 35.4449 6.46424 39.6986 4.24325 39.3781C2.31698 39.1001 1 35.5942 1 35.5942M16.6757 35.5942C18.8379 36.1348 18.3698 39.3781 20.4595 39.3781C22.5493 39.3781 22.1582 35.7333 24.2433 35.5943C26.4823 35.445 26.3287 39.5274 28.5677 39.3781C30.6528 39.2391 32.3515 35.5943 32.3515 35.5943M5.32434 38.2969L2.08108 24.7833L7.69441 22.0806M7.69441 22.0806V14.513C7.69441 14.513 12.7331 12.4178 16.1352 12.3508C19.8211 12.2783 25.3244 14.513 25.3244 14.513V21.5401" stroke="#EF4F4F" stroke-width="1.07695" stroke-linecap="round" stroke-linejoin="round"></path><path d="M43.1613 15.0537H37.2153V37.216H43.1613V28.0267H44.7829L50.7289 37.216H57.2154L49.1073 25.8646L57.2154 15.0537H50.7289L43.1613 25.324V15.0537Z" fill="#EF4F4F" stroke="#EF4F4F" stroke-width="1.07695" stroke-linecap="round" stroke-linejoin="round"></path><path d="M76.1529 31.2211H65.3203C65.3904 32.378 65.8286 33.2632 66.6349 33.8766C67.45 34.4901 68.6463 34.7969 70.2239 34.7969C71.223 34.7969 72.1914 34.6172 73.1292 34.2579C74.067 33.8986 74.8076 33.5129 75.3509 33.101H75.8768V36.9003C74.8076 37.3297 73.7997 37.6409 72.8531 37.8337C71.9066 38.0265 70.8593 38.1229 69.7112 38.1229C66.7489 38.1229 64.4789 37.4568 62.9014 36.1247C61.3238 34.7925 60.535 32.8951 60.535 30.4323C60.535 27.9959 61.28 26.0677 62.7699 24.6479C64.2686 23.2194 66.3194 22.5051 68.9224 22.5051C71.3238 22.5051 73.1292 23.1142 74.3387 24.3324C75.5481 25.5419 76.1529 27.286 76.1529 29.5647V31.2211ZM71.4465 28.4472C71.4202 27.4569 71.1748 26.7119 70.7103 26.2123C70.2458 25.7128 69.5227 25.463 68.5412 25.463C67.6297 25.463 66.8803 25.6996 66.2931 26.1729C65.7059 26.6462 65.3773 27.4043 65.3072 28.4472H71.4465Z" fill="#EF4F4F"></path><path d="M94.531 31.2211H83.6985C83.7686 32.378 84.2068 33.2632 85.0131 33.8766C85.8282 34.4901 87.0245 34.7969 88.6021 34.7969C89.6012 34.7969 90.5696 34.6172 91.5074 34.2579C92.4452 33.8986 93.1857 33.5129 93.7291 33.101H94.255V36.9003C93.1857 37.3297 92.1779 37.6409 91.2313 37.8337C90.2848 38.0265 89.2375 38.1229 88.0894 38.1229C85.127 38.1229 82.8571 37.4568 81.2796 36.1247C79.702 34.7925 78.9132 32.8951 78.9132 30.4323C78.9132 27.9959 79.6582 26.0677 81.1481 24.6479C82.6468 23.2194 84.6976 22.5051 87.3006 22.5051C89.702 22.5051 91.5074 23.1142 92.7169 24.3324C93.9263 25.5419 94.531 27.286 94.531 29.5647V31.2211ZM89.8247 28.4472C89.7984 27.4569 89.553 26.7119 89.0885 26.2123C88.624 25.7128 87.9009 25.463 86.9193 25.463C86.0079 25.463 85.2585 25.6996 84.6713 26.1729C84.0841 26.6462 83.7554 27.4043 83.6853 28.4472H89.8247Z" fill="#EF4F4F"></path></svg>