<svg xmlns="http://www.w3.org/2000/svg" id="aa114b93-1701-44bd-bf37-4c37a279c2a2" data-name="Layer 1" width="32.2266" height="30.5273" viewBox="0 0 32.2266 30.5273"><path d="M4.0273,5.4961Q.57,10.1836.57,18.8555V30.6328H13.0508V17.8594H6.6641q-.0587-.7032-.0879-.9082a3.5846,3.5846,0,0,1-.0293-.4981,16.0189,16.0189,0,0,1,.82-4.98q1.6406-5.0978,5.6836-5.8594V.1055A12.8307,12.8307,0,0,0,4.0273,5.4961Z" transform="translate(-0.5703 -0.1055)"></path><path d="M32.7969,5.6133V.1055a11.8283,11.8283,0,0,0-9.6094,6.2988,25.9887,25.9887,0,0,0-2.93,12.4512V30.6328H32.7969V17.8594H26.41a3.9921,3.9921,0,0,1-.1465-.7617q-.0294-.3516-.0293-.7032a14.8593,14.8593,0,0,1,1.67-7.1484A6.5694,6.5694,0,0,1,32.7969,5.6133Z" transform="translate(-0.5703 -0.1055)"></path></svg>