<svg xmlns="http://www.w3.org/2000/svg" width="60" height="60" viewBox="0 0 60 60" fill="none"><path d="M44.5542 0.0538483C43.537 0.205561 42.5573 0.709639 41.7979 1.46331C41.1792 2.07995 40.7761 2.73085 40.5042 3.53835C39.9511 5.1974 40.2276 7.04732 41.2542 8.46168C42.562 10.2773 44.8729 11.0016 46.9308 10.2529C48.8011 9.56771 50.1229 7.7961 50.287 5.74553C50.4136 4.1452 49.8979 2.65744 48.8198 1.54161C47.6995 0.376849 46.1011 -0.181062 44.5542 0.0538483Z" fill="#181818"></path><path d="M27.1632 9.15171C26.0616 9.18107 25.9163 9.22022 25.3773 9.58727C25.0398 9.81239 25.3116 9.49429 20.3991 15.4013C18.1819 18.0685 16.2694 20.354 16.1569 20.4812C15.7397 20.9364 15.5054 21.5726 15.5007 22.2626C15.5007 23.1827 15.9038 23.9755 16.6444 24.4894C17.0288 24.7537 17.3897 24.8711 17.9054 24.8956C18.5522 24.9298 19.0538 24.7781 19.5741 24.3817C19.6772 24.3034 21.5851 22.0424 23.8069 19.3605L27.8476 14.4861H30.1257H32.3991L32.146 14.7896C32.0054 14.9608 28.171 19.6003 23.6288 25.106C19.0819 30.6117 15.2897 35.1925 15.2054 35.2855L15.046 35.4568H8.84444C3.11631 35.4568 2.62881 35.4617 2.38975 35.54C1.16162 35.9413 0.294436 36.9201 0.0647488 38.1582C-0.0711887 38.9168 0.0178738 39.5824 0.360061 40.3263C0.538186 40.7178 0.636624 40.8597 0.978811 41.2121C1.321 41.5693 1.45225 41.6672 1.82725 41.8581C2.071 41.9804 2.38975 42.1077 2.53037 42.1468C2.89131 42.2349 17.6194 42.2349 18.2429 42.1468C19.0913 42.0196 19.8179 41.7553 20.4085 41.354C20.6757 41.168 21.1398 40.6542 23.3382 38.0995C24.7726 36.4307 26.3241 34.6248 26.7929 34.0816L27.6366 33.0979L30.8241 36.3279C32.5726 38.0995 34.3304 39.8858 34.7241 40.2871L35.446 41.0212L35.1601 42.3475C35.0054 43.0816 34.7007 44.5057 34.4804 45.5139C32.0663 56.677 32.2023 56.0212 32.2023 56.584C32.2023 57.3426 32.3569 57.8809 32.746 58.4927C33.3179 59.3931 34.4007 60 35.4319 60C35.7788 60 36.3226 59.8923 36.646 59.7602C37.4991 59.4078 38.2679 58.5465 38.5444 57.6264C38.5866 57.4894 38.8304 56.4029 39.0882 55.2039C39.346 54.0049 39.8101 51.8418 40.1194 50.3931C41.5819 43.5954 41.8257 42.46 42.1163 41.1093C42.2851 40.3165 42.4913 39.3915 42.571 39.0538C42.7069 38.5057 42.721 38.3687 42.721 37.708C42.7257 36.8515 42.6413 36.4551 42.3132 35.7993C42.1257 35.4225 41.9663 35.2512 38.5679 31.6884L35.0148 27.9641L38.7366 23.4666C40.7851 20.9902 42.4819 18.9592 42.5054 18.9494C42.5288 18.9445 43.6257 20.0848 44.9476 21.4845C47.4882 24.1713 47.7272 24.3915 48.3319 24.6166C48.7491 24.7683 49.4241 24.8026 49.8273 24.6949C50.2679 24.5775 50.6429 24.3817 51.0694 24.0391C51.2944 23.8581 53.0569 22.0424 55.4991 19.4682C59.2351 15.5285 59.5679 15.1713 59.7085 14.863C60.4351 13.3067 59.7179 11.5449 58.1241 10.9821C57.9366 10.9135 57.7304 10.8891 57.3741 10.8891C56.8163 10.8891 56.4366 10.9967 56.0288 11.2708C55.8976 11.3589 54.3226 12.9494 52.4991 14.8434L49.2038 18.2643L45.1913 14.0799C42.9835 11.7798 41.0851 9.83197 40.9679 9.75367C40.6444 9.52854 40.3069 9.36215 39.9272 9.2398L39.5851 9.13213L33.8663 9.12724C30.721 9.12234 27.7069 9.13213 27.1632 9.15171Z" fill="#181818"></path><path d="M29.5 0C14.3368 0 2 12.3368 2 27.5C2 42.6632 14.3368 55 29.5 55C44.6632 55 57 42.6632 57 27.5C57 12.3368 44.6633 0 29.5 0ZM29.5 52.6087C15.6543 52.6087 4.39127 41.3457 4.39127 27.5C4.39127 21.0076 6.89015 15.1011 10.9482 10.6389L19.777 19.4677C25 24.5 26 25 26 25C26 25 24.2854 23.6273 26 25.5L19.777 39C20.1764 37.4887 20.9464 34.7232 26 34C26.7102 32.7063 27.8882 32.144 28.2637 29.7169C28.3522 29.1549 28.3809 28.6408 28.4239 28.1171L46.3587 46.0519C41.899 50.1099 35.9924 52.6087 29.5 52.6087ZM48.0518 44.3612L12.6389 8.94824C17.1011 4.89015 23.0076 2.39127 29.5 2.39127C43.3457 2.39127 54.6087 13.6543 54.6087 27.5C54.6087 33.9924 52.1099 39.899 48.0518 44.3612Z" fill="#181818"></path></svg>