<svg xmlns="http://www.w3.org/2000/svg" width="65" height="65" viewBox="0 0 65 65" fill="none"><path d="M19.0732 4.40628C8.69338 7.38068 5.97963 8.20878 5.76513 8.46943C5.50448 8.79118 5.50448 9.68038 5.55063 25.6866C5.61173 43.9776 5.56623 42.9961 6.43983 45.5721C8.44833 51.4747 13.8758 56.7027 22.1393 60.6735C26.2024 62.6209 31.7372 64.5222 32.8714 64.3382C33.2088 64.2921 34.696 63.8475 36.1676 63.3418C48.0346 59.3703 56.0225 52.9925 58.5367 45.4798C59.472 42.6588 59.472 42.7816 59.472 24.997C59.472 9.78828 59.4564 8.77623 59.2114 8.46943C58.9969 8.20878 56.1453 7.35013 45.796 4.39133C38.5596 2.32108 32.5191 0.634975 32.3807 0.649925C32.2273 0.665527 26.2479 2.35163 19.0732 4.40628ZM43.9104 6.39918C49.9814 8.13143 55.4245 9.69533 55.9919 9.86433L57.0345 10.1711L56.9884 26.2235L56.9422 42.2603L56.5899 43.5636C56.0992 45.342 54.781 47.979 53.6006 49.5429C49.8904 54.4335 42.5311 58.9107 33.9914 61.4867L32.4886 61.9313L30.9552 61.4867C27 60.3212 21.3729 57.7765 18.2302 55.7069C12.8943 52.2105 9.70543 48.2852 8.37163 43.5941C8.04988 42.4293 8.03428 42.3065 7.98813 26.2846L7.94198 10.1562L8.29493 10.0639C8.49448 10.0028 13.8908 8.46943 20.2998 6.61433C26.7081 4.77483 32.1512 3.27203 32.4119 3.25643C32.6569 3.24083 37.8238 4.66693 43.9104 6.39918Z" fill="#181818"></path><path d="M29.8059 15.5675C20.4842 17.0398 14.0298 25.9012 15.5475 35.2079C17.2641 45.7867 27.9657 52.2106 38.0849 48.7299C44.4166 46.553 48.8782 40.8493 49.5834 34.0574C49.8285 31.7272 49.0927 27.7563 47.989 25.3949C44.6928 18.358 37.3491 14.4027 29.8059 15.5675ZM36.0153 18.2663C41.32 19.5696 45.4904 23.8011 46.8547 29.2435C47.2226 30.7002 47.2226 34.3493 46.8547 35.8059C45.2297 42.3066 39.7866 46.8293 33.1787 47.1822C24.5162 47.6574 17.387 40.5132 17.816 31.8351C18.1228 25.7023 22.078 20.4588 27.7818 18.5731C30.3421 17.745 33.4088 17.6222 36.0153 18.2663Z" fill="#181818"></path><path d="M26.3554 23.9387V25.1652H28.011C29.8817 25.1652 30.8476 25.3953 31.6445 26.0083C32.1502 26.3918 32.6409 27.097 32.6409 27.4649C32.6409 27.5572 31.5827 27.6183 29.4982 27.6183H26.3398L26.386 28.7987L26.4321 29.9947L29.5443 30.0409C31.8902 30.0714 32.6416 30.1176 32.6416 30.271C32.6416 30.7461 31.844 31.6048 31.001 32.0032C30.219 32.3867 29.9278 32.4478 28.2411 32.494L26.3554 32.5551V33.7667V34.9776H26.7695C27.1218 34.9776 27.8582 35.6367 30.8781 38.6573L34.5578 42.3369L35.447 41.4477L36.3362 40.5429L33.4229 37.7063C31.8128 36.1424 30.4946 34.8242 30.4946 34.7625C30.4946 34.7163 30.6175 34.6702 30.7709 34.6702C30.9392 34.6702 31.4761 34.4557 31.9974 34.21C33.2545 33.5658 34.5123 32.2171 34.9562 30.9905L35.2936 30.0708H36.9491H38.6203V28.8442V27.6183H36.9491H35.278L35.094 27.0359C34.9868 26.7291 34.7417 26.1773 34.5266 25.8094L34.1587 25.1652H36.3973H38.6203V23.9387V22.7121H32.4875H26.3548V23.9387H26.3554Z" fill="#181818"></path></svg>