<svg xmlns="http://www.w3.org/2000/svg" width="406" height="416" viewBox="0 0 406 416" fill="none"><path fill-rule="evenodd" clip-rule="evenodd" d="M59.4003 345.224C33.8888 314.914 3.57379 285.276 0.751698 245.142C-2.17154 203.57 20.7664 164.317 44.1365 128.152C68.8575 89.8958 97.1875 53.0622 138.123 32.5592C182.744 10.2102 237.925 -11.571 280.799 9.61709C323.518 30.7288 319.948 91.8014 342.207 133.418C360.068 166.81 391.517 191.367 398.151 229.021C405.727 272.025 414.556 326.066 381.726 357.729C348.194 390.068 293.085 362.83 248.167 373.672C211.065 382.627 180.846 420.723 143.843 415.146C105.915 409.43 83.4586 373.807 59.4003 345.224Z" fill="#C5A7FF"></path></svg>