<svg xmlns="http://www.w3.org/2000/svg" width="615" height="361" viewBox="0 0 615 361" fill="none"><rect x="50.5" y="4.5" width="515" height="332" rx="5.5" fill="#003E9C" stroke="black" stroke-width="9"></rect><rect x="301" y="9" width="260" height="316" fill="#C5A7FF"></rect><path d="M498 276.5C498 359.343 368.812 323 299.5 323C230.188 323 134.5 170.843 134.5 88C134.5 5.15729 231.188 8.99999 300.5 8.99999C369.812 8.99999 498 193.657 498 276.5Z" fill="#0E55FF"></path><rect x="54" y="316" width="507" height="19" fill="black"></rect><path d="M0 343C0 341.895 0.89543 341 2 341H613C614.105 341 615 341.895 615 343V354H0V343Z" fill="#777777"></path><path d="M0 354H615L578.222 359.785C573.082 360.594 567.886 361 562.683 361H55.2533C50.4241 361 45.6013 360.65 40.8226 359.953L0 354Z" fill="#8F8F8F"></path><path d="M270 341H347V341C347 343.761 344.761 346 342 346H275C272.239 346 270 343.761 270 341V341Z" fill="url(#paint0_linear_124_8174)"></path><defs><linearGradient id="paint0_linear_124_8174" x1="270" y1="343" x2="347" y2="343" gradientUnits="userSpaceOnUse"><stop stop-color="#C4C4C4"></stop><stop offset="0.5" stop-color="#C4C4C4" stop-opacity="0"></stop><stop offset="1" stop-color="#C4C4C4"></stop></linearGradient></defs></svg>