<svg xmlns="http://www.w3.org/2000/svg" width="65" height="65" viewBox="0 0 65 65" fill="none"><path d="M16.4316 27.2187C16.4316 28.2767 17.2891 29.1342 18.3471 29.1342H46.1376C47.1956 29.1342 48.0531 28.2767 48.0531 27.2187C48.0531 26.1607 47.1956 25.3032 46.1376 25.3032H18.3471C17.2891 25.3032 16.4316 26.1607 16.4316 27.2187Z" fill="#181818"></path><path d="M18.3471 35.87H46.1376C47.1956 35.87 48.0531 35.0125 48.0531 33.9545C48.0531 32.8966 47.1956 32.0391 46.1376 32.0391H18.3471C17.2891 32.0391 16.4316 32.8966 16.4316 33.9545C16.4316 35.0125 17.2891 35.87 18.3471 35.87Z" fill="#181818"></path><path d="M18.3471 12.8842H27.7843C28.8423 12.8842 29.6998 12.0267 29.6998 10.9687C29.6998 9.91072 28.8423 9.05322 27.7843 9.05322H18.3471C17.2891 9.05322 16.4316 9.91072 16.4316 10.9687C16.4316 12.0267 17.2891 12.8842 18.3471 12.8842Z" fill="#181818"></path><path d="M31.8196 51.585H18.3471C17.2891 51.585 16.4316 52.4425 16.4316 53.5004C16.4316 54.5584 17.2891 55.4159 18.3471 55.4159H31.8196C32.8776 55.4159 33.735 54.5584 33.735 53.5004C33.735 52.4425 32.8776 51.585 31.8196 51.585Z" fill="#181818"></path><path d="M31.8196 45.6548H18.3471C17.2891 45.6548 16.4316 46.5123 16.4316 47.5703C16.4316 48.6283 17.2891 49.4858 18.3471 49.4858H31.8196C32.8776 49.4858 33.735 48.6283 33.735 47.5703C33.735 46.5123 32.8776 45.6548 31.8196 45.6548Z" fill="#181818"></path><path d="M56.8411 15.0287L42.3737 0.561024C42.0142 0.201764 41.5271 0 41.0193 0H9.51509C8.45711 0 7.59961 0.857498 7.59961 1.91548V63.0845C7.59961 64.1425 8.45711 65 9.51509 65H55.4867C56.5447 65 57.4022 64.1425 57.4022 63.0845V16.3831C57.4022 15.8751 57.2004 15.3879 56.8411 15.0287ZM42.5091 6.11422L51.2882 14.8933H42.5091V6.11422ZM53.5712 61.169H11.4306V3.83097H38.6779V16.8088C38.6779 17.8668 39.5354 18.7243 40.5934 18.7243H53.5712V61.169Z" fill="#181818"></path><path d="M42.5612 44.3779C39.1393 44.3779 36.3555 47.162 36.3555 50.5839C36.3555 54.0058 39.1393 56.7896 42.5612 56.7896C45.9831 56.7896 48.7669 54.0058 48.7669 50.5839C48.7669 47.162 45.9831 44.3779 42.5612 44.3779ZM42.5612 52.9587C41.2519 52.9587 40.1864 51.8934 40.1864 50.5839C40.1864 49.2743 41.2519 48.2089 42.5612 48.2089C43.8705 48.2089 44.936 49.2743 44.936 50.5839C44.936 51.8934 43.8705 52.9587 42.5612 52.9587Z" fill="#181818"></path></svg>