<svg xmlns="http://www.w3.org/2000/svg" width="65" height="65" viewBox="0 0 65 65" fill="none"><path d="M21.1226 56.5217H21.2186C26.8115 56.4342 26.8793 51.0278 26.8849 48.0435H15.459C15.7616 51.2398 16.29 56.5217 21.1226 56.5217Z" fill="#181818"></path><path d="M32.4999 0C14.5798 0 0 14.5798 0 32.4999C0 50.4201 14.5798 64.9999 32.4999 64.9999C50.4201 64.9999 64.9999 50.4201 64.9999 32.4999C64.9999 14.5798 50.4202 0 32.4999 0ZM32.4999 62.1738C16.1369 62.1738 2.82604 48.863 2.82604 32.4999C2.82604 24.8271 5.77926 17.8467 10.5752 12.5733L21.0091 23.0072C16.6004 24.4428 14.4554 29.7022 14.1445 33.2207C13.8817 36.157 14.2378 40.6928 15.0686 45.2175H27.1728C27.6448 43.4313 28.2468 42.2727 28.8882 41.0998C29.7275 39.5709 30.5951 37.9883 31.0389 35.1198C31.1434 34.4558 31.1773 33.8481 31.2282 33.2292L52.4238 54.4248C47.1533 59.2206 40.1728 62.1738 32.4999 62.1738ZM54.4247 52.4268L12.5733 10.5752C17.8467 5.77926 24.8271 2.82604 32.4999 2.82604C48.863 2.82604 62.1738 16.1369 62.1738 32.4999C62.1738 40.1728 59.2206 47.1533 54.4247 52.4268Z" fill="#181818"></path><path d="M45.9909 39.9975C46.2594 40.2661 46.6182 40.4102 46.9913 40.4102C47.0619 40.4102 47.1354 40.4045 47.206 40.3932C47.6497 40.3254 48.0369 40.0484 48.2432 39.6499C49.1277 37.9486 49.3566 35.7217 49.5375 33.9102H39.9062L45.9909 39.9975Z" fill="#181818"></path><path d="M41.6542 8.48101C38.9299 8.34814 36.8471 9.26101 35.4651 10.8719C33.6734 12.9603 33.159 16.2725 33.8882 20.9892C34.3318 23.8606 35.1966 25.4488 36.0332 26.9833C36.6747 28.159 37.2767 29.3092 37.7458 31.0868H49.9318C50.7627 26.5622 51.1215 22.0236 50.8559 19.0901C50.4914 15.0065 47.6851 8.53758 41.6542 8.48101Z" fill="#181818"></path></svg>