<svg xmlns="http://www.w3.org/2000/svg" width="260" height="257" viewBox="0 0 260 257" fill="none"><rect width="260" height="257" rx="21.0272" fill="white"></rect><rect x="3.5" y="3.5" width="253" height="250" rx="17.5272" stroke="#F5F0F0" stroke-opacity="0.1" stroke-width="7"></rect><rect x="39" y="57" width="176" height="47" rx="11" fill="#F5F0F0"></rect><rect x="50" y="67" width="51" height="10" rx="3" fill="white"></rect><rect x="50" y="85" width="151" height="10" rx="3" fill="white"></rect><rect x="38" y="114" width="176" height="47" rx="11" fill="#F5F0F0"></rect><rect x="49" y="124" width="51" height="10" rx="3" fill="white"></rect><rect x="49" y="142" width="151" height="10" rx="3" fill="white"></rect><rect x="37" y="171" width="176" height="47" rx="11" fill="#F5F0F0"></rect><rect x="48" y="181" width="51" height="10" rx="3" fill="white"></rect><rect x="48" y="199" width="151" height="10" rx="3" fill="white"></rect><path d="M52.571 32.246H48.467V43H45.351V32.246H41.228V29.51H52.571V32.246ZM51.753 40.017C51.753 39.3583 51.9366 38.782 52.304 38.288C52.6713 37.794 53.178 37.4077 53.824 37.129C54.47 36.8377 55.211 36.692 56.047 36.692C56.4523 36.692 56.8513 36.73 57.244 36.806C57.6366 36.8693 57.9786 36.9643 58.27 37.091V36.654C58.27 36.1093 58.1053 35.6913 57.776 35.4C57.4466 35.1087 56.9463 34.963 56.275 34.963C55.7176 34.963 55.192 35.058 54.698 35.248C54.2166 35.438 53.7036 35.7103 53.159 36.065L52.247 34.127C52.9056 33.6963 53.5896 33.3733 54.299 33.158C55.021 32.9427 55.781 32.835 56.579 32.835C58.0736 32.835 59.2326 33.196 60.056 33.918C60.892 34.6273 61.31 35.6597 61.31 37.015V39.618C61.31 39.922 61.3543 40.1373 61.443 40.264C61.5443 40.378 61.7153 40.4477 61.956 40.473V43C61.7026 43.0507 61.462 43.0887 61.234 43.114C61.0186 43.1393 60.8286 43.152 60.664 43.152C60.094 43.152 59.657 43.038 59.353 42.81C59.0616 42.582 58.878 42.2717 58.802 41.879L58.745 41.442C58.3016 42.012 57.7696 42.449 57.149 42.753C56.541 43.0443 55.9013 43.19 55.23 43.19C54.5713 43.19 53.976 43.0507 53.444 42.772C52.9246 42.4933 52.513 42.1133 52.209 41.632C51.905 41.1507 51.753 40.6123 51.753 40.017ZM57.795 40.397C57.9343 40.283 58.0483 40.1563 58.137 40.017C58.2256 39.8777 58.27 39.7447 58.27 39.618V38.725C58.0166 38.6237 57.7316 38.5477 57.415 38.497C57.111 38.4337 56.826 38.402 56.56 38.402C56.0026 38.402 55.5403 38.5287 55.173 38.782C54.8056 39.0227 54.622 39.3457 54.622 39.751C54.622 39.979 54.6853 40.188 54.812 40.378C54.9386 40.568 55.1096 40.72 55.325 40.834C55.553 40.948 55.819 41.005 56.123 41.005C56.427 41.005 56.731 40.948 57.035 40.834C57.339 40.72 57.5923 40.5743 57.795 40.397ZM67.3318 43.19C66.4831 43.19 65.6534 43.0507 64.8428 42.772C64.0321 42.4933 63.3481 42.0817 62.7908 41.537L63.8358 39.618C64.4438 40.0613 65.0328 40.397 65.6028 40.625C66.1854 40.853 66.7301 40.967 67.2368 40.967C67.6294 40.967 67.9334 40.9037 68.1488 40.777C68.3641 40.6503 68.4718 40.454 68.4718 40.188C68.4718 39.998 68.4084 39.8523 68.2818 39.751C68.1551 39.637 67.9588 39.5357 67.6928 39.447C67.4394 39.3583 67.1228 39.2633 66.7428 39.162C65.9828 38.9087 65.3494 38.6617 64.8428 38.421C64.3361 38.1803 63.9561 37.889 63.7028 37.547C63.4494 37.1923 63.3228 36.7363 63.3228 36.179C63.3228 35.5077 63.4874 34.925 63.8168 34.431C64.1588 33.9243 64.6401 33.5317 65.2608 33.253C65.8814 32.9743 66.6224 32.835 67.4838 32.835C68.1678 32.835 68.8328 32.9427 69.4788 33.158C70.1374 33.3733 70.7518 33.7343 71.3218 34.241L70.1438 36.141C69.5738 35.7483 69.0671 35.4633 68.6238 35.286C68.1804 35.1087 67.7498 35.02 67.3318 35.02C67.1164 35.02 66.9201 35.0453 66.7428 35.096C66.5654 35.1467 66.4198 35.2353 66.3058 35.362C66.2044 35.476 66.1538 35.628 66.1538 35.818C66.1538 36.008 66.2044 36.16 66.3058 36.274C66.4198 36.388 66.5908 36.4893 66.8188 36.578C67.0594 36.654 67.3571 36.749 67.7118 36.863C68.5351 37.1037 69.2191 37.3507 69.7638 37.604C70.3084 37.8447 70.7138 38.1487 70.9798 38.516C71.2584 38.8707 71.3978 39.3457 71.3978 39.941C71.3978 40.9543 71.0304 41.7523 70.2958 42.335C69.5738 42.905 68.5858 43.19 67.3318 43.19ZM79.6641 43L77.0611 39.01L75.9971 40.093V43H72.9571V29.13H75.9971V37.148L79.3791 33.025H82.5901L78.9991 37.319L82.8941 43H79.6641ZM87.5007 43.19C86.6521 43.19 85.8224 43.0507 85.0117 42.772C84.2011 42.4933 83.5171 42.0817 82.9597 41.537L84.0047 39.618C84.6127 40.0613 85.2017 40.397 85.7717 40.625C86.3544 40.853 86.8991 40.967 87.4057 40.967C87.7984 40.967 88.1024 40.9037 88.3177 40.777C88.5331 40.6503 88.6407 40.454 88.6407 40.188C88.6407 39.998 88.5774 39.8523 88.4507 39.751C88.3241 39.637 88.1277 39.5357 87.8617 39.447C87.6084 39.3583 87.2917 39.2633 86.9117 39.162C86.1517 38.9087 85.5184 38.6617 85.0117 38.421C84.5051 38.1803 84.1251 37.889 83.8717 37.547C83.6184 37.1923 83.4917 36.7363 83.4917 36.179C83.4917 35.5077 83.6564 34.925 83.9857 34.431C84.3277 33.9243 84.8091 33.5317 85.4297 33.253C86.0504 32.9743 86.7914 32.835 87.6527 32.835C88.3367 32.835 89.0017 32.9427 89.6477 33.158C90.3064 33.3733 90.9207 33.7343 91.4907 34.241L90.3127 36.141C89.7427 35.7483 89.2361 35.4633 88.7927 35.286C88.3494 35.1087 87.9187 35.02 87.5007 35.02C87.2854 35.02 87.0891 35.0453 86.9117 35.096C86.7344 35.1467 86.5887 35.2353 86.4747 35.362C86.3734 35.476 86.3227 35.628 86.3227 35.818C86.3227 36.008 86.3734 36.16 86.4747 36.274C86.5887 36.388 86.7597 36.4893 86.9877 36.578C87.2284 36.654 87.5261 36.749 87.8807 36.863C88.7041 37.1037 89.3881 37.3507 89.9327 37.604C90.4774 37.8447 90.8827 38.1487 91.1487 38.516C91.4274 38.8707 91.5667 39.3457 91.5667 39.941C91.5667 40.9543 91.1994 41.7523 90.4647 42.335C89.7427 42.905 88.7547 43.19 87.5007 43.19Z" fill="#F17979"></path></svg>