<svg xmlns="http://www.w3.org/2000/svg" xmlns:xlink="http://www.w3.org/1999/xlink" id="Layer_1" x="0px" y="0px" viewBox="0 0 286.969 286.969" style="enable-background:new 0 0 286.969 286.969;" xml:space="preserve"> <g> <g> <path style="fill:#F9BA48;" d="M168.75,131.766h-46.875v-21.211c-11.63-7.795-18.75-20.981-18.75-35.039 c0-23.264,18.923-42.188,42.188-42.188S187.5,52.251,187.5,75.515c0,14.058-7.12,27.244-18.75,35.039V131.766z"></path> <path style="fill:#333333;" d="M286.969,178.641h-28.345c0.675-8.606-1.866-17.137-7.298-24.094 c-6.652-8.517-16.664-13.406-27.478-13.406h-20.119l3.473-18.75H150V88.715c5.442-1.941,9.375-7.097,9.375-13.2 c0-7.753-6.309-14.063-14.063-14.063c-7.753,0-14.063,6.309-14.063,14.063c0,6.103,3.933,11.259,9.375,13.2v33.675h-78.9 l-3.473,18.75H14.063v9.375h42.455l-1.734,9.375H9.375v9.375h43.669l-1.734,9.375H4.688v9.375h44.888l-1.734,9.375H0v9.375h46.102 l-9.548,51.563h29.494c2.241,13.28,13.791,23.438,27.703,23.438s25.458-10.158,27.703-23.438h56.672h3.9h10.584 c2.241,13.28,13.791,23.438,27.703,23.438s25.458-10.158,27.703-23.438h23.016L286.969,178.641z M145.313,70.827 c2.587,0,4.688,2.1,4.688,4.688s-2.1,4.688-4.688,4.688s-4.688-2.1-4.688-4.688S142.725,70.827,145.313,70.827z M93.75,272.391 c-10.341,0-18.75-8.409-18.75-18.75c0-10.341,8.409-18.75,18.75-18.75s18.75,8.409,18.75,18.75 C112.5,263.982,104.091,272.391,93.75,272.391z M174.225,248.952h-52.772c-2.241-13.28-13.791-23.438-27.703-23.438 s-25.458,10.158-27.703,23.438H47.822l7.814-42.188H75v-9.375H57.37l1.734-9.375h20.583v-9.375H60.844l1.734-9.375h21.797v-9.375 H64.317l1.734-9.375h23.011v-9.375H67.791l1.734-9.375h126.403L174.225,248.952z M220.313,272.391 c-10.341,0-18.75-8.409-18.75-18.75c0-10.341,8.409-18.75,18.75-18.75s18.75,8.409,18.75,18.75 C239.063,263.982,230.654,272.391,220.313,272.391z M248.016,248.952c-2.241-13.28-13.791-23.438-27.703-23.438 s-25.458,10.158-27.703,23.438h-8.85l18.23-98.438h21.858c7.908,0,15.225,3.577,20.091,9.806 c4.866,6.23,6.553,14.198,4.641,21.872l-1.453,5.822h28.411l-12.188,60.938H248.016z"></path> <rect x="140.625" y="5.202" style="fill:#333333;" width="9.375" height="18.75"></rect> <rect x="110.157" y="13.37" transform="matrix(0.866 -0.5 0.5 0.866 4.0142 60.4711)" style="fill:#333333;" width="9.375" height="18.75"></rect> <rect x="87.851" y="35.67" transform="matrix(0.5 -0.866 0.866 0.5 7.2589 102.6619)" style="fill:#333333;" width="9.375" height="18.75"></rect> <rect x="75" y="70.827" style="fill:#333333;" width="18.75" height="9.375"></rect> <rect x="83.165" y="101.301" transform="matrix(0.8661 -0.4999 0.4999 0.8661 -40.5905 60.4531)" style="fill:#333333;" width="18.75" height="9.375"></rect> <rect x="193.396" y="96.608" transform="matrix(0.5 -0.866 0.866 0.5 7.2567 224.5338)" style="fill:#333333;" width="9.375" height="18.75"></rect> <rect x="196.875" y="70.827" style="fill:#333333;" width="18.75" height="9.375"></rect> <rect x="188.712" y="40.367" transform="matrix(0.8661 -0.4999 0.4999 0.8661 4.0041 105.0556)" style="fill:#333333;" width="18.75" height="9.375"></rect> <rect x="166.403" y="18.051" transform="matrix(0.4999 -0.8661 0.8661 0.4999 68.2144 163.6114)" style="fill:#333333;" width="18.75" height="9.375"></rect> </g> </g> <g> </g> <g> </g> <g> </g> <g> </g> <g> </g> <g> </g> <g> </g> <g> </g> <g> </g> <g> </g> <g> </g> <g> </g> <g> </g> <g> </g> <g> </g> </svg>