<svg xmlns="http://www.w3.org/2000/svg" viewBox="0 0 512 512"><path fill="#a0a5ab" d="M333,138.3H179c-22.1,0-41,18.9-41,41v154c0,22.1,18.9,41,41,41H333c22.1,0,41-18.9,41-41v-154C374,157.2,355.1,138.3,333,138.3Zm-13.1,59.2a9.18,9.18,0,0,1-8.5,5.6c-11.1-1.7-20.8,14.6-38.3,47.9-1,1.8-2,3.8-3,5.6H270c-.5,1-1.1,2-1.6,3.1-21.8,41.6-43.3,65.9-64.3,66.7,0,0-7.4.6-10-2a9.06,9.06,0,0,1,6.5-15.5c11.1,1.7,20.8-14.6,38.3-47.9.9-1.8,1.9-3.6,2.9-5.3.6-1.1,1.2-2.2,1.8-3.4,21.8-41.6,43.3-65.9,64.4-66.7,0,0,7.3-.6,10,2A9.26,9.26,0,0,1,319.9,197.5ZM332,0H180C80.6,0,0,80.6,0,180V332c0,99.4,80.6,180,180,180H332c99.4,0,180-80.6,180-180V180C512,80.6,431.4,0,332,0Zm80,332a80,80,0,0,1-80,80H180a80,80,0,0,1-80-80V180a80,80,0,0,1,80-80H332a80,80,0,0,1,80,80Z"/></svg>