<svg xmlns="http://www.w3.org/2000/svg" width="1000" height="1222" viewBox="0 0 1000 1222" fill="none"><g clip-path="url(#clip0)"><rect width="1000" height="1222" fill="white"></rect><g clip-path="url(#clip1)"><path d="M930.691 759.627C930.691 759.627 861.605 749.989 824.314 829.29C902.179 844.22 930.691 759.627 930.691 759.627Z" fill="#FD5B5B" stroke="black" stroke-width="2" stroke-linecap="round" stroke-linejoin="round"></path><path d="M786.863 876.498C786.72 876.497 786.579 876.453 786.46 876.372C786.3 876.262 786.188 876.092 786.149 875.899C786.111 875.707 786.149 875.506 786.255 875.341C786.38 875.14 799.569 854.813 823.553 830.432C845.683 807.925 881.809 777.259 928.223 758.932C928.314 758.888 928.413 758.864 928.513 758.86C928.614 758.857 928.715 758.875 928.808 758.913C928.902 758.951 928.987 759.008 929.058 759.081C929.129 759.154 929.184 759.241 929.22 759.337C929.257 759.433 929.273 759.535 929.269 759.638C929.265 759.74 929.24 759.841 929.196 759.933C929.152 760.026 929.089 760.108 929.013 760.174C928.936 760.241 928.847 760.291 928.75 760.321C882.585 778.55 846.68 809.067 824.616 831.462C800.727 855.731 787.611 875.961 787.479 876.162C787.412 876.266 787.32 876.351 787.213 876.41C787.105 876.469 786.985 876.499 786.863 876.498V876.498Z" fill="#1A1A1A"></path><path d="M821.149 855.321C821.149 855.321 890.836 754.774 994.267 823.064C911.991 849.841 870.428 887.039 870.428 887.039L821.149 855.321Z" fill="#FD5B5B" stroke="black" stroke-width="2" stroke-linecap="round" stroke-linejoin="round"></path><path d="M834.179 908.023C834.179 908.023 879.23 849.602 936.459 864.032C920.338 899.819 887.73 908.023 887.73 908.023H834.179Z" fill="#1C0311"></path><path d="M887.729 908.397H834.178C834.109 908.396 834.042 908.376 833.984 908.339C833.926 908.302 833.88 908.248 833.85 908.185C833.82 908.122 833.808 908.052 833.816 907.982C833.823 907.913 833.85 907.847 833.892 907.792C842.54 897.296 852.552 888.049 863.65 880.306C880.504 868.586 906.884 856.186 936.547 863.666C936.598 863.682 936.646 863.708 936.688 863.742C936.729 863.777 936.764 863.82 936.789 863.868C936.812 863.918 936.824 863.973 936.824 864.028C936.824 864.084 936.812 864.139 936.789 864.189C920.756 899.722 888.14 908.307 887.817 908.389L887.729 908.397ZM834.97 907.65H887.729C889.063 907.299 920.301 898.565 935.99 864.286C906.745 857.097 880.79 869.34 864.134 880.918C853.292 888.478 843.481 897.467 834.955 907.65H834.97Z" fill="#1A1A1A"></path><path d="M811.8 876.82C811.692 876.819 811.585 876.794 811.487 876.746C811.39 876.698 811.304 876.629 811.236 876.543C811.114 876.391 811.057 876.195 811.076 875.999C811.095 875.804 811.189 875.624 811.338 875.498C811.58 875.297 835.784 855.246 870.261 838.778C890.529 829.074 910.329 822.519 929.117 819.227C952.639 815.114 974.629 816.159 994.48 822.348C994.578 822.371 994.669 822.415 994.749 822.476C994.83 822.536 994.897 822.614 994.947 822.702C994.997 822.79 995.028 822.888 995.039 822.989C995.051 823.091 995.042 823.193 995.013 823.291C994.983 823.388 994.935 823.479 994.87 823.557C994.806 823.634 994.726 823.698 994.636 823.743C994.547 823.788 994.449 823.814 994.349 823.819C994.249 823.825 994.149 823.809 994.055 823.773C949.569 809.911 902.539 825.005 870.949 840.114C836.626 856.537 812.533 876.454 812.327 876.648C812.18 876.773 811.991 876.835 811.8 876.82V876.82Z" fill="#1A1A1A"></path><path d="M95.5841 915.414C95.5841 915.414 13.6233 849.722 48.7525 759.664C126.383 818.541 119.011 910.883 119.011 910.883L95.5841 915.414Z" fill="#FD5B5B" stroke="black" stroke-width="2" stroke-linecap="round" stroke-linejoin="round"></path><path d="M100.692 891.623C100.525 891.624 100.362 891.566 100.231 891.459C81.3544 875.835 68.1645 840.839 60.4263 814.226C55.2615 796.352 51.1241 778.186 48.0351 759.821C48.005 759.623 48.0533 759.421 48.1694 759.26C48.2856 759.098 48.46 758.99 48.6543 758.959C48.8486 758.928 49.047 758.978 49.2057 759.096C49.3644 759.214 49.4705 759.392 49.5007 759.59C49.6546 760.598 65.5485 860.845 101.176 890.332C101.251 890.394 101.314 890.47 101.36 890.556C101.406 890.642 101.436 890.737 101.446 890.835C101.456 890.933 101.447 891.032 101.42 891.126C101.392 891.22 101.347 891.308 101.286 891.385C101.211 891.467 101.119 891.532 101.016 891.573C100.913 891.615 100.803 891.632 100.692 891.623Z" fill="#1A1A1A"></path><path d="M128.083 907.427C128.083 907.427 82.8268 864.712 108.005 756.201C176.241 787.554 150.176 901.358 150.176 901.358L128.083 907.427Z" fill="#FD5B5B" stroke="black" stroke-width="2" stroke-linecap="round" stroke-linejoin="round"></path><path d="M205.141 696.757C205.141 696.757 118.447 804.671 146.212 898.469L181.341 903.963C181.341 903.963 238.841 798.147 205.141 696.757Z" fill="#FD5B5B" stroke="black" stroke-width="2" stroke-linecap="round" stroke-linejoin="round"></path><path d="M148.286 902.784C148.108 902.783 147.936 902.717 147.803 902.597C135.448 891.4 124.867 863.406 116.367 819.273C110.043 786.486 107.302 756.567 107.273 756.275C107.264 756.177 107.274 756.078 107.302 755.984C107.331 755.89 107.378 755.803 107.44 755.727C107.502 755.651 107.578 755.589 107.664 755.543C107.749 755.498 107.843 755.47 107.94 755.462C108.132 755.445 108.323 755.506 108.471 755.632C108.619 755.758 108.712 755.938 108.731 756.134C108.841 757.328 119.825 875.342 148.777 901.477C148.922 901.609 149.009 901.794 149.02 901.991C149.031 902.189 148.965 902.382 148.836 902.53C148.767 902.61 148.683 902.673 148.588 902.717C148.493 902.761 148.39 902.784 148.286 902.784Z" fill="#1A1A1A"></path><path d="M155.841 901.246C155.717 901.246 155.596 901.213 155.489 901.149C155.405 901.101 155.331 901.037 155.271 900.961C155.211 900.884 155.166 900.796 155.14 900.702C155.113 900.607 155.105 900.509 155.116 900.411C155.127 900.314 155.157 900.219 155.203 900.134C184.075 847.879 204.211 698.16 204.416 696.652C204.443 696.455 204.545 696.275 204.701 696.154C204.857 696.033 205.054 695.98 205.248 696.007C205.443 696.034 205.619 696.138 205.737 696.297C205.856 696.456 205.908 696.656 205.882 696.854C205.677 698.347 185.504 848.349 156.5 900.865C156.435 900.984 156.339 901.082 156.223 901.149C156.106 901.216 155.974 901.25 155.841 901.246Z" fill="#1A1A1A"></path><path d="M873.425 898.483C873.256 898.484 873.091 898.426 872.959 898.318C872.827 898.209 872.736 898.058 872.702 897.889C872.667 897.72 872.691 897.544 872.77 897.391C872.848 897.238 872.976 897.117 873.132 897.05C873.674 896.811 927.072 873.229 935.924 863.524C936.059 863.395 936.238 863.323 936.424 863.323C936.609 863.323 936.788 863.394 936.924 863.523C937.06 863.652 937.142 863.829 937.155 864.017C937.168 864.206 937.11 864.393 936.994 864.54C927.936 874.476 875.924 897.445 873.718 898.423C873.625 898.461 873.526 898.481 873.425 898.483Z" fill="white"></path><path d="M675.202 219L668.368 193.818C676.701 192.413 684.121 189.181 689.483 184.621C694.846 180.062 697.851 174.428 698.035 168.591L698.991 137.625C699.209 130.58 695.303 123.765 688.132 118.678C680.961 113.591 671.113 110.65 660.753 110.501L554.829 109.006C549.7 108.932 544.601 109.545 539.821 110.811C535.041 112.078 530.675 113.972 526.972 116.386C523.269 118.8 520.301 121.687 518.239 124.881C516.177 128.076 515.061 131.515 514.954 135.003L514.009 165.983C513.901 169.471 514.804 172.94 516.668 176.19C518.531 179.441 521.318 182.41 524.868 184.928C528.419 187.446 532.665 189.464 537.362 190.866C542.06 192.269 547.118 193.028 552.247 193.101L627.086 194.177L675.202 219Z" fill="#1C0311" stroke="#1A1A1A" stroke-linecap="round" stroke-linejoin="round"></path><path d="M167.021 893.365L167.021 893.365L167.633 894.291L167.921 893.219L167.921 893.219L167.921 893.219L167.921 893.217L167.924 893.207L167.935 893.168C167.945 893.132 167.96 893.078 167.981 893.008C168.022 892.867 168.084 892.658 168.168 892.392C168.337 891.86 168.593 891.097 168.942 890.178C169.641 888.34 170.71 885.889 172.189 883.426C175.163 878.472 179.708 873.613 186.132 873.376C192.568 873.138 198.757 877.61 203.315 884.442C207.778 891.13 210.598 899.973 210.497 908.5H79.9574C80.1148 908.278 80.3054 908.011 80.5278 907.703C81.2563 906.696 82.3256 905.256 83.6863 903.528C86.4083 900.07 90.2932 895.462 94.9466 890.855C99.6016 886.247 105.015 881.652 110.792 878.211C116.572 874.768 122.685 872.5 128.749 872.5C140.973 872.5 150.538 877.708 157.06 882.935C160.321 885.548 162.815 888.161 164.493 890.12C165.332 891.099 165.966 891.914 166.389 892.482C166.601 892.766 166.76 892.989 166.866 893.14C166.918 893.215 166.958 893.272 166.984 893.31L167.012 893.353L167.019 893.363L167.02 893.365L167.021 893.365Z" fill="white" stroke="black"></path><path d="M611.503 908.538C611.503 908.538 665.127 837.121 761.722 837.121C858.316 837.121 897.71 908.538 897.71 908.538H611.503Z" fill="#FD5B5B" stroke="black" stroke-width="2" stroke-linecap="round" stroke-linejoin="round"></path><path d="M644.462 381.203C644.462 381.203 578.359 375.41 556.258 334.524C529.878 285.703 526.215 248.49 526.215 248.49C526.215 248.49 500.15 247.915 498.45 221.362C498.45 221.362 476.357 220.213 474.657 214.442C472.957 208.672 521.686 197.123 533.579 205.783C545.472 214.442 549.444 227.715 553.979 244.452C558.515 261.188 585.071 313.615 603.273 325.447C621.028 336.995 652.669 338.518 652.669 338.518L644.462 381.203Z" fill="white" stroke="#1A1A1A" stroke-width="2" stroke-linecap="round" stroke-linejoin="round"></path><path d="M787.515 312.712C717.74 303.963 695.376 340.116 637.033 333.614C627.067 364.967 629.404 374.97 645.306 394.005C692.987 402.217 702.462 396.073 702.462 396.073L787.515 312.712Z" fill="#FD5B5B"></path><path d="M686.092 399.022C677.343 399.022 664.329 398.029 645.189 394.73C645.018 394.703 644.862 394.616 644.749 394.483C629.126 375.776 626.129 365.489 636.337 333.375C636.389 333.212 636.495 333.073 636.637 332.981C636.778 332.888 636.946 332.848 637.113 332.867C664.6 335.928 683.923 329.515 704.382 322.73C727.164 315.168 750.73 307.344 787.603 311.973C787.798 311.996 787.975 312.098 788.096 312.255C788.217 312.411 788.271 312.611 788.248 312.809C788.225 313.007 788.125 313.187 787.971 313.31C787.817 313.433 787.622 313.489 787.427 313.466C750.877 308.882 727.472 316.653 704.836 324.163C684.37 330.941 665.039 337.391 637.546 334.405C627.734 365.497 630.489 375.044 645.694 393.296C691.976 401.239 701.964 395.484 702.059 395.424C702.225 395.322 702.423 395.29 702.611 395.336C702.799 395.382 702.962 395.502 703.063 395.67C703.163 395.835 703.196 396.034 703.155 396.223C703.114 396.413 703.002 396.579 702.843 396.685C702.601 396.85 699.025 399.022 686.092 399.022Z" fill="black"></path><path d="M208.924 469.932C208.924 469.932 177.209 451.508 149.525 458.324C131.858 498.366 116.924 522.478 120.72 559.101C133.448 559.557 170.548 560.244 179.671 564.79C173.861 545.448 191.059 476.531 208.924 469.932Z" fill="#1C0311" stroke="#1A1A1A" stroke-linecap="round" stroke-linejoin="round"></path><path d="M717.616 908.023L32.5 908.023C32.5 908.023 88.851 971.255 137 991.5C223.237 1027.76 375.051 964.757 375.051 964.757C375.051 964.757 478.182 1032.06 617.46 1021.49C691.045 1015.92 714.839 984.547 720.913 956.188C736.824 958.456 752.874 959.549 768.939 959.457C888.382 959.457 898.596 907.949 898.596 907.949L717.616 908.023Z" fill="white" stroke="#1A1A1A" stroke-width="2" stroke-linecap="round" stroke-linejoin="round"></path><path d="M501.52 798.512L458.06 813.098C458.06 813.098 458.565 816.517 459.445 823.064C475.272 822.922 490.148 817.772 504.363 811.262C502.641 803.521 501.52 798.512 501.52 798.512Z" fill="#1C0311" stroke="#1A1A1A" stroke-linecap="round" stroke-linejoin="round"></path><path d="M459.445 823.064C460.537 831.179 462.193 844.101 464.164 861.322C477.288 869.414 498.348 865.891 514.059 858.478C510.937 841.719 506.988 823.221 504.364 811.262C490.185 817.771 475.273 822.922 459.445 823.064Z" fill="#FD5B5B" stroke="black" stroke-width="2" stroke-linecap="round" stroke-linejoin="round"></path><path d="M464.164 861.322C464.168 861.394 464.168 861.467 464.164 861.539C439.778 860.635 399.68 879.305 393.415 897.871C432.252 919.908 479.531 903.753 518.382 885.77C517.606 878.701 515.979 868.929 514.03 858.478C498.348 865.913 477.288 869.414 464.164 861.322Z" fill="white" stroke="#1A1A1A" stroke-width="2" stroke-linecap="round" stroke-linejoin="round"></path><path d="M393.458 897.871C392.47 900.583 392.357 903.546 393.136 906.329C408.473 936.54 518.719 908.225 518.917 893.31C518.899 890.789 518.735 888.271 518.426 885.77C479.559 903.753 432.295 919.908 393.458 897.871Z" fill="#1C0311" stroke="#1A1A1A" stroke-linecap="round" stroke-linejoin="round"></path><path d="M851.53 791.756C851.53 792.062 851.53 792.368 851.53 792.674C851.411 823.023 839.477 852.084 818.349 873.479C797.22 894.874 768.623 906.856 738.832 906.795C709.041 906.735 680.491 894.636 659.447 873.155C638.403 851.673 626.584 822.564 626.584 792.215C626.584 761.866 638.403 732.757 659.447 711.276C680.491 689.794 709.041 677.696 738.832 677.635C768.623 677.574 797.22 689.556 818.349 710.952C839.477 732.347 851.411 761.407 851.53 791.756V791.756Z" fill="#1C0311" stroke="#1A1A1A" stroke-linecap="round" stroke-linejoin="round"></path><path d="M851.531 791.756C851.531 792.062 851.531 792.368 851.531 792.674C845.348 814.131 833.821 833.594 818.07 849.169C802.32 864.745 782.881 875.904 761.644 881.561C740.407 887.219 718.094 887.182 696.875 881.455C675.656 875.728 656.252 864.505 640.551 848.878C631.961 833.575 626.938 816.467 625.869 798.872C624.8 781.278 627.714 763.669 634.385 747.404C641.057 731.139 651.307 716.653 664.346 705.064C677.385 693.475 692.864 685.094 709.587 680.566C726.311 676.038 743.831 675.486 760.798 678.951C777.764 682.416 793.722 689.807 807.439 700.552C821.157 711.297 832.268 725.109 839.914 740.922C847.56 756.736 851.537 774.128 851.538 791.756H851.531Z" fill="white" stroke="#1A1A1A" stroke-width="2" stroke-linecap="round" stroke-linejoin="round"></path><path d="M653.594 716.023C653.594 716.023 764.243 745.137 821.15 713.254L806.135 698.697L661.046 706.162L653.594 716.023Z" fill="#1C0311" stroke="#1A1A1A" stroke-linecap="round" stroke-linejoin="round"></path><path d="M521.599 371.416L504.042 390.161L542.139 485.071L615.849 524.889L627.353 504.054L607.246 384.607L521.599 371.416Z" fill="#1C0311" stroke="#1A1A1A" stroke-linecap="round" stroke-linejoin="round"></path><path d="M504.042 390.161L530.634 505.906L615.849 524.89L595.741 405.442L504.042 390.161Z" fill="#FD5B5B" stroke="black" stroke-width="2" stroke-linecap="round" stroke-linejoin="round"></path><path d="M525.351 375.41L515.121 387.645L599.661 402.142L618.069 519.858L624.458 507.877L604.263 388.34L525.351 375.41Z" fill="white" stroke="#1A1A1A" stroke-width="2" stroke-linecap="round" stroke-linejoin="round"></path><path d="M838.253 270.071C838.253 270.071 823.598 335.353 870.979 329.448C918.36 323.543 860.375 257.224 838.253 270.071Z" fill="#1C0311" stroke="#1A1A1A" stroke-linecap="round" stroke-linejoin="round"></path><path d="M309.468 852.902L305.643 857.381C305.643 857.381 227.734 832.627 207.172 866.279C205.916 868.276 205.131 870.543 204.879 872.901C212.067 865.54 332.697 916.944 334.99 921.207C341.541 911.136 346.231 891.63 355.229 876.745C334.624 874.812 320.642 872.886 309.468 852.902Z" fill="white" stroke="#1A1A1A" stroke-width="2" stroke-linecap="round" stroke-linejoin="round"></path><path d="M308.655 853.753C320.885 875.618 331.869 876.028 354.402 878.156C367.827 855.948 384.102 831.985 394.258 818.548C377.631 815.562 361.811 807.134 346.51 796.086L308.655 853.753Z" fill="#FD5B5B" stroke="black" stroke-width="2" stroke-linecap="round" stroke-linejoin="round"></path><path d="M355.156 784.925L346.51 796.123C361.81 807.171 377.631 815.532 394.257 818.585C400.852 809.829 405.249 804.446 405.249 804.446L355.156 784.925Z" fill="#1C0311" stroke="#1A1A1A" stroke-linecap="round" stroke-linejoin="round"></path><path d="M694.966 543.298C694.966 543.298 492.237 492.058 433.08 565.82C405.967 599.599 433.813 812.218 448.857 813.069C466.538 814.069 510.131 806.089 507.479 806.469C507.479 806.469 496.568 627.309 491.116 597.449C561.997 646.076 733.825 722.466 772.691 641.217C787.618 597.464 768.595 534.467 768.595 534.467L694.966 543.298Z" fill="white"></path><path d="M452.213 813.927C451.004 813.927 449.861 813.927 448.813 813.845C447.01 813.74 445.288 811.65 443.391 807.261C435.638 789.345 426.867 736.642 422.983 684.67C420.785 655.131 417.289 584.371 432.509 565.38C446.109 548.404 468.415 536.662 498.803 530.466C523.043 525.516 552.464 524.068 586.245 526.158C643.724 529.704 694.629 542.44 695.135 542.581C695.323 542.629 695.486 542.751 695.586 542.92C695.686 543.09 695.717 543.293 695.67 543.485C695.623 543.677 695.504 543.842 695.337 543.944C695.171 544.046 694.972 544.077 694.783 544.03C694.278 543.903 643.489 531.19 586.135 527.651C552.479 525.576 523.197 527.017 499.081 531.936C469.038 538.065 447.054 549.636 433.645 566.328C423.151 579.406 419.803 622.502 424.434 684.566C428.31 736.395 437.03 788.882 444.724 806.663C446.923 811.717 448.388 812.329 448.886 812.359C464.472 813.24 501.097 806.992 506.71 805.917C505.977 794.16 495.615 626.197 490.398 597.643C490.374 597.501 490.391 597.355 490.447 597.223C490.503 597.09 490.595 596.977 490.713 596.897C490.834 596.815 490.975 596.771 491.12 596.771C491.265 596.771 491.406 596.815 491.526 596.897C516.441 613.969 560.136 638.455 608.125 655.967C644.339 669.18 695.326 682.804 732.477 672.629C751.082 667.531 764.382 656.886 772.003 640.978C786.658 597.957 768.083 535.34 767.892 534.713C767.842 534.526 767.865 534.327 767.956 534.156C768.048 533.986 768.2 533.859 768.382 533.802C768.564 533.745 768.761 533.762 768.931 533.85C769.101 533.938 769.23 534.089 769.292 534.273C769.482 534.907 788.205 598.032 773.373 641.515C773.373 641.515 773.373 641.567 773.373 641.597C765.562 657.931 751.94 668.852 732.888 674.07C695.355 684.342 644.075 670.659 607.664 657.371C560.444 640.142 517.357 616.179 492.157 599.106C497.521 632.438 507.64 796.698 508.212 806.096C508.29 806.211 508.335 806.346 508.342 806.486C508.348 806.626 508.316 806.765 508.248 806.887C508.16 807.037 508.109 807.134 507.655 807.261C506.922 807.455 505.237 807.738 500.957 808.455C497.249 809.082 491.431 810.023 484.77 810.956C474.636 812.352 461.358 813.927 452.213 813.927Z" fill="#1A1A1A"></path><path d="M829.789 534.467C829.789 534.467 888.074 659.476 825.187 698.54C733.759 755.327 511.237 675.623 511.237 675.623L406.927 813.128C406.927 813.128 346.59 795.421 347.572 785C430.376 647.494 424.272 598.539 508.131 586.035C591.989 573.531 639.795 569.858 639.795 569.858L829.789 534.467Z" fill="white"></path><path d="M406.928 813.845C406.86 813.856 406.791 813.856 406.723 813.845C400.487 812.016 345.829 795.652 346.884 784.925C346.893 784.814 346.928 784.706 346.987 784.612C370.736 745.182 387.245 712.888 400.516 686.94C417.018 654.653 428.948 631.325 444.153 615.156C459.739 598.584 478.85 589.648 508.058 585.296C590.986 572.934 639.298 569.157 639.781 569.119C639.975 569.105 640.166 569.169 640.313 569.298C640.46 569.427 640.55 569.609 640.565 569.806C640.58 570.003 640.517 570.198 640.39 570.347C640.264 570.497 640.085 570.59 639.891 570.605C639.408 570.605 591.14 574.42 508.27 586.774C448.842 595.635 435.074 622.561 401.813 687.634C388.557 713.567 372.055 745.861 348.321 785.231C348.145 792.405 382.805 805.238 406.635 812.27L510.637 675.167C510.732 675.042 510.863 674.951 511.012 674.907C511.161 674.863 511.319 674.867 511.465 674.921C551.569 688.624 592.534 699.56 634.08 707.655C672.961 715.12 707.775 718.629 737.555 718.173C774.714 717.613 804.062 710.79 824.799 697.913C856.924 677.959 856.426 634.759 850.359 602.025C843.764 566.402 829.269 535.109 829.108 534.795C829.03 534.617 829.023 534.414 829.09 534.231C829.157 534.047 829.292 533.898 829.466 533.815C829.639 533.732 829.838 533.721 830.019 533.786C830.201 533.851 830.35 533.985 830.434 534.161C830.581 534.474 845.127 565.909 851.773 601.726C855.686 622.8 856.169 641.291 853.143 656.579C849.362 675.824 840.078 690.172 825.554 699.182C804.582 712.209 774.993 719.099 737.555 719.666C707.673 720.129 672.756 716.576 633.773 709.118C592.342 701.033 551.487 690.14 511.48 676.511L407.507 813.554C407.438 813.644 407.351 813.717 407.25 813.768C407.15 813.818 407.04 813.844 406.928 813.845V813.845Z" fill="#1A1A1A"></path><path d="M676.391 541.186C676.391 541.186 665.722 542.223 671.056 557.325C676.391 572.427 727.011 581.81 776.612 575.039C826.214 568.269 838.678 556.683 838.678 556.683L832.853 538.946L676.391 541.186Z" fill="#1C0311" stroke="#1A1A1A" stroke-linecap="round" stroke-linejoin="round"></path><path d="M334.991 921.214C333.379 923.7 331.884 925.932 330.594 927.865C313.139 939.921 200.336 894.213 204.901 872.908C212.068 865.548 332.697 916.981 334.991 921.214Z" fill="#1C0311" stroke="#1A1A1A" stroke-linecap="round" stroke-linejoin="round"></path><path d="M714.721 354.807C704.426 366.004 704.594 373.701 699.744 392.595C686.07 445.805 660.533 531.742 675.877 551.599C708.852 594.306 838.993 548.471 838.993 548.471C859.276 484.967 858.946 372.932 852.036 345.334C845.126 317.736 797.576 310.995 797.576 310.995L714.721 354.807Z" fill="#FD5B5B"></path><path d="M729.45 570.575C724.403 570.575 719.65 570.351 715.19 569.903C696.365 567.992 682.948 561.998 675.305 552.092C661.587 534.31 679.364 466.991 693.624 412.952C695.537 405.688 697.347 398.835 699.003 392.408C699.977 388.608 700.754 385.234 701.443 382.256C704.257 370.095 705.84 363.392 714.157 354.292C714.29 354.147 714.474 354.062 714.668 354.056C714.863 354.05 715.051 354.122 715.193 354.258C715.335 354.394 715.418 354.581 715.425 354.779C715.431 354.977 715.359 355.17 715.226 355.314C707.166 364.123 705.62 370.685 702.872 382.599C702.183 385.585 701.406 388.974 700.417 392.781C698.768 399.216 696.958 406.076 695.038 413.34C681.585 464.251 663.163 533.974 676.426 551.166C693.221 572.942 736.382 570.896 769.62 565.35C803.804 559.646 834.786 549.158 838.376 547.919C850.291 510.377 853.875 460.116 854.952 433.443C856.454 396.275 854.952 360.129 851.288 345.55C844.576 318.743 797.905 311.801 797.436 311.734C797.244 311.706 797.07 311.601 796.953 311.443C796.837 311.285 796.786 311.086 796.813 310.89C796.841 310.696 796.942 310.52 797.096 310.401C797.25 310.282 797.443 310.23 797.634 310.256C799.598 310.532 845.755 317.415 852.709 345.184C856.373 359.883 857.912 396.208 856.373 433.503C855.289 460.332 851.669 510.99 839.615 548.733C839.58 548.843 839.52 548.944 839.44 549.027C839.359 549.11 839.261 549.173 839.153 549.21C838.831 549.322 806.134 560.759 769.833 566.82C754.913 569.321 741.364 570.575 729.45 570.575Z" fill="black"></path><path d="M774.736 334.144V292.601C774.736 292.601 749.88 292.765 744.048 277.94C732.477 248.498 746.891 196.944 781.023 191.204C822.308 184.261 836.502 213.599 823.378 262.935C810.254 312.271 817.684 307.083 819.047 323.103C782.233 343.288 774.736 334.144 774.736 334.144Z" fill="white" stroke="#1A1A1A" stroke-width="2" stroke-linecap="round" stroke-linejoin="round"></path><path d="M738.596 435.653C738.596 435.653 701.1 471.761 628.152 464.124C599.017 461.071 579.635 459.757 566.746 457.406V457.226C561.616 455.629 555.593 454.024 548.587 439.027C541.582 424.03 529.535 422.858 535.72 434.51C541.904 446.163 535.581 450.822 522.53 438.295C509.479 425.769 503.954 425.075 510.806 457.547C516.866 486.221 547.1 485.131 558.619 486.094C560.169 486.242 561.71 486.476 563.236 486.795C628.965 502.703 675.65 522.269 773.285 469.006C765.87 442.595 738.596 435.653 738.596 435.653Z" fill="white" stroke="#1A1A1A" stroke-width="2" stroke-linecap="round" stroke-linejoin="round"></path><path d="M840.062 420.64C828.015 443.035 805.343 463.937 771.328 478.016C744.054 471.067 723.603 439.266 723.603 439.266C723.603 439.266 741.328 428.71 765.869 396.066L840.062 420.64Z" fill="#FD5B5B"></path><path d="M771.329 478.763C771.268 478.771 771.206 478.771 771.145 478.763C743.916 471.828 723.193 440.02 722.988 439.699C722.934 439.613 722.897 439.518 722.881 439.418C722.865 439.317 722.868 439.215 722.892 439.116C722.915 439.019 722.956 438.927 723.014 438.846C723.072 438.766 723.145 438.697 723.229 438.646C723.405 438.542 741.138 427.755 765.291 395.633C765.349 395.555 765.423 395.489 765.506 395.44C765.59 395.391 765.682 395.359 765.777 395.346C765.873 395.334 765.97 395.34 766.063 395.366C766.156 395.391 766.244 395.435 766.32 395.495C766.397 395.554 766.461 395.629 766.509 395.714C766.557 395.799 766.589 395.893 766.601 395.99C766.614 396.088 766.607 396.187 766.582 396.282C766.557 396.377 766.514 396.466 766.456 396.543C744.729 425.433 728.095 437.228 724.636 439.512C727.677 443.991 746.817 470.865 771.27 477.255C811.155 460.72 830.346 437.168 839.418 420.305C839.466 420.219 839.53 420.144 839.607 420.083C839.684 420.023 839.771 419.978 839.865 419.952C839.958 419.926 840.056 419.919 840.152 419.932C840.248 419.944 840.341 419.976 840.425 420.025C840.51 420.074 840.584 420.139 840.643 420.217C840.702 420.295 840.746 420.385 840.772 420.48C840.797 420.575 840.804 420.675 840.792 420.773C840.779 420.871 840.748 420.965 840.7 421.051C831.489 438.161 812.02 462.056 771.592 478.756C771.506 478.774 771.416 478.777 771.329 478.763Z" fill="black"></path><path d="M745.417 207.171C745.417 207.171 754.944 223.841 789.736 207.171C785.639 248.147 794 277.507 818.797 281.575C818.797 281.575 851.846 294.87 857.979 261.188C864.112 227.506 844.613 178.326 812.232 173.489C796.55 171.406 793.18 178.715 793.18 178.715C793.18 178.715 780.569 158.559 768.265 171.07C755.962 183.582 739.101 196.481 745.417 207.171Z" fill="#1C0311" stroke="#1A1A1A" stroke-linecap="round" stroke-linejoin="round"></path><path d="M774.736 303.701C756.666 303.701 758.036 314.608 758.036 314.608C758.036 314.608 753.639 350.231 773.373 350.925C793.106 351.619 828.331 326.79 828.111 320.453C827.891 314.115 819.537 306.851 815.888 306.836C810.187 316.899 780.869 332.217 774.736 326.649V303.701Z" fill="white" stroke="#1A1A1A" stroke-width="2" stroke-linecap="round" stroke-linejoin="round"></path><path d="M787.516 291.72C787.516 291.72 777.989 291.824 774.062 292.556C774.736 303.701 775.329 303.963 775.329 303.963C775.329 303.963 787.003 295.542 787.516 291.72Z" fill="#1C0311" stroke="#1A1A1A" stroke-linecap="round" stroke-linejoin="round"></path><path d="M-55.9373 669.673C-55.9373 669.673 -91.7113 663.552 -110.895 679.482C-179.344 736.336 -258.271 885.225 -193.223 904.179C-109.95 928.418 -14.5868 903.432 -14.5868 903.432C-14.5868 903.432 8.64209 665.634 -55.9373 669.673Z" fill="#FD5B5B" stroke="black" stroke-width="2" stroke-linecap="round" stroke-linejoin="round"></path><path d="M-5.63148 751.325C-7.8298 722.958 -17.3559 696.831 -29.813 670.703C-30.1014 669.986 -30.4888 669.315 -30.9635 668.71C-56.8818 664.903 -71.2295 668.523 -71.2295 668.523C-4.15129 676.168 -50.8071 908.329 -50.8071 908.329L-10.5044 905.06C-0.00378583 854.507 -1.08827 802.916 -5.63148 751.325Z" fill="white" stroke="#1A1A1A" stroke-width="2" stroke-linecap="round" stroke-linejoin="round"></path><path d="M142.154 448.328C142.154 448.328 104.643 494.044 113.349 552.726C140.813 552.726 171.121 557.34 171.121 557.34C171.121 557.34 170.74 470.746 208.924 460.608C193.514 450.471 142.154 448.328 142.154 448.328Z" fill="#FD5B5B" stroke="black" stroke-width="2" stroke-linecap="round" stroke-linejoin="round"></path><path d="M158.89 520.47C158.63 520.469 158.378 520.375 158.179 520.204C157.979 520.034 157.845 519.798 157.799 519.537L152.208 481.241L130.225 516.424C130.064 516.665 129.818 516.834 129.537 516.893C129.257 516.952 128.965 516.898 128.724 516.741C128.482 516.585 128.31 516.338 128.244 516.055C128.178 515.771 128.224 515.472 128.371 515.222L151.936 477.509C152.052 477.306 152.228 477.147 152.439 477.053C152.65 476.959 152.884 476.935 153.109 476.986C153.328 477.032 153.529 477.146 153.684 477.311C153.838 477.477 153.939 477.686 153.974 477.912L159.997 519.178C160.019 519.324 160.012 519.472 159.977 519.614C159.943 519.757 159.881 519.891 159.795 520.009C159.709 520.127 159.601 520.226 159.477 520.302C159.353 520.377 159.216 520.426 159.074 520.447L158.89 520.47Z" fill="#1A1A1A"></path><path d="M156.296 502.688H156.157L139.354 500.621C139.063 500.585 138.797 500.433 138.615 500.198C138.434 499.962 138.352 499.663 138.387 499.366C138.422 499.069 138.571 498.799 138.802 498.614C139.033 498.429 139.326 498.345 139.618 498.381L156.42 500.456C156.565 500.465 156.706 500.502 156.836 500.566C156.967 500.63 157.083 500.719 157.179 500.829C157.276 500.939 157.35 501.067 157.398 501.206C157.445 501.345 157.466 501.493 157.457 501.64C157.449 501.787 157.413 501.931 157.35 502.063C157.287 502.196 157.199 502.315 157.091 502.413C156.984 502.511 156.858 502.586 156.721 502.635C156.585 502.684 156.44 502.704 156.296 502.696V502.688Z" fill="#1A1A1A"></path><path d="M446.219 267.153C446.219 269.392 446.145 271.587 446.013 273.774C443.872 274.266 441.626 273.886 439.756 272.714C431.864 267.645 435.711 252.603 427.482 248.079C423.671 245.997 418.483 247.154 415.215 244.265C411.258 240.741 413.017 234.329 413.097 228.976C413.163 224.968 412.095 221.025 410.022 217.618C407.949 214.21 404.958 211.482 401.405 209.758C397.853 208.034 393.888 207.388 389.985 207.895C386.081 208.403 382.403 210.043 379.39 212.621C374.531 216.786 371.483 223.296 365.657 225.871C359.473 228.611 351.94 225.752 347.433 220.646C342.927 215.539 340.838 208.702 339.563 201.983C338.288 195.265 337.534 188.322 335.101 181.917C333.035 176.559 329.823 171.736 325.699 167.801C340.232 164.658 355.269 164.86 369.715 168.393C384.161 171.925 397.65 178.699 409.199 188.219C420.748 197.739 430.064 209.766 436.469 223.422C442.873 237.078 446.204 252.018 446.219 267.153Z" fill="#FD5B5B" stroke="black" stroke-width="2" stroke-linecap="round" stroke-linejoin="round"></path><path d="M404.846 332.165C401.3 329.321 395.789 330.71 392.572 333.942C389.355 337.174 387.831 341.713 386.351 346.073C384.871 350.432 383.2 354.941 379.756 357.949C372.699 364.16 361.503 361.45 353.208 365.81C351.738 366.604 350.363 367.568 349.111 368.684C348.239 368.684 347.367 368.721 346.495 368.721C329.403 368.715 312.599 364.234 297.696 355.707C282.793 347.181 270.29 334.896 261.389 320.032C252.487 305.167 247.484 288.221 246.861 270.82C246.238 253.419 250.015 236.147 257.83 220.66C265.106 221.768 271.675 225.714 276.149 231.664C279.659 236.434 281.652 242.272 285.47 246.788C290.805 253.103 299.722 257.037 301.459 265.182C303.166 273.177 296.923 280.366 292.014 286.83C287.192 293.198 283.22 300.446 281.879 308.389C280.538 316.332 282.253 325.029 287.58 330.978C292.908 336.928 302.141 339.376 309.117 335.599C313.99 332.979 317.177 327.925 321.654 324.708C329.715 318.907 342.025 320.4 348.554 327.97C351.559 331.449 353.325 335.838 355.772 339.742C358.22 343.646 361.803 347.304 366.317 347.827C371.674 348.446 376.488 344.527 379.947 340.31C383.405 336.092 386.395 331.195 391.121 328.575C395.848 325.954 403.095 326.992 404.846 332.165Z" fill="#FD5B5B" stroke="black" stroke-width="2" stroke-linecap="round" stroke-linejoin="round"></path><path d="M446.02 273.774C444.399 299.056 433.562 322.809 415.635 340.371C397.709 357.933 373.988 368.036 349.126 368.699C350.378 367.583 351.752 366.619 353.222 365.825C361.517 361.466 372.714 364.175 379.77 357.964C383.2 354.978 384.9 350.432 386.365 346.088C387.831 341.743 389.362 337.189 392.587 333.957C395.811 330.725 401.314 329.336 404.861 332.18C403.109 326.992 395.84 325.977 391.114 328.605C386.387 331.232 383.398 336.129 379.939 340.34C376.48 344.55 371.666 348.476 366.309 347.857C361.795 347.334 358.249 343.669 355.765 339.772C353.281 335.876 351.551 331.479 348.547 328C342.018 320.43 329.737 318.937 321.647 324.738C317.14 327.955 313.982 333.009 309.109 335.629C302.133 339.406 292.885 336.958 287.573 331.008C282.26 325.059 280.568 316.355 281.872 308.419C283.176 300.484 287.185 293.228 292.006 286.86C296.916 280.381 303.159 273.192 301.452 265.212C299.715 257.067 290.797 253.133 285.462 246.818C281.645 242.302 279.652 236.464 276.142 231.694C271.667 225.744 265.099 221.799 257.822 220.69C264.122 208.229 272.878 197.225 283.543 188.367C285.081 189.606 286.386 191.144 287.815 192.525C293.172 197.683 300.229 200.612 307.6 200.737C311.82 200.804 316.598 199.527 318.591 195.72C320.276 192.465 319.324 188.427 317.668 185.15C316.012 181.872 313.711 178.946 312.538 175.445C312.143 174.29 311.928 173.078 311.901 171.854C316.42 170.146 321.057 168.776 325.772 167.756C329.897 171.692 333.108 176.514 335.174 181.872C337.607 188.277 338.325 195.205 339.636 201.938C340.948 208.672 342.993 215.54 347.506 220.601C352.02 225.662 359.546 228.574 365.73 225.826C371.593 223.251 374.604 216.741 379.463 212.576C382.476 209.998 386.154 208.358 390.058 207.85C393.961 207.343 397.926 207.99 401.478 209.713C405.031 211.437 408.022 214.166 410.095 217.573C412.168 220.981 413.236 224.924 413.17 228.932C413.075 234.284 411.331 240.697 415.288 244.22C418.556 247.109 423.744 245.952 427.555 248.035C435.784 252.514 431.951 267.571 439.829 272.669C441.675 273.839 443.894 274.235 446.02 273.774V273.774Z" fill="white" stroke="#1A1A1A" stroke-width="2" stroke-linecap="round" stroke-linejoin="round"></path><path d="M253.579 304.828C253.434 304.828 253.293 304.783 253.173 304.701C253.053 304.618 252.959 304.501 252.904 304.365C252.849 304.228 252.835 304.078 252.864 303.933C252.893 303.789 252.963 303.656 253.066 303.552L382.035 173.661C382.173 173.521 382.359 173.443 382.554 173.444C382.748 173.445 382.934 173.524 383.071 173.664C383.208 173.805 383.285 173.995 383.284 174.193C383.284 174.392 383.206 174.581 383.068 174.721L254.1 304.612C254.031 304.681 253.95 304.736 253.861 304.773C253.771 304.81 253.676 304.829 253.579 304.828Z" fill="#1A1A1A"></path><path d="M333.408 368.61C333.217 368.611 333.032 368.536 332.895 368.401C332.758 368.261 332.682 368.071 332.682 367.874C332.682 367.677 332.758 367.488 332.895 367.348L444.276 249.505C444.343 249.435 444.423 249.378 444.512 249.339C444.6 249.3 444.695 249.279 444.791 249.277C444.887 249.275 444.983 249.293 445.073 249.329C445.162 249.365 445.244 249.419 445.313 249.487C445.383 249.555 445.438 249.636 445.477 249.726C445.515 249.816 445.536 249.913 445.537 250.011C445.539 250.109 445.522 250.206 445.486 250.298C445.451 250.389 445.399 250.472 445.332 250.543L333.95 368.386C333.88 368.459 333.795 368.517 333.702 368.555C333.608 368.594 333.508 368.612 333.408 368.61Z" fill="#1A1A1A"></path><path d="M419.296 337.331C419.115 337.331 418.94 337.261 418.805 337.137L272.031 199.594C271.959 199.528 271.901 199.448 271.86 199.358C271.819 199.269 271.796 199.172 271.792 199.074C271.788 198.975 271.803 198.877 271.836 198.784C271.87 198.691 271.921 198.607 271.987 198.534C272.124 198.395 272.31 198.317 272.503 198.317C272.697 198.317 272.883 198.395 273.02 198.534L419.795 336.077C419.937 336.211 420.022 336.397 420.03 336.594C420.038 336.791 419.969 336.984 419.839 337.13C419.766 337.199 419.681 337.252 419.588 337.287C419.495 337.322 419.395 337.337 419.296 337.331Z" fill="#1A1A1A"></path><path d="M416.307 340.444C372.516 338.16 337.753 324.14 312.986 298.789C289.537 274.826 275.724 241.555 271.848 199.885C271.839 199.787 271.849 199.688 271.878 199.595C271.907 199.501 271.954 199.413 272.016 199.338C272.078 199.262 272.154 199.2 272.239 199.154C272.325 199.108 272.418 199.08 272.514 199.072C272.611 199.063 272.708 199.073 272.8 199.103C272.892 199.132 272.978 199.18 273.052 199.243C273.126 199.306 273.187 199.383 273.232 199.47C273.277 199.558 273.305 199.653 273.313 199.751C281.264 285.113 332.082 334.547 416.402 338.951C416.596 338.951 416.783 339.03 416.92 339.17C417.057 339.31 417.135 339.499 417.135 339.697C417.135 339.895 417.057 340.085 416.92 340.225C416.783 340.365 416.596 340.444 416.402 340.444H416.307Z" fill="#1A1A1A"></path><path d="M361.07 353.254C356.282 353.258 351.499 352.941 346.752 352.306C326.542 349.574 308.296 340.847 293.992 327.059C279.065 312.682 268.982 293.512 264.835 271.617C260.504 248.751 262.929 223.841 271.855 199.557C271.884 199.46 271.933 199.37 271.998 199.293C272.063 199.216 272.142 199.153 272.232 199.108C272.321 199.063 272.419 199.038 272.519 199.033C272.618 199.028 272.718 199.043 272.811 199.079C272.905 199.115 272.99 199.169 273.062 199.24C273.134 199.31 273.191 199.395 273.23 199.489C273.269 199.582 273.288 199.683 273.287 199.785C273.286 199.886 273.265 199.987 273.225 200.08C255.638 247.856 263.999 296.117 295.003 325.977C324.864 354.732 370.105 359.607 416.028 339.018C416.204 338.951 416.398 338.955 416.571 339.029C416.744 339.104 416.882 339.243 416.957 339.418C417.032 339.593 417.039 339.791 416.975 339.971C416.911 340.151 416.782 340.299 416.614 340.384C397.504 348.947 378.884 353.254 361.07 353.254Z" fill="#1A1A1A"></path><path d="M421.956 334.688C421.768 334.689 421.587 334.615 421.451 334.483C421.314 334.351 421.233 334.171 421.224 333.979C417.201 254.022 367.482 208.873 273.453 199.788C273.258 199.77 273.079 199.673 272.955 199.52C272.83 199.366 272.771 199.169 272.789 198.971C272.808 198.773 272.903 198.591 273.053 198.464C273.204 198.337 273.398 198.277 273.592 198.295C316.979 202.483 351.493 214.614 376.18 234.359C404.876 257.306 420.528 290.802 422.697 333.897C422.702 333.998 422.686 334.099 422.652 334.194C422.617 334.289 422.564 334.376 422.495 334.449C422.427 334.523 422.344 334.581 422.253 334.621C422.162 334.661 422.063 334.681 421.964 334.681L421.956 334.688Z" fill="#1A1A1A"></path><path d="M318.548 195.735C316.584 199.542 311.806 200.819 307.556 200.751C300.186 200.627 293.128 197.698 287.771 192.54C286.342 191.159 285.038 189.621 283.499 188.382C291.978 181.34 301.54 175.771 311.799 171.899C311.826 173.123 312.041 174.334 312.436 175.49C313.601 178.976 315.917 181.91 317.566 185.194C319.215 188.479 320.233 192.48 318.548 195.735Z" fill="#FD5B5B" stroke="black" stroke-width="2" stroke-linecap="round" stroke-linejoin="round"></path><path d="M421.956 334.688C421.855 334.689 421.756 334.669 421.663 334.629C421.491 334.546 421.358 334.398 421.291 334.217C421.224 334.036 421.229 333.836 421.304 333.658C439.836 290.757 435.644 250.177 409.799 222.325C379.287 189.434 324.629 180.364 273.796 199.758C273.706 199.793 273.61 199.809 273.513 199.806C273.417 199.802 273.322 199.779 273.234 199.738C273.146 199.697 273.067 199.639 273.001 199.567C272.936 199.495 272.885 199.41 272.851 199.318C272.785 199.133 272.793 198.928 272.874 198.749C272.955 198.57 273.102 198.431 273.283 198.362C299.084 188.516 325.926 185.672 350.914 190.091C375.19 194.406 395.928 205.193 410.869 221.295C423.236 234.596 431.15 251.546 433.475 269.713C436.106 289.809 432.464 311.517 422.645 334.263C422.583 334.395 422.485 334.505 422.363 334.581C422.241 334.656 422.099 334.694 421.956 334.688Z" fill="#1A1A1A"></path><path d="M297.041 867.249C296.921 867.249 296.802 867.22 296.696 867.162C296.59 867.105 296.5 867.022 296.432 866.921C296.117 866.637 291.977 863.688 255.441 858.874C255.29 858.853 255.149 858.786 255.037 858.68C254.925 858.574 254.849 858.436 254.818 858.284C253.646 852.454 242.288 849.371 242.178 849.326C242.084 849.301 241.997 849.258 241.92 849.199C241.843 849.14 241.778 849.066 241.729 848.982C241.68 848.897 241.648 848.804 241.634 848.706C241.621 848.609 241.626 848.51 241.65 848.415C241.674 848.32 241.716 848.231 241.774 848.152C241.832 848.074 241.905 848.008 241.988 847.958C242.071 847.908 242.163 847.875 242.258 847.861C242.354 847.848 242.451 847.853 242.544 847.878C243.035 848.012 254.269 851.073 256.122 857.44C277.893 860.322 292.431 863.158 296.557 865.271C296.967 863.091 297.59 857.955 295.025 855.119C294.909 854.971 294.851 854.784 294.865 854.594C294.879 854.405 294.963 854.229 295.1 854.1C295.237 853.972 295.417 853.902 295.603 853.904C295.79 853.906 295.968 853.98 296.103 854.111C299.957 858.366 297.839 866.346 297.744 866.689C297.702 866.843 297.612 866.98 297.488 867.078C297.364 867.176 297.212 867.231 297.055 867.234L297.041 867.249Z" fill="#1A1A1A"></path><path d="M433.871 887.786C433.746 887.786 433.624 887.754 433.515 887.692C433.406 887.631 433.314 887.542 433.248 887.435C430.17 882.351 414.562 881.052 408.81 880.978C408.616 880.978 408.429 880.899 408.292 880.759C408.154 880.619 408.077 880.429 408.077 880.231C408.077 880.033 408.154 879.843 408.292 879.703C408.429 879.563 408.616 879.485 408.81 879.485C409.667 879.485 429.262 879.82 434.12 886.113C452.439 878.148 463.277 874.573 466.135 873.669C465.146 871.377 461.262 864.338 450.322 863.465C450.13 863.447 449.952 863.354 449.827 863.205C449.703 863.055 449.641 862.862 449.655 862.666C449.67 862.469 449.761 862.286 449.908 862.158C450.055 862.029 450.246 861.965 450.439 861.979C464.274 863.084 467.762 873.819 467.798 873.923C467.828 874.018 467.838 874.117 467.829 874.216C467.821 874.314 467.793 874.41 467.747 874.498C467.7 874.586 467.637 874.664 467.56 874.727C467.483 874.79 467.395 874.836 467.3 874.864C467.19 874.864 455.935 878.238 434.149 887.726C434.061 887.762 433.966 887.783 433.871 887.786Z" fill="#1A1A1A"></path><path d="M656.08 222L649.211 196.843C657.585 195.439 665.043 192.207 670.433 187.648C675.823 183.089 678.844 177.455 679.03 171.618L679.991 140.646C680.103 137.153 679.198 133.68 677.325 130.425C675.452 127.17 672.649 124.196 669.076 121.675C665.503 119.153 661.23 117.134 656.503 115.731C651.775 114.328 646.685 113.57 641.524 113.501L535.059 112.006C524.648 111.859 514.576 114.517 507.058 119.394C499.541 124.271 495.193 130.969 494.97 138.015L494.009 168.987C493.79 176.034 497.716 182.851 504.923 187.939C512.131 193.027 522.029 195.969 532.442 196.118L607.663 197.194L656.08 222Z" fill="white" stroke="#1A1A1A" stroke-linecap="round" stroke-linejoin="round"></path><path d="M429.922 218.697C429.922 218.697 388.491 141.121 423.774 135.582C483.591 126.198 429.922 218.697 429.922 218.697Z" fill="white" stroke="#1A1A1A" stroke-width="2" stroke-linecap="round" stroke-linejoin="round"></path><path d="M430.786 168.63C437.35 168.63 442.672 163.209 442.672 156.521C442.672 149.834 437.35 144.413 430.786 144.413C424.222 144.413 418.9 149.834 418.9 156.521C418.9 163.209 424.222 168.63 430.786 168.63Z" fill="#1C0311" stroke="#1A1A1A" stroke-linecap="round" stroke-linejoin="round"></path><path d="M765.584 642.59C750.372 642.59 740.069 633.759 733.862 625.742C729.07 619.454 725.354 612.388 722.871 604.84C722.843 604.745 722.833 604.647 722.842 604.549C722.852 604.451 722.88 604.356 722.926 604.269C722.971 604.182 723.033 604.106 723.108 604.043C723.183 603.981 723.269 603.935 723.362 603.906C723.455 603.878 723.552 603.868 723.649 603.878C723.745 603.889 723.839 603.918 723.924 603.965C724.009 604.012 724.084 604.076 724.145 604.154C724.206 604.231 724.251 604.319 724.278 604.414C726.699 611.796 730.326 618.708 735.005 624.861C745.044 637.798 757.677 643.06 772.538 640.492C772.732 640.46 772.931 640.507 773.092 640.624C773.252 640.741 773.36 640.918 773.392 641.116C773.424 641.314 773.377 641.517 773.263 641.68C773.148 641.843 772.974 641.953 772.78 641.985C770.402 642.394 767.995 642.596 765.584 642.59Z" fill="#1A1A1A"></path><path d="M520.652 150.76H525.028C524.991 147.224 522.175 144.832 517.781 144.832C513.46 144.832 510.348 147.187 510.376 150.705C510.366 153.576 512.379 155.192 515.648 155.94L517.624 156.401C519.701 156.881 520.634 157.445 520.652 158.506C520.634 159.661 519.553 160.464 517.716 160.464C515.694 160.464 514.364 159.522 514.263 157.703H509.886C509.942 162.126 513.016 164.24 517.771 164.24C522.48 164.24 525.268 162.107 525.287 158.516C525.268 155.496 523.228 153.65 519.498 152.828L517.873 152.459C516.156 152.089 515.066 151.517 515.103 150.391C515.112 149.357 515.999 148.609 517.771 148.609C519.553 148.609 520.532 149.412 520.652 150.76ZM530.975 164H544.16V160.288H535.545V156.401H543.486V152.68H535.545V148.803H544.16V145.091H530.975V164ZM550.402 164H554.972V157.528H557.318L560.771 164H565.756L561.832 156.798C563.91 155.857 565.11 154.001 565.11 151.388C565.11 147.501 562.46 145.091 558.213 145.091H550.402V164ZM554.972 153.927V148.775H557.225C559.275 148.775 560.374 149.634 560.374 151.388C560.374 153.142 559.275 153.927 557.225 153.927H554.972ZM574.732 145.091H569.617L575.997 164H582.081L588.461 145.091H583.346L579.117 158.94H578.96L574.732 145.091ZM598.447 145.091H593.877V164H598.447V145.091ZM621.86 151.942C621.399 147.418 618.029 144.832 613.458 144.832C608.417 144.832 604.493 148.295 604.493 154.545C604.493 160.768 608.325 164.259 613.458 164.259C618.647 164.259 621.519 160.732 621.86 157.38L617.244 157.352C616.921 159.171 615.554 160.251 613.551 160.251C610.855 160.251 609.156 158.303 609.156 154.545C609.156 150.935 610.818 148.839 613.578 148.839C615.656 148.839 617.013 150.049 617.244 151.942H621.86ZM627.856 164H641.04V160.288H632.426V156.401H640.366V152.68H632.426V148.803H641.04V145.091H627.856V164ZM657.503 150.76H661.88C661.843 147.224 659.027 144.832 654.632 144.832C650.311 144.832 647.199 147.187 647.227 150.705C647.218 153.576 649.231 155.192 652.499 155.94L654.475 156.401C656.552 156.881 657.485 157.445 657.503 158.506C657.485 159.661 656.405 160.464 654.567 160.464C652.545 160.464 651.216 159.522 651.114 157.703H646.738C646.793 162.126 649.868 164.24 654.623 164.24C659.332 164.24 662.12 162.107 662.138 158.516C662.12 155.496 660.079 153.65 656.349 152.828L654.724 152.459C653.007 152.089 651.917 151.517 651.954 150.391C651.964 149.357 652.85 148.609 654.623 148.609C656.405 148.609 657.383 149.412 657.503 150.76Z" fill="#FD5B5B"></path></g></g><defs><clipPath id="clip0"><rect width="1000" height="1222" fill="white"></rect></clipPath><clipPath id="clip1"><rect width="1486" height="914.463" fill="white" transform="translate(-491 108.962)"></rect></clipPath></defs></svg>