<svg xmlns="http://www.w3.org/2000/svg" width="64" height="64" viewBox="0 0 64 64" fill="none"><path d="M34.419 55.334C47.306 55.334 57.753 44.887 57.753 32C57.753 19.113 47.306 8.66602 34.419 8.66602C21.532 8.66602 11.085 19.113 11.085 32C11.085 44.887 21.532 55.334 34.419 55.334Z" fill="#FBD0D0"></path><path d="M12.55 23.927C13.3967 24.8206 14.4175 25.5312 15.5494 26.015C16.6814 26.4988 17.9005 26.7455 19.1315 26.7399C20.3624 26.7343 21.5792 26.4765 22.7067 25.9824C23.8342 25.4884 24.8485 24.7685 25.687 23.8672C26.5255 22.9659 27.1705 21.9024 27.582 20.7422C27.9936 19.582 28.163 18.3498 28.0799 17.1216C27.9968 15.8934 27.6628 14.6953 27.0987 13.6012C26.5346 12.507 25.7523 11.5401 24.8 10.76C21.9898 12.0371 19.4605 13.8582 17.358 16.1182C15.2554 18.3781 13.6213 21.0321 12.55 23.927V23.927Z" fill="white"></path><path d="M57.467 28.525C50.0002 30.9352 42.2536 32.3721 34.419 32.8C24.619 33.4 17.043 31.794 11.243 29.381C10.8431 32.6946 11.1584 36.0554 12.1678 39.2367C13.1772 42.418 14.8571 45.3458 17.0943 47.8227C19.3315 50.2995 22.0739 52.2677 25.1364 53.5945C28.199 54.9213 31.5104 55.5759 34.8475 55.514C38.1845 55.4521 41.4695 54.6753 44.4807 53.2359C47.492 51.7964 50.1595 49.7279 52.3034 47.1699C54.4472 44.6118 56.0175 41.6237 56.9082 38.4072C57.799 35.1906 57.9896 31.8205 57.467 28.524V28.525Z" fill="#5E3131"></path><path d="M16.281 46.663C18.8446 49.8398 22.1976 52.2877 26.0045 53.7616C29.8114 55.2355 33.9385 55.6838 37.9731 55.0616C42.0076 54.4394 45.808 52.7686 48.9939 50.2162C52.1798 47.6639 54.6396 44.3196 56.127 40.518C51.794 39.936 45.074 40.099 36.714 43.789C28.682 47.335 21.6 48.268 16.281 46.663Z" fill="#670A0A"></path><path d="M40.787 36.818C38.631 37.237 15.916 41.884 15.916 41.884C19.644 41.225 35.343 40.084 35.343 40.084C35.343 40.084 38.243 41.931 39.829 40.984C40.184 40.772 40.483 40.494 41.329 40.031C42.175 39.568 41.5 40.057 43.14 40.279C44.78 40.501 43.812 39.789 45.476 39.865C47.14 39.941 47.92 37.814 47.896 36.547C47.872 35.28 48.145 35.159 48.324 35.013C48.503 34.867 42.943 36.4 40.787 36.818Z" fill="white"></path><path d="M53.2 18.191C52.5867 18.3696 52.0609 18.7683 51.7236 19.3107C51.3862 19.8531 51.261 20.501 51.372 21.13C51.2729 20.8247 51.0613 20.5685 50.7803 20.4135C50.4992 20.2585 50.1697 20.2162 49.8586 20.2952C49.5475 20.3742 49.2781 20.5686 49.1051 20.839C48.9321 21.1093 48.8684 21.4354 48.927 21.751C48.8941 22.3438 49.0362 22.9333 49.3356 23.446C49.635 23.9588 50.0785 24.3722 50.611 24.635C52.5645 26.1598 54.8734 27.1632 57.321 27.551C56.6613 24.1631 55.2534 20.9653 53.2 18.191V18.191Z" fill="white"></path><path d="M61.038 25.748C59.996 25.283 55.716 26.448 55.021 26.328C54.326 26.208 52.821 24.819 52.013 24.587C51.745 24.51 47.689 25.262 42.393 26.301L17.953 18.191H14.558L29.589 28.865C22.238 30.358 15.916 31.665 15.916 31.665L5.716 23.538V30.038L10.464 41.879H15.915L40.786 36.813L53.447 45.804V43.847L49.232 35.1L59.7 32.965C60.684 32.7915 61.5713 32.2663 62.1968 31.4872C62.8223 30.7081 63.1433 29.7282 63.1 28.73C63.0482 28.0957 62.8304 27.4862 62.4685 26.9628C62.1065 26.4393 61.6132 26.0204 61.038 25.748V25.748Z" fill="#D21313"></path><path d="M61.038 25.748C59.996 25.283 55.716 26.448 55.021 26.328C54.326 26.208 52.821 24.819 52.013 24.587C51.745 24.51 47.689 25.262 42.393 26.301L17.953 18.191H14.558L15.172 18.626H17.837L42.652 28.726C42.652 28.726 58.44 26.426 60.413 26.426C62.386 26.426 63.107 28.726 63.107 28.726C63.0538 28.0917 62.8347 27.4825 62.4715 26.9598C62.1083 26.437 61.6139 26.0191 61.038 25.748V25.748Z" fill="#FBD0D0"></path><path d="M15.916 31.668L5.716 23.542V24.327L14.931 33.813L32.117 30.662L29.587 28.862C22.238 30.358 15.916 31.668 15.916 31.668Z" fill="#FBD0D0"></path><path d="M16.329 36.19C14.9934 36.259 13.6808 36.5658 12.453 37.096C11.443 37.616 0.877991 40.264 0.877991 40.264C0.877991 40.264 19.069 37.3 19.078 36.937C19.087 36.574 17.647 36.084 16.329 36.19Z" fill="white"></path></svg>