<svg xmlns="http://www.w3.org/2000/svg" width="64" height="64" viewBox="0 0 64 64" fill="none"><path d="M32 55.334C44.887 55.334 55.334 44.887 55.334 32C55.334 19.113 44.887 8.66602 32 8.66602C19.113 8.66602 8.66602 19.113 8.66602 32C8.66602 44.887 19.113 55.334 32 55.334Z" fill="#FBD0D0"></path><path d="M32 8.66599C28.2831 8.66462 24.6203 9.55631 21.32 11.266C21.4332 14.0226 22.6079 16.6287 24.5984 18.5392C26.5889 20.4496 29.241 21.5164 32 21.5164C34.759 21.5164 37.4111 20.4496 39.4016 18.5392C41.3921 16.6287 42.5668 14.0226 42.68 11.266C39.3797 9.55631 35.7169 8.66462 32 8.66599V8.66599Z" fill="white"></path><path d="M50.131 19.968H43.761V39.654H50.131V19.968Z" fill="#FBD0D0"></path><path d="M53.22 22.337C52.3338 22.1932 51.4749 21.9146 50.673 21.511C50.473 21.3575 50.2362 21.2592 49.9864 21.2259C49.7365 21.1925 49.4822 21.2253 49.249 21.321C49.249 21.321 49.181 20.621 48.188 20.353C47.195 20.085 47.621 20.76 46.946 20.353C45.9672 19.8392 44.834 19.7022 43.761 19.968C42.072 20.194 41.042 22.768 41.042 22.768H53.427C53.364 22.62 53.286 22.482 53.22 22.337Z" fill="white"></path><path d="M47.553 39.655H54.022C55.8033 34.6118 55.7698 29.1051 53.927 24.084H47.553V39.655Z" fill="#5E3131"></path><path d="M8.66602 32C8.67096 34.6072 9.11448 37.195 9.97801 39.655H17.1V21.511H11.177C9.5279 24.7616 8.66767 28.355 8.66602 32V32Z" fill="#FBD0D0"></path><path d="M9.97803 39.655C11.5635 44.2334 14.5364 48.2038 18.4833 51.0139C22.4303 53.824 27.1549 55.3341 32 55.3341C36.8451 55.3341 41.5698 53.824 45.5167 51.0139C49.4636 48.2038 52.4366 44.2334 54.022 39.655H9.97803Z" fill="#670A0A"></path><path d="M43.761 21.511H20.239V53.278H43.761V21.511Z" fill="#D21313"></path><path d="M45.685 17.281H18.315C17.9687 17.281 17.688 17.5617 17.688 17.908V20.884C17.688 21.2303 17.9687 21.511 18.315 21.511H45.685C46.0313 21.511 46.312 21.2303 46.312 20.884V17.908C46.312 17.5617 46.0313 17.281 45.685 17.281Z" fill="#D21313"></path><path d="M45.685 20.6H18.315C18.1486 20.5997 17.9891 20.5335 17.8716 20.4157C17.754 20.298 17.688 20.1384 17.688 19.972V20.888C17.688 21.0543 17.754 21.2138 17.8716 21.3314C17.9892 21.4489 18.1487 21.515 18.315 21.515H45.685C45.8513 21.515 46.0108 21.4489 46.1283 21.3314C46.2459 21.2138 46.312 21.0543 46.312 20.888V19.972C46.312 20.1384 46.246 20.298 46.1284 20.4157C46.0108 20.5335 45.8514 20.5997 45.685 20.6V20.6Z" fill="#5E3131"></path><path d="M29.759 44.526H34.241C34.5511 44.526 34.8484 44.6492 35.0676 44.8684C35.2869 45.0876 35.41 45.385 35.41 45.695V53.279H28.59V45.695C28.59 45.385 28.7132 45.0876 28.9324 44.8684C29.1516 44.6492 29.449 44.526 29.759 44.526Z" fill="#5E3131"></path><path d="M23.962 41.216C23.5151 41.216 23.0865 41.3933 22.7702 41.7091C22.4539 42.0248 22.2758 42.4531 22.275 42.9V47.245H25.649V42.9C25.6482 42.4531 25.4701 42.0248 25.1539 41.7091C24.8376 41.3933 24.4089 41.216 23.962 41.216V41.216Z" fill="#FBD0D0"></path><path d="M25.649 43.281H22.275C22.2617 43.281 22.249 43.2757 22.2396 43.2664C22.2302 43.257 22.225 43.2443 22.225 43.231C22.225 43.2177 22.2302 43.205 22.2396 43.1956C22.249 43.1863 22.2617 43.181 22.275 43.181H25.649C25.6622 43.181 25.675 43.1863 25.6843 43.1956C25.6937 43.205 25.699 43.2177 25.699 43.231C25.699 43.2443 25.6937 43.257 25.6843 43.2664C25.675 43.2757 25.6622 43.281 25.649 43.281V43.281Z" fill="#D21313"></path><path d="M25.649 45.005H22.275C22.2617 45.005 22.249 44.9997 22.2396 44.9904C22.2302 44.981 22.225 44.9683 22.225 44.955C22.225 44.9417 22.2302 44.929 22.2396 44.9196C22.249 44.9103 22.2617 44.905 22.275 44.905H25.649C25.6622 44.905 25.675 44.9103 25.6843 44.9196C25.6937 44.929 25.699 44.9417 25.699 44.955C25.699 44.9683 25.6937 44.981 25.6843 44.9904C25.675 44.9997 25.6622 45.005 25.649 45.005V45.005Z" fill="#D21313"></path><path d="M25.649 46.73H22.275C22.2617 46.73 22.249 46.7247 22.2396 46.7154C22.2302 46.706 22.225 46.6933 22.225 46.68C22.225 46.6667 22.2302 46.654 22.2396 46.6446C22.249 46.6353 22.2617 46.63 22.275 46.63H25.649C25.6622 46.63 25.675 46.6353 25.6843 46.6446C25.6937 46.654 25.699 46.6667 25.699 46.68C25.699 46.6933 25.6937 46.706 25.6843 46.7154C25.675 46.7247 25.6622 46.73 25.649 46.73V46.73Z" fill="#D21313"></path><path d="M23.962 47.3C23.9555 47.3 23.949 47.2987 23.943 47.2962C23.937 47.2937 23.9315 47.29 23.927 47.2853C23.9224 47.2806 23.9188 47.2751 23.9164 47.2691C23.914 47.263 23.9128 47.2565 23.913 47.25V41.216C23.913 41.2027 23.9182 41.19 23.9276 41.1806C23.937 41.1713 23.9497 41.166 23.963 41.166C23.9762 41.166 23.989 41.1713 23.9983 41.1806C24.0077 41.19 24.013 41.2027 24.013 41.216V47.248C24.0132 47.2548 24.0121 47.2616 24.0097 47.268C24.0072 47.2744 24.0035 47.2802 23.9987 47.285C23.9939 47.2899 23.9882 47.2937 23.9819 47.2963C23.9756 47.2989 23.9688 47.3001 23.962 47.3V47.3Z" fill="#D21313"></path><path d="M26.23 47.248H21.694V47.835H26.23V47.248Z" fill="#5E3131"></path><path d="M40.038 41.216C39.5911 41.216 39.1625 41.3933 38.8462 41.7091C38.5299 42.0248 38.3518 42.4531 38.351 42.9V47.245H41.725V42.9C41.7242 42.4531 41.5461 42.0248 41.2298 41.7091C40.9136 41.3933 40.4849 41.216 40.038 41.216V41.216Z" fill="#FBD0D0"></path><path d="M41.725 43.281H38.351C38.3378 43.281 38.325 43.2757 38.3157 43.2664C38.3063 43.257 38.301 43.2443 38.301 43.231C38.301 43.2177 38.3063 43.205 38.3157 43.1956C38.325 43.1863 38.3378 43.181 38.351 43.181H41.725C41.7383 43.181 41.751 43.1863 41.7604 43.1956C41.7698 43.205 41.775 43.2177 41.775 43.231C41.775 43.2443 41.7698 43.257 41.7604 43.2664C41.751 43.2757 41.7383 43.281 41.725 43.281V43.281Z" fill="#D21313"></path><path d="M41.725 45.005H38.351C38.3378 45.005 38.325 44.9997 38.3157 44.9904C38.3063 44.981 38.301 44.9683 38.301 44.955C38.301 44.9417 38.3063 44.929 38.3157 44.9196C38.325 44.9103 38.3378 44.905 38.351 44.905H41.725C41.7383 44.905 41.751 44.9103 41.7604 44.9196C41.7698 44.929 41.775 44.9417 41.775 44.955C41.775 44.9683 41.7698 44.981 41.7604 44.9904C41.751 44.9997 41.7383 45.005 41.725 45.005V45.005Z" fill="#D21313"></path><path d="M41.725 46.73H38.351C38.3378 46.73 38.325 46.7247 38.3157 46.7154C38.3063 46.706 38.301 46.6933 38.301 46.68C38.301 46.6667 38.3063 46.654 38.3157 46.6446C38.325 46.6353 38.3378 46.63 38.351 46.63H41.725C41.7383 46.63 41.751 46.6353 41.7604 46.6446C41.7698 46.654 41.775 46.6667 41.775 46.68C41.775 46.6933 41.7698 46.706 41.7604 46.7154C41.751 46.7247 41.7383 46.73 41.725 46.73Z" fill="#D21313"></path><path d="M40.038 47.3C40.0247 47.3 40.012 47.2947 40.0026 47.2854C39.9932 47.276 39.988 47.2633 39.988 47.25V41.216C39.988 41.2027 39.9932 41.19 40.0026 41.1806C40.012 41.1713 40.0247 41.166 40.038 41.166C40.0512 41.166 40.064 41.1713 40.0733 41.1806C40.0827 41.19 40.088 41.2027 40.088 41.216V47.248C40.0882 47.2547 40.0872 47.2615 40.0848 47.2677C40.0824 47.274 40.0787 47.2798 40.0741 47.2847C40.0694 47.2895 40.0638 47.2934 40.0576 47.296C40.0514 47.2986 40.0447 47.3 40.038 47.3V47.3Z" fill="#D21313"></path><path d="M42.306 47.248H37.77V47.835H42.306V47.248Z" fill="#5E3131"></path><path d="M23.962 31.991C23.5146 31.991 23.0855 32.1687 22.7691 32.4851C22.4528 32.8015 22.275 33.2306 22.275 33.678V38.023H25.649V33.678C25.649 33.2306 25.4713 32.8015 25.1549 32.4851C24.8385 32.1687 24.4094 31.991 23.962 31.991V31.991Z" fill="#FBD0D0"></path><path d="M25.649 34.056H22.275C22.2617 34.056 22.249 34.0507 22.2396 34.0413C22.2302 34.032 22.225 34.0193 22.225 34.006C22.225 33.9927 22.2302 33.98 22.2396 33.9706C22.249 33.9613 22.2617 33.956 22.275 33.956H25.649C25.6622 33.956 25.675 33.9613 25.6843 33.9706C25.6937 33.98 25.699 33.9927 25.699 34.006C25.699 34.0193 25.6937 34.032 25.6843 34.0413C25.675 34.0507 25.6622 34.056 25.649 34.056V34.056Z" fill="#D21313"></path><path d="M25.649 35.78H22.275C22.2617 35.78 22.249 35.7747 22.2396 35.7653C22.2302 35.756 22.225 35.7433 22.225 35.73C22.225 35.7167 22.2302 35.704 22.2396 35.6946C22.249 35.6853 22.2617 35.68 22.275 35.68H25.649C25.6622 35.68 25.675 35.6853 25.6843 35.6946C25.6937 35.704 25.699 35.7167 25.699 35.73C25.699 35.7433 25.6937 35.756 25.6843 35.7653C25.675 35.7747 25.6622 35.78 25.649 35.78V35.78Z" fill="#D21313"></path><path d="M25.649 37.505H22.275C22.2617 37.505 22.249 37.4997 22.2396 37.4904C22.2302 37.481 22.225 37.4683 22.225 37.455C22.225 37.4417 22.2302 37.429 22.2396 37.4196C22.249 37.4103 22.2617 37.405 22.275 37.405H25.649C25.6622 37.405 25.675 37.4103 25.6843 37.4196C25.6937 37.429 25.699 37.4417 25.699 37.455C25.699 37.4683 25.6937 37.481 25.6843 37.4904C25.675 37.4997 25.6622 37.505 25.649 37.505V37.505Z" fill="#D21313"></path><path d="M23.962 38.073C23.9555 38.073 23.949 38.0717 23.943 38.0692C23.937 38.0666 23.9315 38.0629 23.927 38.0583C23.9224 38.0536 23.9188 38.0481 23.9164 38.0421C23.914 38.036 23.9128 38.0295 23.913 38.023V31.991C23.913 31.9777 23.9182 31.965 23.9276 31.9556C23.937 31.9463 23.9497 31.941 23.963 31.941C23.9762 31.941 23.989 31.9463 23.9983 31.9556C24.0077 31.965 24.013 31.9777 24.013 31.991V38.023C24.013 38.0296 24.0116 38.0362 24.0091 38.0424C24.0065 38.0485 24.0027 38.0541 23.998 38.0587C23.9932 38.0634 23.9876 38.067 23.9814 38.0695C23.9752 38.0719 23.9686 38.0731 23.962 38.073V38.073Z" fill="#D21313"></path><path d="M26.23 38.023H21.694V38.61H26.23V38.023Z" fill="#5E3131"></path><path d="M40.038 31.991C39.5906 31.991 39.1615 32.1687 38.8451 32.4851C38.5287 32.8015 38.351 33.2306 38.351 33.678V38.023H41.725V33.678C41.725 33.4565 41.6814 33.2371 41.5966 33.0324C41.5118 32.8277 41.3876 32.6418 41.2309 32.4851C41.0742 32.3285 40.8883 32.2042 40.6836 32.1194C40.4789 32.0346 40.2595 31.991 40.038 31.991V31.991Z" fill="#FBD0D0"></path><path d="M41.725 34.056H38.351C38.3378 34.056 38.325 34.0507 38.3157 34.0413C38.3063 34.032 38.301 34.0193 38.301 34.006C38.301 33.9927 38.3063 33.98 38.3157 33.9706C38.325 33.9613 38.3378 33.956 38.351 33.956H41.725C41.7383 33.956 41.751 33.9613 41.7604 33.9706C41.7698 33.98 41.775 33.9927 41.775 34.006C41.775 34.0193 41.7698 34.032 41.7604 34.0413C41.751 34.0507 41.7383 34.056 41.725 34.056Z" fill="#D21313"></path><path d="M41.725 35.78H38.351C38.3378 35.78 38.325 35.7747 38.3157 35.7653C38.3063 35.756 38.301 35.7433 38.301 35.73C38.301 35.7167 38.3063 35.704 38.3157 35.6946C38.325 35.6853 38.3378 35.68 38.351 35.68H41.725C41.7383 35.68 41.751 35.6853 41.7604 35.6946C41.7698 35.704 41.775 35.7167 41.775 35.73C41.775 35.7433 41.7698 35.756 41.7604 35.7653C41.751 35.7747 41.7383 35.78 41.725 35.78V35.78Z" fill="#D21313"></path><path d="M41.725 37.505H38.351C38.3378 37.505 38.325 37.4997 38.3157 37.4904C38.3063 37.481 38.301 37.4683 38.301 37.455C38.301 37.4417 38.3063 37.429 38.3157 37.4196C38.325 37.4103 38.3378 37.405 38.351 37.405H41.725C41.7383 37.405 41.751 37.4103 41.7604 37.4196C41.7698 37.429 41.775 37.4417 41.775 37.455C41.775 37.4683 41.7698 37.481 41.7604 37.4904C41.751 37.4997 41.7383 37.505 41.725 37.505Z" fill="#D21313"></path><path d="M40.038 38.073C40.0247 38.073 40.012 38.0677 40.0026 38.0584C39.9932 38.049 39.988 38.0363 39.988 38.023V31.991C39.988 31.9777 39.9932 31.965 40.0026 31.9556C40.012 31.9463 40.0247 31.941 40.038 31.941C40.0512 31.941 40.064 31.9463 40.0733 31.9556C40.0827 31.965 40.088 31.9777 40.088 31.991V38.023C40.088 38.0296 40.0867 38.0361 40.0842 38.0421C40.0817 38.0482 40.078 38.0537 40.0733 38.0584C40.0687 38.063 40.0632 38.0667 40.0571 38.0692C40.051 38.0717 40.0445 38.073 40.038 38.073V38.073Z" fill="#D21313"></path><path d="M42.306 38.023H37.77V38.61H42.306V38.023Z" fill="#5E3131"></path><path d="M32 31.991C31.5526 31.991 31.1235 32.1687 30.8071 32.4851C30.4907 32.8015 30.313 33.2306 30.313 33.678V38.023H33.687V33.678C33.687 33.2306 33.5093 32.8015 33.1929 32.4851C32.8765 32.1687 32.4474 31.991 32 31.991Z" fill="#FBD0D0"></path><path d="M33.687 34.056H30.313C30.2997 34.056 30.287 34.0507 30.2776 34.0413C30.2683 34.032 30.263 34.0193 30.263 34.006C30.263 33.9927 30.2683 33.98 30.2776 33.9706C30.287 33.9613 30.2997 33.956 30.313 33.956H33.687C33.7003 33.956 33.713 33.9613 33.7224 33.9706C33.7317 33.98 33.737 33.9927 33.737 34.006C33.737 34.0193 33.7317 34.032 33.7224 34.0413C33.713 34.0507 33.7003 34.056 33.687 34.056Z" fill="#D21313"></path><path d="M33.687 35.78H30.313C30.2997 35.78 30.287 35.7747 30.2776 35.7653C30.2683 35.756 30.263 35.7433 30.263 35.73C30.263 35.7167 30.2683 35.704 30.2776 35.6946C30.287 35.6853 30.2997 35.68 30.313 35.68H33.687C33.7003 35.68 33.713 35.6853 33.7224 35.6946C33.7317 35.704 33.737 35.7167 33.737 35.73C33.737 35.7433 33.7317 35.756 33.7224 35.7653C33.713 35.7747 33.7003 35.78 33.687 35.78V35.78Z" fill="#D21313"></path><path d="M33.687 37.505H30.313C30.2997 37.505 30.287 37.4997 30.2776 37.4904C30.2683 37.481 30.263 37.4683 30.263 37.455C30.263 37.4417 30.2683 37.429 30.2776 37.4196C30.287 37.4103 30.2997 37.405 30.313 37.405H33.687C33.7003 37.405 33.713 37.4103 33.7224 37.4196C33.7317 37.429 33.737 37.4417 33.737 37.455C33.737 37.4683 33.7317 37.481 33.7224 37.4904C33.713 37.4997 33.7003 37.505 33.687 37.505Z" fill="#D21313"></path><path d="M32 38.073C31.9868 38.073 31.974 38.0677 31.9647 38.0584C31.9553 38.049 31.95 38.0363 31.95 38.023V31.991C31.95 31.9777 31.9553 31.965 31.9647 31.9556C31.974 31.9463 31.9868 31.941 32 31.941C32.0133 31.941 32.026 31.9463 32.0354 31.9556C32.0447 31.965 32.05 31.9777 32.05 31.991V38.023C32.05 38.0296 32.0487 38.0361 32.0462 38.0421C32.0437 38.0482 32.04 38.0537 32.0354 38.0584C32.0307 38.063 32.0252 38.0667 32.0191 38.0692C32.0131 38.0717 32.0066 38.073 32 38.073Z" fill="#D21313"></path><path d="M34.268 38.023H29.732V38.61H34.268V38.023Z" fill="#5E3131"></path><path d="M23.962 22.766C23.7405 22.766 23.5211 22.8096 23.3164 22.8944C23.1118 22.9792 22.9258 23.1035 22.7691 23.2601C22.6125 23.4168 22.4882 23.6027 22.4034 23.8074C22.3187 24.0121 22.275 24.2315 22.275 24.453V28.8H25.649V24.453C25.649 24.2315 25.6054 24.0121 25.5206 23.8074C25.4358 23.6027 25.3116 23.4168 25.1549 23.2601C24.9983 23.1035 24.8123 22.9792 24.6076 22.8944C24.4029 22.8096 24.1836 22.766 23.962 22.766V22.766Z" fill="#FBD0D0"></path><path d="M25.649 24.831H22.275C22.2617 24.831 22.249 24.8257 22.2396 24.8164C22.2302 24.807 22.225 24.7943 22.225 24.781C22.225 24.7677 22.2302 24.755 22.2396 24.7456C22.249 24.7363 22.2617 24.731 22.275 24.731H25.649C25.6622 24.731 25.675 24.7363 25.6843 24.7456C25.6937 24.755 25.699 24.7677 25.699 24.781C25.699 24.7943 25.6937 24.807 25.6843 24.8164C25.675 24.8257 25.6622 24.831 25.649 24.831V24.831Z" fill="#D21313"></path><path d="M25.649 26.556H22.275C22.2617 26.556 22.249 26.5507 22.2396 26.5413C22.2302 26.532 22.225 26.5193 22.225 26.506C22.225 26.4927 22.2302 26.48 22.2396 26.4706C22.249 26.4613 22.2617 26.456 22.275 26.456H25.649C25.6622 26.456 25.675 26.4613 25.6843 26.4706C25.6937 26.48 25.699 26.4927 25.699 26.506C25.699 26.5193 25.6937 26.532 25.6843 26.5413C25.675 26.5507 25.6622 26.556 25.649 26.556V26.556Z" fill="#D21313"></path><path d="M25.649 28.28H22.275C22.2617 28.28 22.249 28.2747 22.2396 28.2653C22.2302 28.256 22.225 28.2433 22.225 28.23C22.225 28.2167 22.2302 28.204 22.2396 28.1946C22.249 28.1853 22.2617 28.18 22.275 28.18H25.649C25.6622 28.18 25.675 28.1853 25.6843 28.1946C25.6937 28.204 25.699 28.2167 25.699 28.23C25.699 28.2433 25.6937 28.256 25.6843 28.2653C25.675 28.2747 25.6622 28.28 25.649 28.28V28.28Z" fill="#D21313"></path><path d="M23.962 28.848C23.9555 28.848 23.949 28.8467 23.943 28.8442C23.937 28.8417 23.9315 28.838 23.927 28.8333C23.9224 28.8286 23.9188 28.8231 23.9164 28.8171C23.914 28.811 23.9128 28.8045 23.913 28.798V22.766C23.913 22.7527 23.9182 22.74 23.9276 22.7306C23.937 22.7213 23.9497 22.716 23.963 22.716C23.9762 22.716 23.989 22.7213 23.9983 22.7306C24.0077 22.74 24.013 22.7527 24.013 22.766V28.8C24.0125 28.8131 24.0068 28.8254 23.9973 28.8344C23.9877 28.8434 23.9751 28.8483 23.962 28.848V28.848Z" fill="#D21313"></path><path d="M26.23 28.799H21.694V29.386H26.23V28.799Z" fill="#5E3131"></path><path d="M32 22.766C31.7784 22.766 31.5591 22.8096 31.3544 22.8944C31.1497 22.9792 30.9638 23.1035 30.8071 23.2601C30.6504 23.4168 30.5262 23.6027 30.4414 23.8074C30.3566 24.0121 30.313 24.2315 30.313 24.453V28.8H33.687V24.453C33.687 24.2315 33.6434 24.0121 33.5586 23.8074C33.4738 23.6027 33.3495 23.4168 33.1929 23.2601C33.0362 23.1035 32.8503 22.9792 32.6456 22.8944C32.4409 22.8096 32.2215 22.766 32 22.766V22.766Z" fill="#FBD0D0"></path><path d="M33.687 24.831H30.313C30.2997 24.831 30.287 24.8257 30.2776 24.8164C30.2683 24.807 30.263 24.7943 30.263 24.781C30.263 24.7677 30.2683 24.755 30.2776 24.7456C30.287 24.7363 30.2997 24.731 30.313 24.731H33.687C33.7003 24.731 33.713 24.7363 33.7224 24.7456C33.7317 24.755 33.737 24.7677 33.737 24.781C33.737 24.7943 33.7317 24.807 33.7224 24.8164C33.713 24.8257 33.7003 24.831 33.687 24.831Z" fill="#D21313"></path><path d="M33.687 26.556H30.313C30.2997 26.556 30.287 26.5507 30.2776 26.5413C30.2683 26.532 30.263 26.5193 30.263 26.506C30.263 26.4927 30.2683 26.48 30.2776 26.4706C30.287 26.4613 30.2997 26.456 30.313 26.456H33.687C33.7003 26.456 33.713 26.4613 33.7224 26.4706C33.7317 26.48 33.737 26.4927 33.737 26.506C33.737 26.5193 33.7317 26.532 33.7224 26.5413C33.713 26.5507 33.7003 26.556 33.687 26.556Z" fill="#D21313"></path><path d="M33.687 28.28H30.313C30.2997 28.28 30.287 28.2747 30.2776 28.2653C30.2683 28.256 30.263 28.2433 30.263 28.23C30.263 28.2167 30.2683 28.204 30.2776 28.1946C30.287 28.1853 30.2997 28.18 30.313 28.18H33.687C33.7003 28.18 33.713 28.1853 33.7224 28.1946C33.7317 28.204 33.737 28.2167 33.737 28.23C33.737 28.2433 33.7317 28.256 33.7224 28.2653C33.713 28.2747 33.7003 28.28 33.687 28.28Z" fill="#D21313"></path><path d="M32 28.848C31.9934 28.848 31.9869 28.8467 31.9809 28.8442C31.9748 28.8417 31.9693 28.838 31.9647 28.8334C31.96 28.8287 31.9563 28.8232 31.9538 28.8171C31.9513 28.8111 31.95 28.8046 31.95 28.798V22.766C31.95 22.7527 31.9553 22.74 31.9647 22.7306C31.974 22.7213 31.9868 22.716 32 22.716C32.0133 22.716 32.026 22.7213 32.0354 22.7306C32.0447 22.74 32.05 22.7527 32.05 22.766V28.8C32.0495 28.8129 32.044 28.8251 32.0347 28.8341C32.0254 28.843 32.0129 28.848 32 28.848V28.848Z" fill="#D21313"></path><path d="M34.268 28.799H29.732V29.386H34.268V28.799Z" fill="#5E3131"></path><path d="M40.038 22.766C39.5906 22.766 39.1615 22.9437 38.8451 23.2601C38.5287 23.5765 38.351 24.0056 38.351 24.453V28.8H41.725V24.453C41.725 24.2315 41.6814 24.0121 41.5966 23.8074C41.5118 23.6027 41.3876 23.4168 41.2309 23.2601C41.0742 23.1035 40.8883 22.9792 40.6836 22.8944C40.4789 22.8096 40.2595 22.766 40.038 22.766V22.766Z" fill="#FBD0D0"></path><path d="M41.725 24.831H38.351C38.3378 24.831 38.325 24.8257 38.3157 24.8164C38.3063 24.807 38.301 24.7943 38.301 24.781C38.301 24.7677 38.3063 24.755 38.3157 24.7456C38.325 24.7363 38.3378 24.731 38.351 24.731H41.725C41.7383 24.731 41.751 24.7363 41.7604 24.7456C41.7698 24.755 41.775 24.7677 41.775 24.781C41.775 24.7943 41.7698 24.807 41.7604 24.8164C41.751 24.8257 41.7383 24.831 41.725 24.831Z" fill="#D21313"></path><path d="M41.725 26.556H38.351C38.3378 26.556 38.325 26.5507 38.3157 26.5413C38.3063 26.532 38.301 26.5193 38.301 26.506C38.301 26.4927 38.3063 26.48 38.3157 26.4706C38.325 26.4613 38.3378 26.456 38.351 26.456H41.725C41.7383 26.456 41.751 26.4613 41.7604 26.4706C41.7698 26.48 41.775 26.4927 41.775 26.506C41.775 26.5193 41.7698 26.532 41.7604 26.5413C41.751 26.5507 41.7383 26.556 41.725 26.556Z" fill="#D21313"></path><path d="M41.725 28.28H38.351C38.3378 28.28 38.325 28.2747 38.3157 28.2653C38.3063 28.256 38.301 28.2433 38.301 28.23C38.301 28.2167 38.3063 28.204 38.3157 28.1946C38.325 28.1853 38.3378 28.18 38.351 28.18H41.725C41.7383 28.18 41.751 28.1853 41.7604 28.1946C41.7698 28.204 41.775 28.2167 41.775 28.23C41.775 28.2433 41.7698 28.256 41.7604 28.2653C41.751 28.2747 41.7383 28.28 41.725 28.28Z" fill="#D21313"></path><path d="M40.038 28.848C40.0314 28.848 40.0249 28.8467 40.0188 28.8442C40.0128 28.8417 40.0073 28.838 40.0026 28.8334C39.998 28.8287 39.9943 28.8232 39.9918 28.8171C39.9893 28.8111 39.988 28.8046 39.988 28.798V22.766C39.988 22.7527 39.9932 22.74 40.0026 22.7306C40.012 22.7213 40.0247 22.716 40.038 22.716C40.0512 22.716 40.064 22.7213 40.0733 22.7306C40.0827 22.74 40.088 22.7527 40.088 22.766V28.8C40.0875 28.8129 40.082 28.8251 40.0726 28.8341C40.0633 28.843 40.0509 28.848 40.038 28.848V28.848Z" fill="#D21313"></path><path d="M42.306 28.799H37.77V29.386H42.306V28.799Z" fill="#5E3131"></path><path d="M34.4 41.216H29.6C29.3383 41.2242 29.09 41.334 28.9078 41.5221C28.7256 41.7101 28.6237 41.9617 28.6237 42.2235C28.6237 42.4853 28.7256 42.7369 28.9078 42.925C29.09 43.113 29.3383 43.2228 29.6 43.231H34.4C34.6617 43.2228 34.9099 43.113 35.0921 42.925C35.2743 42.7369 35.3762 42.4853 35.3762 42.2235C35.3762 41.9617 35.2743 41.7101 35.0921 41.5221C34.9099 41.334 34.6617 41.2242 34.4 41.216V41.216Z" fill="white"></path><path d="M34.421 41.977H29.579C29.5453 41.9749 29.5115 41.9796 29.4798 41.9911C29.448 42.0025 29.4189 42.0203 29.3943 42.0434C29.3697 42.0665 29.35 42.0944 29.3366 42.1254C29.3232 42.1563 29.3163 42.1897 29.3163 42.2235C29.3163 42.2573 29.3232 42.2907 29.3366 42.3216C29.35 42.3526 29.3697 42.3805 29.3943 42.4036C29.4189 42.4267 29.448 42.4445 29.4798 42.4559C29.5115 42.4674 29.5453 42.4721 29.579 42.47H34.421C34.4547 42.4721 34.4885 42.4674 34.5202 42.4559C34.552 42.4445 34.5811 42.4267 34.6057 42.4036C34.6303 42.3805 34.65 42.3526 34.6634 42.3216C34.6768 42.2907 34.6837 42.2573 34.6837 42.2235C34.6837 42.1897 34.6768 42.1563 34.6634 42.1254C34.65 42.0944 34.6303 42.0665 34.6057 42.0434C34.5811 42.0203 34.552 42.0025 34.5202 41.9911C34.4885 41.9796 34.4547 41.9749 34.421 41.977Z" fill="#5E3131"></path><path d="M31.196 50.137C31.3606 50.137 31.494 50.0036 31.494 49.839C31.494 49.6744 31.3606 49.541 31.196 49.541C31.0314 49.541 30.898 49.6744 30.898 49.839C30.898 50.0036 31.0314 50.137 31.196 50.137Z" fill="white"></path><path d="M32.804 50.137C32.9686 50.137 33.102 50.0036 33.102 49.839C33.102 49.6744 32.9686 49.541 32.804 49.541C32.6394 49.541 32.506 49.6744 32.506 49.839C32.506 50.0036 32.6394 50.137 32.804 50.137Z" fill="white"></path><path d="M32 53.329C31.9868 53.329 31.974 53.3237 31.9647 53.3144C31.9553 53.305 31.95 53.2923 31.95 53.279V44.526C31.95 44.5127 31.9553 44.5 31.9647 44.4906C31.974 44.4813 31.9868 44.476 32 44.476C32.0133 44.476 32.026 44.4813 32.0354 44.4906C32.0447 44.5 32.05 44.5127 32.05 44.526V53.279C32.05 53.2923 32.0447 53.305 32.0354 53.3144C32.026 53.3237 32.0133 53.329 32 53.329Z" fill="#D21313"></path><path d="M51.296 53.279H12.704C12.5207 53.279 12.372 53.4276 12.372 53.611V55.002C12.372 55.1853 12.5207 55.334 12.704 55.334H51.296C51.4794 55.334 51.628 55.1853 51.628 55.002V53.611C51.628 53.4276 51.4794 53.279 51.296 53.279Z" fill="#5E3131"></path><path d="M51.3 53.279H12.7C12.6563 53.2789 12.6131 53.2874 12.5728 53.304C12.5324 53.3206 12.4958 53.3451 12.4649 53.3759C12.4341 53.4068 12.4096 53.4434 12.393 53.4838C12.3763 53.5241 12.3679 53.5674 12.368 53.611V54.119C12.368 54.0309 12.403 53.9465 12.4652 53.8842C12.5275 53.822 12.6119 53.787 12.7 53.787H51.3C51.388 53.787 51.4725 53.822 51.5347 53.8842C51.597 53.9465 51.632 54.0309 51.632 54.119V53.611C51.6321 53.5674 51.6236 53.5241 51.607 53.4838C51.5903 53.4434 51.5659 53.4068 51.535 53.3759C51.5042 53.3451 51.4675 53.3206 51.4272 53.304C51.3868 53.2874 51.3436 53.2789 51.3 53.279V53.279Z" fill="#FBD0D0"></path><path d="M20.239 26.506H12.892V39.655H20.239V26.506Z" fill="#5E3131"></path><path d="M19.132 30.206C18.5901 29.9207 18.1016 29.5438 17.688 29.092C17.199 28.476 17.454 28.192 16.741 28.23C16.7601 28.0612 16.7409 27.8902 16.6849 27.7298C16.6288 27.5694 16.5373 27.4237 16.4172 27.3035C16.2971 27.1833 16.1515 27.0917 15.9912 27.0356C15.8308 26.9794 15.6599 26.96 15.491 26.979C15.4805 26.7557 15.4241 26.5369 15.3253 26.3363C15.2265 26.1358 15.0874 25.9577 14.9167 25.8133C14.746 25.6689 14.5474 25.5612 14.3333 25.497C14.1191 25.4328 13.894 25.4134 13.672 25.44C13.4307 25.4053 13.1846 25.425 12.9518 25.4977C12.719 25.5703 12.5054 25.6941 12.3267 25.8599C12.1479 26.0258 12.0085 26.2295 11.9185 26.4561C11.8286 26.6828 11.7905 26.9267 11.807 27.17C11.841 27.47 10.789 27.289 10.518 27.823C10.1358 28.4709 9.54593 28.9706 8.84402 29.241C8.80602 29.561 8.78202 29.883 8.75702 30.206H19.132Z" fill="white"></path></svg>