<svg xmlns="http://www.w3.org/2000/svg" width="64" height="64" viewBox="0 0 64 64" fill="none"><path d="M32 55.334C44.887 55.334 55.334 44.887 55.334 32C55.334 19.113 44.887 8.66602 32 8.66602C19.113 8.66602 8.666 19.113 8.666 32C8.666 44.887 19.113 55.334 32 55.334Z" fill="#FBD0D0"></path><path d="M22.9 39.624C22.7 38.998 22.178 37.39 22.1 37.264C21.541 36.9992 20.958 36.7882 20.359 36.634C20.3281 35.5631 20.2376 34.4948 20.088 33.434C19.951 33.217 19.363 30.3 19.088 30.185C19.054 30.171 17.188 30.411 15.866 30.631C15.75 31.131 15.666 31.637 15.594 32.149C15.5794 31.6599 15.5123 31.1738 15.394 30.699C15.194 30.385 14.349 26.181 13.947 26.015C13.897 25.995 11.202 26.341 9.302 26.658C8.26315 30.9556 8.49275 35.4622 9.963 39.632C12.063 39.618 14.309 39.61 16.317 39.612L16.323 39.632C17.033 39.627 17.768 39.624 18.5 39.621C18.812 39.621 19.16 39.621 19.441 39.628V39.618C20.732 39.611 21.958 39.613 22.9 39.624Z" fill="#5E3131"></path><path d="M32 8.66599C28.2831 8.66462 24.6203 9.55631 21.32 11.266C21.4332 14.0226 22.6079 16.6287 24.5984 18.5392C26.5889 20.4496 29.241 21.5164 32 21.5164C34.759 21.5164 37.4111 20.4496 39.4016 18.5392C41.3921 16.6287 42.5668 14.0226 42.68 11.266C39.3797 9.55631 35.7169 8.66462 32 8.66599V8.66599Z" fill="white"></path><path d="M9.978 39.655C11.5634 44.2334 14.5364 48.2038 18.4833 51.0139C22.4303 53.824 27.1549 55.3341 32 55.3341C36.8451 55.3341 41.5697 53.824 45.5167 51.0139C49.4636 48.2038 52.4366 44.2334 54.022 39.655H9.978Z" fill="#670A0A"></path><path d="M51.296 53.279H12.704C12.5206 53.279 12.372 53.4276 12.372 53.611V55.002C12.372 55.1853 12.5206 55.334 12.704 55.334H51.296C51.4794 55.334 51.628 55.1853 51.628 55.002V53.611C51.628 53.4276 51.4794 53.279 51.296 53.279Z" fill="#D21313"></path><path d="M51.296 27.388H12.704C12.5206 27.388 12.372 27.5366 12.372 27.72V29.111C12.372 29.2944 12.5206 29.443 12.704 29.443H51.296C51.4794 29.443 51.628 29.2944 51.628 29.111V27.72C51.628 27.5366 51.4794 27.388 51.296 27.388Z" fill="#D21313"></path><path d="M49.48 51.224H14.521C14.3376 51.224 14.189 51.3726 14.189 51.556V52.947C14.189 53.1304 14.3376 53.279 14.521 53.279H49.48C49.6634 53.279 49.812 53.1304 49.812 52.947V51.556C49.812 51.3726 49.6634 51.224 49.48 51.224Z" fill="#D21313"></path><path d="M49.48 25.333H14.521C14.3376 25.333 14.189 25.4817 14.189 25.665V27.056C14.189 27.2394 14.3376 27.388 14.521 27.388H49.48C49.6634 27.388 49.812 27.2394 49.812 27.056V25.665C49.812 25.4817 49.6634 25.333 49.48 25.333Z" fill="#D21313"></path><path d="M19.689 29.443H16.026V51.224H19.689V29.443Z" fill="#D21313"></path><path d="M29.117 29.443H25.454V51.224H29.117V29.443Z" fill="#D21313"></path><path d="M38.546 29.443H34.883V51.224H38.546V29.443Z" fill="#D21313"></path><path d="M47.974 29.443H44.311V51.224H47.974V29.443Z" fill="#D21313"></path><path d="M47.974 29.443H47.448L47.974 51.224V29.443Z" fill="#FBD0D0"></path><path d="M38.546 29.443H38.02L38.546 51.224V29.443Z" fill="#FBD0D0"></path><path d="M29.117 29.443H28.591L29.117 51.224V29.443Z" fill="#FBD0D0"></path><path d="M19.689 29.443H19.163L19.689 51.224V29.443Z" fill="#FBD0D0"></path><path d="M34.883 29.443H35.409L34.883 51.224V29.443Z" fill="#FBD0D0"></path><path d="M16.026 29.443H16.552L16.026 51.224V29.443Z" fill="#FBD0D0"></path><path d="M25.454 29.443H25.98L25.454 51.224V29.443Z" fill="#FBD0D0"></path><path d="M44.311 29.443H44.837L44.311 51.224V29.443Z" fill="#FBD0D0"></path><path d="M32.593 13.942C32.4212 13.8155 32.2134 13.7472 32 13.7472C31.7866 13.7472 31.5788 13.8155 31.407 13.942L16.026 25.333H47.974L32.593 13.942Z" fill="#D21313"></path><path d="M31.368 14.617C31.5541 14.4895 31.7744 14.4212 32 14.4212C32.2256 14.4212 32.4459 14.4895 32.632 14.617L46.922 24.554L32.593 13.942C32.4212 13.8155 32.2134 13.7472 32 13.7472C31.7866 13.7472 31.5788 13.8155 31.407 13.942L17.078 24.554L31.368 14.617Z" fill="#FBD0D0"></path><path d="M32 22.642C33.0394 22.642 33.882 21.7994 33.882 20.76C33.882 19.7206 33.0394 18.878 32 18.878C30.9606 18.878 30.118 19.7206 30.118 20.76C30.118 21.7994 30.9606 22.642 32 22.642Z" fill="#5E3131"></path><path d="M51.3 27.388H46.4C46.4 27.388 51.011 27.417 51.222 27.705C51.4015 28.0308 51.5383 28.3783 51.629 28.739V27.72C51.6293 27.6324 51.5948 27.5482 51.5331 27.486C51.4714 27.4238 51.3876 27.3885 51.3 27.388V27.388Z" fill="#FBD0D0"></path><path d="M49.479 25.333H44.579C44.579 25.333 49.19 25.362 49.401 25.65C49.5809 25.9756 49.7178 26.3231 49.808 26.684V25.665C49.8083 25.5774 49.7738 25.4932 49.7121 25.431C49.6504 25.3688 49.5666 25.3335 49.479 25.333V25.333Z" fill="#FBD0D0"></path><path d="M12.7 27.388H17.6C17.6 27.388 12.989 27.417 12.778 27.705C12.5985 28.0308 12.4617 28.3783 12.371 28.739V27.72C12.3707 27.6324 12.4052 27.5482 12.4669 27.486C12.5286 27.4238 12.6124 27.3885 12.7 27.388V27.388Z" fill="#FBD0D0"></path><path d="M51.3 53.279H46.4C46.4 53.279 51.011 53.308 51.222 53.596C51.4015 53.9218 51.5383 54.2693 51.629 54.63V53.611C51.6293 53.5234 51.5948 53.4392 51.5331 53.377C51.4714 53.3148 51.3876 53.2795 51.3 53.279V53.279Z" fill="#FBD0D0"></path><path d="M12.7 53.279H17.6C17.6 53.279 12.989 53.308 12.778 53.596C12.5985 53.9218 12.4617 54.2693 12.371 54.63V53.611C12.3707 53.5234 12.4052 53.4392 12.4669 53.377C12.5286 53.3148 12.6124 53.2795 12.7 53.279V53.279Z" fill="#FBD0D0"></path><path d="M14.521 25.333H19.421C19.421 25.333 14.81 25.362 14.599 25.65C14.4191 25.9756 14.2822 26.3231 14.192 26.684V25.665C14.1917 25.5774 14.2262 25.4932 14.2879 25.431C14.3496 25.3688 14.4334 25.3335 14.521 25.333V25.333Z" fill="#FBD0D0"></path><path d="M49.479 51.224H44.579C44.579 51.224 49.19 51.253 49.401 51.541C49.5809 51.8666 49.7178 52.2141 49.808 52.575V51.556C49.8083 51.4684 49.7738 51.3842 49.7121 51.322C49.6504 51.2598 49.5666 51.2245 49.479 51.224V51.224Z" fill="#FBD0D0"></path><path d="M14.521 51.224H19.421C19.421 51.224 14.81 51.253 14.599 51.541C14.4191 51.8666 14.2822 52.2141 14.192 52.575V51.556C14.1917 51.4684 14.2262 51.3842 14.2879 51.322C14.3496 51.2598 14.4334 51.2245 14.521 51.224V51.224Z" fill="#FBD0D0"></path><path d="M35.867 23.7H28.133C28.0463 23.7 27.9631 23.7344 27.9018 23.7958C27.8405 23.8571 27.806 23.9403 27.806 24.027C27.806 24.1137 27.8405 24.1969 27.9018 24.2582C27.9631 24.3195 28.0463 24.354 28.133 24.354H35.867C35.9537 24.354 36.0369 24.3195 36.0982 24.2582C36.1595 24.1969 36.194 24.1137 36.194 24.027C36.194 23.9403 36.1595 23.8571 36.0982 23.7958C36.0369 23.7344 35.9537 23.7 35.867 23.7V23.7Z" fill="#5E3131"></path><path d="M52.276 32.828C51.8357 32.828 51.4133 33.0029 51.1019 33.3141C50.7904 33.6254 50.6153 34.0477 50.615 34.488V36.543C50.6256 36.9763 50.8053 37.3884 51.1155 37.6911C51.4257 37.9938 51.842 38.1632 52.2755 38.1632C52.709 38.1632 53.1253 37.9938 53.4355 37.6911C53.7458 37.3884 53.9254 36.9763 53.936 36.543V34.488C53.936 34.0477 53.7611 33.6255 53.4498 33.3142C53.1385 33.0029 52.7163 32.828 52.276 32.828V32.828Z" fill="#5E3131"></path><path d="M52.521 35.331H52.031V39.686H52.521V35.331Z" fill="#5E3131"></path></svg>