<svg xmlns="http://www.w3.org/2000/svg" width="64" height="64" viewBox="0 0 64 64" fill="none"><path d="M32 55.334C44.887 55.334 55.334 44.887 55.334 32C55.334 19.113 44.887 8.66602 32 8.66602C19.113 8.66602 8.66602 19.113 8.66602 32C8.66602 44.887 19.113 55.334 32 55.334Z" fill="#FBD0D0"></path><path d="M32 8.66599C28.2831 8.66462 24.6203 9.55631 21.32 11.266C21.4332 14.0226 22.6079 16.6287 24.5984 18.5392C26.5889 20.4496 29.241 21.5164 32 21.5164C34.759 21.5164 37.4111 20.4496 39.4016 18.5392C41.3921 16.6287 42.5668 14.0226 42.68 11.266C39.3797 9.55631 35.7169 8.66462 32 8.66599V8.66599Z" fill="white"></path><path d="M9.97803 39.655C11.5635 44.2334 14.5364 48.2038 18.4833 51.0139C22.4303 53.824 27.1549 55.3341 32 55.3341C36.8451 55.3341 41.5698 53.824 45.5167 51.0139C49.4636 48.2038 52.4366 44.2334 54.022 39.655H9.97803Z" fill="#670A0A"></path><path d="M51.296 53.279H12.704C12.5207 53.279 12.372 53.4276 12.372 53.611V55.002C12.372 55.1853 12.5207 55.334 12.704 55.334H51.296C51.4794 55.334 51.628 55.1853 51.628 55.002V53.611C51.628 53.4276 51.4794 53.279 51.296 53.279Z" fill="#D21313"></path><path d="M51.3 53.279H12.7C12.6563 53.2789 12.6131 53.2874 12.5728 53.304C12.5324 53.3206 12.4958 53.3451 12.4649 53.3759C12.4341 53.4068 12.4096 53.4434 12.393 53.4838C12.3763 53.5241 12.3679 53.5674 12.368 53.611V54.119C12.368 54.0309 12.403 53.9465 12.4652 53.8842C12.5275 53.822 12.6119 53.787 12.7 53.787H51.3C51.388 53.787 51.4725 53.822 51.5347 53.8842C51.597 53.9465 51.632 54.0309 51.632 54.119V53.611C51.6321 53.5674 51.6236 53.5241 51.607 53.4838C51.5903 53.4434 51.5659 53.4068 51.535 53.3759C51.5042 53.3451 51.4675 53.3206 51.4272 53.304C51.3868 53.2874 51.3436 53.2789 51.3 53.279V53.279Z" fill="#FBD0D0"></path><path d="M39.992 27.205H25.172C24.638 27.205 24.205 27.638 24.205 28.172V36.721C24.205 37.2551 24.638 37.688 25.172 37.688H39.992C40.5261 37.688 40.959 37.2551 40.959 36.721V28.172C40.959 27.638 40.5261 27.205 39.992 27.205Z" fill="#FBD0D0"></path><path d="M29.9992 22C29.9992 22 25.6913 25.6847 26.0176 29.4781C25.997 29.9842 26.0904 30.4884 26.2909 30.9536C26.4913 31.4189 26.7938 31.8332 27.1759 32.1661C27.558 32.499 28.01 32.7421 28.4986 32.8772C28.9873 33.0124 29.5001 33.0363 29.9992 32.9472C30.4984 33.0363 31.0112 33.0123 31.5 32.8772C31.9887 32.742 32.4408 32.499 32.823 32.1661C33.2052 31.8332 33.5078 31.4189 33.7085 30.9537C33.9091 30.4885 34.0027 29.9843 33.9824 29.4781C34.3087 25.6895 29.9992 22 29.9992 22Z" fill="#5E3131"></path><path d="M32.3568 22.6306C30.7425 21.632 28.1193 22.05 26.6117 22.4129L26.4857 22.6166C26.4219 22.7197 26.3713 22.8296 26.337 22.94C26.3027 23.0505 26.2853 23.1594 26.2857 23.2605C26.2862 23.3616 26.3045 23.4528 26.3396 23.5291C26.3747 23.6054 26.4259 23.6652 26.4904 23.7051L34.014 28.3592C34.0784 28.3991 34.1548 28.4183 34.2387 28.4156C34.3226 28.413 34.4125 28.3886 34.5032 28.3439C34.5938 28.2991 34.6835 28.2349 34.767 28.1549C34.8505 28.0749 34.9263 27.9806 34.99 27.8775L35.116 27.6737C34.7677 26.1628 33.9705 23.6289 32.3568 22.6306Z" fill="#5E3131"></path><path d="M46.6 39.256C46.4616 39.256 46.3246 39.2833 46.1968 39.3362C46.069 39.3892 45.9529 39.4669 45.8551 39.5648C45.7573 39.6627 45.6797 39.7789 45.6269 39.9067C45.574 40.0346 45.5469 40.1716 45.547 40.31V41.739C45.5554 42.0128 45.6701 42.2725 45.8668 42.4632C46.0634 42.6539 46.3266 42.7605 46.6005 42.7605C46.8744 42.7605 47.1376 42.6539 47.3342 42.4632C47.5309 42.2725 47.6456 42.0128 47.654 41.739V40.31C47.654 40.0305 47.543 39.7624 47.3453 39.5647C47.1476 39.367 46.8795 39.256 46.6 39.256V39.256Z" fill="#FBD0D0"></path><path d="M36.5815 47.558H37.3995L34.6885 42.199C34.6669 42.1564 34.637 42.1185 34.6007 42.0874C34.5644 42.0563 34.5223 42.0327 34.4768 42.0179C34.4314 42.0031 34.3834 41.9974 34.3358 42.0011C34.2881 42.0048 34.2417 42.0179 34.199 42.0395C34.1564 42.0612 34.1185 42.0911 34.0874 42.1274C34.0563 42.1637 34.0327 42.2058 34.0179 42.2513C34.0031 42.2967 33.9974 42.3446 34.0011 42.3923C34.0048 42.44 34.0179 42.4864 34.0395 42.529L36.5815 47.558Z" fill="#D21313"></path><path d="M53.968 24.2C53.92 24.123 53.868 24.033 53.8 23.925C53.272 23.051 51.885 22.734 50.055 23.925C48.225 25.116 49.547 24.494 48.146 24.596C46.745 24.698 46.392 26.733 45.707 26.936C45.022 27.139 39.942 28.157 39.942 28.157H54.99C54.7669 26.8104 54.4248 25.4862 53.968 24.2V24.2Z" fill="white"></path><path d="M54.548 26.085C54.133 26.467 53.333 30.409 53.14 30.713C52.9244 32.2446 52.7938 33.787 52.749 35.333C51.8863 35.5552 51.0465 35.8586 50.241 36.239C50.134 36.422 49.384 38.739 49.094 39.639C50.439 39.623 52.188 39.619 54.033 39.623C55.5701 35.2653 55.7496 30.5439 54.548 26.082V26.085Z" fill="#333333"></path><path d="M21.461 20.625C20.9321 20.3982 20.4624 20.053 20.088 19.616C19.818 19.116 19.761 17.283 18.588 17.157C18.2752 17.1052 17.9542 17.1429 17.6619 17.2657C17.3696 17.3885 17.118 17.5914 16.936 17.851C16.936 17.851 16.989 16.842 16.258 16.589C15.7078 16.4726 15.1341 16.5627 14.646 16.842C14.646 16.842 14.559 16.768 14.428 16.676C13.3606 17.8919 12.4222 19.2153 11.628 20.625H21.461Z" fill="white"></path><path d="M12.418 32.8C11.9776 32.8003 11.5554 32.9754 11.2441 33.2869C10.9329 33.5983 10.758 34.0207 10.758 34.461V36.515C10.758 36.9553 10.9329 37.3775 11.2442 37.6888C11.5555 38.0001 11.9777 38.175 12.418 38.175C12.8583 38.175 13.2805 38.0001 13.5918 37.6888C13.9031 37.3775 14.078 36.9553 14.078 36.515V34.457C14.0769 34.0173 13.9016 33.596 13.5904 33.2854C13.2793 32.9748 12.8577 32.8003 12.418 32.8V32.8Z" fill="#333333"></path><path d="M12.663 35.3H12.173V39.655H12.663V35.3Z" fill="#D21313"></path><path d="M24 39C24 35.6863 26.6863 33 30 33V33C33.3137 33 36 35.6863 36 39V53H24V39Z" fill="#D21313"></path><path d="M38.9996 35C38.9996 35 36.8457 37.0099 37.0088 39.079C36.9985 39.355 37.0452 39.6301 37.1454 39.8838C37.2457 40.1376 37.3969 40.3636 37.5879 40.5452C37.779 40.7268 38.005 40.8593 38.2493 40.933C38.4936 41.0068 38.75 41.0198 38.9996 40.9712C39.2492 41.0198 39.5056 41.0067 39.75 40.933C39.9943 40.8593 40.2204 40.7267 40.4115 40.5452C40.6026 40.3636 40.7539 40.1376 40.8542 39.8839C40.9546 39.6301 41.0014 39.3551 40.9912 39.079C41.1543 37.0125 38.9996 35 38.9996 35Z" fill="#5E3131"></path><path d="M40.8722 35.5066C40.1041 34.9316 37.9602 35.1803 37.2428 35.3892L37.1828 35.5066C37.1525 35.5659 37.1284 35.6291 37.1121 35.6928C37.0958 35.7564 37.0875 35.8191 37.0877 35.8773C37.0879 35.9355 37.0966 35.988 37.1133 36.0319C37.13 36.0759 37.1544 36.1103 37.1851 36.1332L40.7653 38.8129C40.7959 38.8359 40.8323 38.8469 40.8722 38.8454C40.9122 38.8439 40.9549 38.8298 40.9981 38.8041C41.0412 38.7783 41.0839 38.7413 41.1236 38.6953C41.1634 38.6492 41.1994 38.5949 41.2297 38.5356L41.2897 38.4182C42.5 38.8454 43 37 40.8722 35.5066Z" fill="#5E3131"></path><path d="M36 44C36 42.3431 37.3431 41 39 41V41C40.6569 41 42 42.3431 42 44V53H36V44Z" fill="#D21313"></path></svg>