<svg xmlns="http://www.w3.org/2000/svg" width="64" height="64" viewBox="0 0 64 64" fill="none"><path d="M32 55.334C44.887 55.334 55.334 44.887 55.334 32C55.334 19.113 44.887 8.666 32 8.666C19.113 8.666 8.666 19.113 8.666 32C8.666 44.887 19.113 55.334 32 55.334Z" fill="#FBD0D0"></path><path d="M38.656 9.64301C37.0749 11.6514 36.3152 14.1852 36.5305 16.7322C36.7458 19.2792 37.9201 21.6495 39.8159 23.3639C41.7117 25.0784 44.1878 26.0092 46.7435 25.9682C49.2993 25.9272 51.7442 24.9174 53.584 23.143C52.2581 19.9231 50.2298 17.0401 47.6471 14.7044C45.0644 12.3688 41.9925 10.6395 38.656 9.64301V9.64301Z" fill="white"></path><path d="M9.455 26.076H18.015C17.7381 26.0262 17.4743 25.9202 17.2399 25.7645C17.0054 25.6089 16.8054 25.4069 16.652 25.171C16.0556 24.2678 15.2264 23.5423 14.252 23.071C13.9671 22.9551 13.6616 22.8983 13.354 22.9041C13.0465 22.91 12.7433 22.9783 12.463 23.105C12.5575 22.6267 12.5475 22.1336 12.4338 21.6595C12.32 21.1854 12.1052 20.7414 11.804 20.358V20.358C10.769 22.1505 9.97899 24.0736 9.455 26.076V26.076Z" fill="white"></path><path d="M13.266 36.43C13.0087 36.6434 12.7905 36.8999 12.621 37.188C12.621 37.188 11.638 36.701 11.265 37.345C10.892 37.989 10.722 37.515 10.383 37.545C10.122 37.571 10.012 37.953 9.517 38.161C9.626 38.561 9.738 38.961 9.867 39.35H9.895C9.834 39.168 9.741 39.002 9.685 38.818C12.75 38.358 15.948 38.002 19.226 37.729L19.337 37.548C17.9137 37.4848 16.5077 37.2105 15.165 36.734C13.944 36.091 13.707 36.057 13.266 36.43Z" fill="#D21313"></path><path d="M53.531 34.81C53.6663 34.6189 53.7455 34.3937 53.7598 34.16C53.774 33.9263 53.7228 33.6932 53.6118 33.487C53.5008 33.2809 53.3345 33.1097 53.1315 32.993C52.9286 32.8762 52.697 32.8183 52.463 32.826C51.063 32.826 50.886 33.513 50.886 33.513C50.7629 33.2302 50.5732 32.9814 50.3329 32.788C50.0927 32.5945 49.8092 32.4622 49.5067 32.4022C49.2041 32.3422 48.8916 32.3565 48.5958 32.4437C48.2999 32.5309 48.0296 32.6885 47.808 32.903C47.5211 33.1464 47.3177 33.4737 47.2264 33.8387C47.1351 34.2037 47.1605 34.5882 47.299 34.938C47.1152 34.7241 46.8652 34.5777 46.5887 34.5223C46.3122 34.4668 46.025 34.5054 45.773 34.632C44.96 34.932 43.765 36.788 43.273 37.6C47.087 37.878 50.78 38.288 54.314 38.819C54.203 39.185 54.025 39.519 53.897 39.875C53.914 39.87 53.932 39.858 53.949 39.853C54.488 38.3472 54.8694 36.7895 55.087 35.205C54.8861 35.0069 54.636 34.866 54.3625 34.7965C54.0891 34.7271 53.8021 34.7318 53.531 34.81V34.81Z" fill="#D21313"></path><path d="M32 37.188C24.5315 37.1781 17.0727 37.7232 9.685 38.819C11.1452 43.5989 14.1016 47.7836 18.1189 50.757C22.1362 53.7303 27.002 55.3351 32 55.3351C36.9979 55.3351 41.8638 53.7303 45.8811 50.757C49.8984 47.7836 52.8548 43.5989 54.315 38.819C46.9273 37.7232 39.4685 37.1781 32 37.188V37.188Z" fill="#670A0A"></path><path d="M40.623 46.883L32 41.929L23.377 46.883H40.623Z" fill="#5E3131"></path><path d="M19.891 48.885L15.925 51.164L48.226 51.25L44.109 48.885H19.891Z" fill="#5E3131"></path><path d="M51.725 53.26L55.334 55.334L37.193 41.934H32L40.623 46.888H23.377L32 41.929H26.807L8.666 55.334L12.275 53.26H51.725ZM44.109 48.885L48.226 51.25L15.926 51.164L19.892 48.885H44.109Z" fill="#D21313"></path><path d="M44.459 17.417H19.542C18.3684 17.417 17.417 18.3684 17.417 19.542V44.459C17.417 45.6326 18.3684 46.584 19.542 46.584H44.459C45.6326 46.584 46.584 45.6326 46.584 44.459V19.542C46.584 18.3684 45.6326 17.417 44.459 17.417Z" fill="#D21313"></path><path d="M44.459 17.417H19.541C19.1704 17.4217 18.8077 17.5243 18.4896 17.7145C18.1715 17.9047 17.9094 18.1757 17.73 18.5C18.044 18.3038 18.4049 18.1954 18.775 18.186H43.692C44.2556 18.186 44.7961 18.4099 45.1946 18.8084C45.5931 19.2069 45.817 19.7474 45.817 20.311V45.225C45.8072 45.5955 45.6977 45.9565 45.5 46.27C45.8238 46.0901 46.0943 45.8277 46.284 45.5094C46.4737 45.1912 46.5758 44.8284 46.58 44.458V19.541C46.58 18.9782 46.3566 18.4384 45.959 18.0402C45.5613 17.6419 45.0218 17.4178 44.459 17.417V17.417Z" fill="#FBD0D0"></path><path d="M41.91 20.818C41.357 20.754 40.801 20.727 40.247 20.674C40.1559 21.1386 39.9071 21.5574 39.5426 21.8596C39.1781 22.1617 38.7204 22.3286 38.247 22.332H25.75C25.2766 22.3286 24.8189 22.1617 24.4544 21.8596C24.0899 21.5574 23.8411 21.1386 23.75 20.674C23.196 20.727 22.64 20.754 22.087 20.818C21.5673 20.8783 21.088 21.1275 20.7401 21.5182C20.3921 21.9089 20.1999 22.4138 20.2 22.937V34.01C20.2 34.5336 20.3924 35.0389 20.7407 35.4298C21.089 35.8207 21.5689 36.0699 22.089 36.13L30.553 37.105C31.5138 37.216 32.4842 37.216 33.445 37.105L41.909 36.13C42.4295 36.0703 42.9098 35.8213 43.2585 35.4304C43.6072 35.0394 43.8 34.5339 43.8 34.01V22.937C43.8 22.4134 43.6073 21.9081 43.2588 21.5173C42.9103 21.1266 42.4302 20.8776 41.91 20.818V20.818Z" fill="#FBD0D0"></path><path d="M41.91 35.255L33.446 36.231C32.4852 36.342 31.5148 36.342 30.554 36.231L22.091 35.255C21.5708 35.1953 21.0907 34.9464 20.7422 34.5557C20.3937 34.1649 20.201 33.6596 20.201 33.136V34.01C20.2012 34.5337 20.3939 35.039 20.7424 35.4299C21.0908 35.8207 21.5708 36.0699 22.091 36.13L30.554 37.105C31.5148 37.216 32.4852 37.216 33.446 37.105L41.91 36.13C42.4302 36.0699 42.9102 35.8207 43.2586 35.4299C43.6071 35.039 43.7998 34.5337 43.8 34.01V33.136C43.8 33.6596 43.6074 34.1649 43.2588 34.5557C42.9103 34.9464 42.4302 35.1953 41.91 35.255V35.255Z" fill="white"></path><path d="M31.266 26.324L26.015 31.576L27.002 31.538L32.254 26.286L31.266 26.324Z" fill="white"></path><path d="M37.506 26.324L32.254 31.576L33.242 31.538L38.494 26.287L37.506 26.324Z" fill="white"></path><path d="M25.394 39.855H21.36C20.7199 39.855 20.201 40.3739 20.201 41.014V41.872C20.201 42.5121 20.7199 43.031 21.36 43.031H25.394C26.0341 43.031 26.553 42.5121 26.553 41.872V41.014C26.553 40.3739 26.0341 39.855 25.394 39.855Z" fill="#5E3131"></path><path d="M22.114 42.345C22.6122 42.345 23.016 41.9412 23.016 41.443C23.016 40.9448 22.6122 40.541 22.114 40.541C21.6158 40.541 21.212 40.9448 21.212 41.443C21.212 41.9412 21.6158 42.345 22.114 42.345Z" fill="#FBD0D0"></path><path d="M24.64 42.345C25.1382 42.345 25.542 41.9412 25.542 41.443C25.542 40.9448 25.1382 40.541 24.64 40.541C24.1418 40.541 23.738 40.9448 23.738 41.443C23.738 41.9412 24.1418 42.345 24.64 42.345Z" fill="#FBD0D0"></path><path d="M42.64 39.855H38.606C37.9659 39.855 37.447 40.3739 37.447 41.014V41.872C37.447 42.5121 37.9659 43.031 38.606 43.031H42.64C43.2801 43.031 43.799 42.5121 43.799 41.872V41.014C43.799 40.3739 43.2801 39.855 42.64 39.855Z" fill="#5E3131"></path><path d="M39.36 42.345C39.8582 42.345 40.262 41.9412 40.262 41.443C40.262 40.9448 39.8582 40.541 39.36 40.541C38.8618 40.541 38.458 40.9448 38.458 41.443C38.458 41.9412 38.8618 42.345 39.36 42.345Z" fill="#FBD0D0"></path><path d="M41.886 42.345C42.3842 42.345 42.788 41.9412 42.788 41.443C42.788 40.9448 42.3842 40.541 41.886 40.541C41.3878 40.541 40.984 40.9448 40.984 41.443C40.984 41.9412 41.3878 42.345 41.886 42.345Z" fill="#FBD0D0"></path><path d="M46.879 24.89H46.579V31.224H46.879C47.2362 31.224 47.5789 31.0821 47.8315 30.8295C48.0841 30.5769 48.226 30.2342 48.226 29.877V26.237C48.226 25.8798 48.0841 25.5371 47.8315 25.2845C47.5789 25.0319 47.2362 24.89 46.879 24.89V24.89Z" fill="#D21313"></path><path d="M46.879 24.89H46.579V25.082C46.9137 25.1071 47.2266 25.2573 47.4556 25.5026C47.6846 25.7479 47.8129 26.0704 47.815 26.406V30.047C47.8121 30.2719 47.752 30.4923 47.6404 30.6876C47.5288 30.8828 47.3693 31.0464 47.177 31.163C47.4712 31.0989 47.7348 30.9366 47.9247 30.703C48.1145 30.4693 48.2194 30.1781 48.222 29.877V26.237C48.222 25.8804 48.0806 25.5384 47.8289 25.2859C47.5771 25.0334 47.2356 24.8911 46.879 24.89V24.89Z" fill="#FBD0D0"></path><path d="M17.121 24.89H17.421V31.224H17.121C16.7638 31.224 16.4211 31.0821 16.1685 30.8295C15.9159 30.5769 15.774 30.2342 15.774 29.877V26.237C15.774 25.8798 15.9159 25.5371 16.1685 25.2845C16.4211 25.0319 16.7638 24.89 17.121 24.89V24.89Z" fill="#D21313"></path><path d="M37.853 21.938H26.147C26.0589 21.938 25.9745 21.973 25.9122 22.0352C25.85 22.0975 25.815 22.182 25.815 22.27C25.815 22.3581 25.85 22.4425 25.9122 22.5048C25.9745 22.567 26.0589 22.602 26.147 22.602H37.853C37.9411 22.602 38.0255 22.567 38.0878 22.5048C38.15 22.4425 38.185 22.3581 38.185 22.27C38.185 22.182 38.15 22.0975 38.0878 22.0352C38.0255 21.973 37.9411 21.938 37.853 21.938Z" fill="#D21313"></path></svg>