<svg xmlns="http://www.w3.org/2000/svg" width="48" height="48" viewBox="0 0 48 48" fill="none"><rect width="48" height="48" fill="white"></rect><g clip-path="url(#clip0)"><path d="M11.4701 14.8001C10.1201 14.1401 8.4701 14.4301 7.6701 15.8001C6.9601 17.0201 7.3101 18.9401 8.6701 19.6001C10.4301 20.4501 12.0401 21.5001 13.2801 22.6001C14.0201 23.2501 14.7201 23.9501 15.3801 24.6901C16.1501 25.5601 16.4001 25.8901 17.0301 26.8301C17.5801 27.6501 18.0801 28.5101 18.5201 29.4001C19.0101 30.3801 19.1401 30.6901 19.5001 31.7401C20.1801 33.7301 20.5101 35.4801 20.6101 37.2401C20.6901 38.7401 21.8301 40.0201 23.3901 40.0201C24.8301 40.0201 26.2501 38.7501 26.1701 37.2401C25.6501 27.8401 19.9901 18.9501 11.4701 14.8001Z" fill="#FE8B8B"></path><path d="M35.0897 14.46C31.4297 10.13 26.0797 7.61996 20.4997 7.00996C19.0097 6.84996 17.7197 8.39996 17.7197 9.78996C17.7197 11.43 18.9997 12.4 20.4997 12.57C22.2397 12.76 24.5097 13.47 26.1897 14.37C28.1797 15.44 29.6797 16.65 31.1597 18.39C34.0197 21.75 35.1497 26.25 34.7497 30.62C34.6097 32.12 36.1197 33.4 37.5297 33.4C39.1497 33.4 40.1697 32.12 40.3097 30.62C40.8497 24.78 38.8697 18.92 35.0897 14.46Z" fill="#FE8B8B"></path><path d="M29.1836 11.7227L30.1828 11.7634C30.2052 11.2129 29.7781 10.7479 29.2276 10.7236L29.1836 11.7227ZM28.1641 36.7188L28.1182 37.7177C28.3841 37.7299 28.6438 37.6356 28.8399 37.4558C29.036 37.276 29.1524 37.0254 29.1632 36.7595L28.1641 36.7188ZM20.5 36.3672L19.5003 36.3418C19.4865 36.886 19.9104 37.3412 20.4542 37.3661L20.5 36.3672ZM20.9219 19.7383L21.9216 19.7636C21.9311 19.3878 21.7291 19.0384 21.3986 18.8592C21.0682 18.68 20.6651 18.7013 20.3553 18.9142L20.9219 19.7383ZM18.1094 21.6719L17.1936 22.0735C17.3133 22.3465 17.5486 22.5519 17.8353 22.6336C18.122 22.7153 18.4302 22.6648 18.6759 22.4959L18.1094 21.6719ZM15.4727 15.6602L14.8734 14.8596C14.5014 15.1381 14.3702 15.6362 14.5569 16.0618L15.4727 15.6602ZM21.2031 11.3711L21.2471 10.3721C21.0162 10.3619 20.7889 10.432 20.6039 10.5705L21.2031 11.3711ZM28.1844 11.6819L27.1649 36.678L29.1632 36.7595L30.1828 11.7634L28.1844 11.6819ZM28.2099 35.7198L20.5458 35.3682L20.4542 37.3661L28.1182 37.7177L28.2099 35.7198ZM21.4997 36.3925L21.9216 19.7636L19.9222 19.7129L19.5003 36.3418L21.4997 36.3925ZM20.3553 18.9142L17.5428 20.8478L18.6759 22.4959L21.4884 20.5623L20.3553 18.9142ZM19.0252 21.2702L16.3884 15.2585L14.5569 16.0618L17.1936 22.0735L19.0252 21.2702ZM16.0719 16.4607L21.8023 12.1717L20.6039 10.5705L14.8734 14.8596L16.0719 16.4607ZM21.1591 12.3701L29.1396 12.7217L29.2276 10.7236L21.2471 10.3721L21.1591 12.3701Z" fill="black"></path></g><defs><clipPath id="clip0"><rect width="36" height="33.01" fill="white" transform="translate(6 7)"></rect></clipPath></defs></svg>