<svg xmlns="http://www.w3.org/2000/svg" width="48" height="48" viewBox="0 0 48 48" fill="none"><rect width="48" height="48" fill="white"></rect><g clip-path="url(#clip0)"><path d="M11.4701 14.8001C10.1201 14.1401 8.4701 14.4301 7.6701 15.8001C6.9601 17.0201 7.3101 18.9401 8.6701 19.6001C10.4301 20.4501 12.0401 21.5001 13.2801 22.6001C14.0201 23.2501 14.7201 23.9501 15.3801 24.6901C16.1501 25.5601 16.4001 25.8901 17.0301 26.8301C17.5801 27.6501 18.0801 28.5101 18.5201 29.4001C19.0101 30.3801 19.1401 30.6901 19.5001 31.7401C20.1801 33.7301 20.5101 35.4801 20.6101 37.2401C20.6901 38.7401 21.8301 40.0201 23.3901 40.0201C24.8301 40.0201 26.2501 38.7501 26.1701 37.2401C25.6501 27.8401 19.9901 18.9501 11.4701 14.8001Z" fill="#FE8B8B"></path><path d="M35.0897 14.46C31.4297 10.13 26.0797 7.61996 20.4997 7.00996C19.0097 6.84996 17.7197 8.39996 17.7197 9.78996C17.7197 11.43 18.9997 12.4 20.4997 12.57C22.2397 12.76 24.5097 13.47 26.1897 14.37C28.1797 15.44 29.6797 16.65 31.1597 18.39C34.0197 21.75 35.1497 26.25 34.7497 30.62C34.6097 32.12 36.1197 33.4 37.5297 33.4C39.1497 33.4 40.1697 32.12 40.3097 30.62C40.8497 24.78 38.8697 18.92 35.0897 14.46Z" fill="#FE8B8B"></path><path d="M29.1836 11.7227L31.1819 11.8042C31.2268 10.7031 30.3726 9.77309 29.2716 9.72459L29.1836 11.7227ZM28.1641 36.7188L28.0724 38.7166C28.604 38.741 29.1235 38.5525 29.5157 38.1929C29.908 37.8332 30.1407 37.332 30.1624 36.8003L28.1641 36.7188ZM20.5 36.3672L18.5006 36.3165C18.473 37.4047 19.3209 38.3152 20.4084 38.3651L20.5 36.3672ZM20.9219 19.7383L22.9212 19.789C22.9403 19.0374 22.5362 18.3386 21.8753 17.9802C21.2144 17.6218 20.4084 17.6643 19.7888 18.0902L20.9219 19.7383ZM18.1094 21.6719L16.2778 22.4752C16.5173 23.0212 16.9879 23.4319 17.5613 23.5953C18.1347 23.7587 18.7511 23.6577 19.2424 23.32L18.1094 21.6719ZM15.4727 15.6602L14.2742 14.059C13.5301 14.616 13.2677 15.6122 13.6411 16.4635L15.4727 15.6602ZM21.2031 11.3711L21.2911 9.37303C20.8293 9.35269 20.3748 9.49293 20.0047 9.76992L21.2031 11.3711ZM27.1853 11.6411L26.1657 36.6372L30.1624 36.8003L31.1819 11.8042L27.1853 11.6411ZM28.2557 34.7209L20.5916 34.3693L20.4084 38.3651L28.0724 38.7166L28.2557 34.7209ZM22.4994 36.4179L22.9212 19.789L18.9225 19.6876L18.5006 36.3165L22.4994 36.4179ZM19.7888 18.0902L16.9763 20.0238L19.2424 23.32L22.0549 21.3864L19.7888 18.0902ZM19.941 20.8686L17.3042 14.8568L13.6411 16.4635L16.2778 22.4752L19.941 20.8686ZM16.6711 17.2613L22.4016 12.9723L20.0047 9.76992L14.2742 14.059L16.6711 17.2613ZM21.1151 13.3692L29.0956 13.7207L29.2716 9.72459L21.2911 9.37303L21.1151 13.3692Z" fill="black"></path></g><defs><clipPath id="clip0"><rect width="36" height="33.01" fill="white" transform="translate(6 7)"></rect></clipPath></defs></svg>