<svg xmlns="http://www.w3.org/2000/svg" viewBox="0 0 512 512" width="512" height="512"><rect fill="#a0a5ab" width="512" height="512" rx="180"/><path fill="#fff" d="M276,100H132a32,32,0,0,0-32,32v20a32,32,0,0,0,32,32H276a32,32,0,0,0,32-32V132A32,32,0,0,0,276,100Zm-2.93,49.07A10,10,0,0,1,266,152H142a10,10,0,0,1,0-20H266a10,10,0,0,1,7.07,17.07ZM276,214H132a32,32,0,0,0-32,32v20a32,32,0,0,0,32,32H276a32,32,0,0,0,32-32V246A32,32,0,0,0,276,214Zm-2.93,49.07A10,10,0,0,1,266,266H142a10,10,0,0,1,0-20H266a10,10,0,0,1,7.07,17.07ZM276,328H132a32,32,0,0,0-32,32v20a32,32,0,0,0,32,32H276a32,32,0,0,0,32-32V360A32,32,0,0,0,276,328Zm-2.93,49.07A10,10,0,0,1,266,380H142a10,10,0,0,1,0-20H266a10,10,0,0,1,7.07,17.07ZM392,284.28v57.44a30,30,0,1,1-20,0V284.28a30,30,0,0,1,0-56.56V170.28a30,30,0,1,1,20,0v57.44a30,30,0,0,1,0,56.56Z"/></svg>